<?xml version="1.0" encoding="UTF-8"?>
<svg id="Layer_2" data-name="Layer 2" xmlns="http://www.w3.org/2000/svg" viewBox="0 0 81.42 496.02">
  <defs>
    <style>
      .cls-1 {
        fill: #ac8f3b;
      }

      .cls-2 {
        fill: #e7d871;
      }

      .cls-3 {
        fill: #f7eaa4;
      }

      .cls-4 {
        fill: #e2d28a;
      }

      .cls-5 {
        fill: #765424;
      }

      .cls-6 {
        fill: #684720;
      }

      .cls-7 {
        fill: #725f28;
      }

      .cls-8 {
        fill: #bca446;
      }

      .cls-9 {
        fill: #ceb956;
      }
    </style>
  </defs>
  <g id="_レイヤー_1" data-name="レイヤー 1">
    <g id="yellow">
      <path class="cls-8" d="M75.89,33.2c-.46.84-.65.64-.68.68-3.17,5.69-3.27,4.3-4.74,11.52-8.31-3.32-4.23-3.81-4.07-5.08.52-3.96-1.14-5.3-1.36-7.12-.04-.33,1.32-2.83.68-4.07,5.03.48,5.06,2.89,10.16,4.07Z"/>
      <path class="cls-1" d="M43.37,172.79c-3.42-4.32-2.8-11.26-9.15-12.87l-1.69,2.37c2.4,43.74-12.17,87.33-14.23,130.1-.69,14.25-3.05,43.01,16.26,44.72-2.19,1.51-2.38,4.49-2.71,5.76-1.09,4.14-2.76,8.48-2.71,12.87-2.69-.31-1.86.52-2.03,2.37-.57,6.2-.11,14.11.68,20.33l-3.05-6.44c-3.75,22.15-1.79,45.07-3.73,67.42-.1,1.1-.22,2.47-1.36,3.05-1.42-7.64-4.84-15.87-6.1-23.38-7.31-43.63,11.16-82.51-8.13-127.05,6.51-42.45,22.5-84.14,18.3-127.73l2.03,5.42v13.55c2.07-3.78,1.05-15.73,0-21.01-.81-4.05-3.28-7.72-4.74-11.52,7.67,4.29,13.86,7.82,22.7,3.73-.04,6.07-.69,12.21-.34,18.3Z"/>
      <path class="cls-9" d="M46.08,177.54c1.47,45.63,14.66,82.01,10.16,129.43-.34,3.62-2.33,8.69-2.71,12.87-4.5,4.83-7.08,5.84-13.55,6.78.83-2.28,5.11-1.59,7.12-2.71,4.61-2.57,7.17-12.21,7.79-17.28,2.15-17.42-1.27-37.14-2.71-52.18-.82-8.5-.54-17.24-1.36-25.75l-1.02-1.69c-.39,3.98-4.22,3.15-6.78,1.36-8.67-6.06-1.3-41.33-3.73-51.84l1.02-1.02,5.42,25.75.34-23.72Z"/>
      <path class="cls-7" d="M58.28,310.35c.92,7.39-2.61,34.59-3.39,44.05-.35,4.25-2.34,8.54-2.71,12.54-1.34,14.63-.45,30.82,5.42,44.38-.37,2.08-.91,4.05-1.36,6.1-5.53-15.6-7.68-31.91-6.78-48.45.78-14.24,2.76-31.9,4.07-46.42.12-1.28-.01-2.58,0-2.71.38-4.18,2.37-9.26,2.71-12.87,1.29-.58,1.98,2.97,2.03,3.39Z"/>
      <path class="cls-9" d="M46.08,177.54l-.34,23.72-5.42-25.75-1.02,1.02c2.43,10.5-4.94,45.78,3.73,51.84,2.56,1.79,6.38,2.62,6.78-1.36l1.02,1.69c.81,8.51.54,17.25,1.36,25.75,1.44,15.04,4.86,34.76,2.71,52.18-.63,5.07-3.18,14.71-7.79,17.28-2,1.12-6.28.43-7.12,2.71-1.96.28-4.39-.2-6.44,0,5.21,3.25,15.77,1.09,19.99-4.07-1.31,14.52-3.29,32.17-4.07,46.42-.9,16.54,1.24,32.85,6.78,48.45-1.69,7.82-5.09,15.55-6.78,23.38-3.91,18.13-6.28,36.56-5.42,55.23-5.64,0-11.3,0-16.94,0-.65-18.16-4.16-35.78-7.45-53.53,1.13-.58,1.26-1.95,1.36-3.05,1.94-22.35-.02-45.27,3.73-67.42l3.05,6.44c-.79-6.22-1.25-14.13-.68-20.33.17-1.86-.66-2.68,2.03-2.37.02,1.65.36,4.43,1.36,5.76-.77-9.83,1.39-18.55,8.13-25.75-3.5-.09-4.44,5.32-6.78,7.12.33-1.27.52-4.25,2.71-5.76-19.32-1.71-16.95-30.48-16.26-44.72,2.06-42.78,16.63-86.37,14.23-130.1l1.69-2.37c6.35,1.62,5.72,8.55,9.15,12.87.13,2.24-.02,5.17,1.36,7.12.85-7.42-1.14-17.3,0-24.39.08-.48,1.1-5.14,2.71-4.07-1.84,8.46-1.64,17.38-1.36,26.09Z"/>
      <path class="cls-9" d="M39.64,347.62c1.48.59-1.66,4.69-1.69,5.08-2.13,23.19,20.84,75.78,8.81,97.58-.63,1.13-2.88,2.51-3.73,3.73-2.34.56-5.27-1.75-6.44-3.73-7.48-12.66-5.54-79.77-1.36-94.87.64-2.29,2.9-5.82,4.4-7.79Z"/>
      <path class="cls-9" d="M36.93,236.49c4.17,17.59,12.79,57.77,4.4,74.2-2.36,4.63-6.98,7.62-10.16,2.03-6.43-11.29,3-61.69,5.76-76.23Z"/>
      <path class="cls-5" d="M53.53,322.55c-4.22,5.16-14.78,7.32-19.99,4.07,2.05-.2,4.48.28,6.44,0,6.47-.94,9.05-1.95,13.55-6.78-.01.13.12,1.43,0,2.71Z"/>
      <path class="cls-5" d="M29.14,355.75c-.05-4.39,1.62-8.73,2.71-12.87,2.34-1.79,3.28-7.2,6.78-7.12-6.74,7.2-8.9,15.92-8.13,25.75-1-1.33-1.34-4.11-1.36-5.76Z"/>
      <path class="cls-7" d="M46.42,327.97c2.43.45-1.87,1.99-2.03,2.03-1.77.46-4.68,1-6.44.34l8.47-2.37Z"/>
      <path class="cls-1" d="M40.32,331.36c.89-.08,1.81.05,2.71,0-.02,1.92-6.42,1.52-6.44,1.02,1.01.06,3.37-.99,3.73-1.02Z"/>
      <path class="cls-9" d="M65.05,33.2c.21,1.81,1.88,3.15,1.36,7.12-.17,1.27-4.24,1.76,4.07,5.08-.22,1.07.74,3.45-1.02,3.39-.97-5.68-13-5.55-13.21-8.81,4.69-.61,5.15-5.23,8.81-6.78Z"/>
      <path class="cls-5" d="M75.89,33.2c-5.11-1.17-5.14-3.59-10.16-4.07-.08,0-.43-1.15-1.02-1.36l-8.47,12.2c.21,3.26,12.24,3.13,13.21,8.81,1.76.06.8-2.31,1.02-3.39,1.48-7.22,1.58-5.83,4.74-11.52-7.5,13.16.77,24.3-2.03,38.29-2.91,14.49-18.04,22.61-21.01,36.59-2.56,12.05,3.22,22.32.68,35.91-8.58,45.87,3.88,69.6,6.78,113.16.97,14.56.82,29.15,0,43.71-.63,2.83-.91,5.93-1.36,8.81-.05-.42-.74-3.96-2.03-3.39,4.5-47.41-8.7-83.79-10.16-129.43-.28-8.71-.48-17.63,1.36-26.09-1.61-1.08-2.63,3.58-2.71,4.07-1.14,7.09.85,16.98,0,24.39-1.38-1.95-1.23-4.87-1.36-7.12-.35-6.08.3-12.23.34-18.3-8.84,4.09-15.03.56-22.7-3.73,1.46,3.8,3.94,7.46,4.74,11.52,1.05,5.27,2.07,17.23,0,21.01v-13.55l-2.03-5.42c4.2,43.59-11.78,85.28-18.3,127.73-.44-1.02-2.76-5.63-3.39-4.07-.45-1.48-1.55-3.18-2.03-4.74l1.36-.68c.33.76,1.43,4.62,2.71,3.73,3.94-41.09,22.83-82.95,16.94-124.68-1.43-10.12-8.48-22.06-9.49-31.17-1.14-10.34,3.56-21.52,2.71-33.2-.99-13.63-7.17-23.55-6.1-38.62.14-1.98,3.19-6.14,2.71-8.81-.12-.67-3.61-4.05-4.07-5.42-2.23-6.67-1.85-10.82,1.02-17.28l3.73,1.69c1.3-7.65,1.16-17.76,10.5-9.83.26-9.31,2.17-16.51,12.2-9.49,10.54,7.38,2.41,20.87,7.45,29.82-1.5-7.54,1.95-12.01,1.02-19.31-.04-.3-2.54-4.06-2.71-5.42-.6-4.78,1.25-10.42,3.73-14.57,5.72,1.47,12.15,4.12,13.89,10.5,2.4,8.82-5.52,17.24-1.02,26.09,5.29-5.06,5.32-15.69,9.15-20.67,2.56-3.34,6.35-3.39,8.81-6.1.65-.72,1.94-8.89,4.74-4.07-.45,6.08,2.75,11.05,2.03,16.94-.59,4.88-3.51,7-5.42,10.5Z"/>
      <path class="cls-9" d="M50.14,138.23c-.29,1.36-.92,2.2-1.36,3.39-.55-.08-1.92.12-2.03,0-.18-.19.34-1.87-.34-2.03-.72-.18-4.38,5.53-13.55.68-14.85-7.86-7.2-30.13,1.69-39.98,4.82-3.14,8.82-7.47,14.91-9.15-8.41.93-16.34,7.44-21.68,13.89-1.06.53-.7.7-2.03.68,5.07-8.8,13.72-13.31,23.04-16.6-10.13.56-18.21,7.97-24.39,15.25-.07-.1-2,.06-2.03-1.36,4.26-5.44,12.61-13.72,18.97-16.26,1.69-.68,21.75-5.07,21.68-2.37-9.71,9.24-20.51,26.54-18.3,40.66.63,4.05,3.4,5.09,4.07,6.78,1.05,2.65-.99,5.09,1.36,6.44Z"/>
      <path class="cls-9" d="M50.14,138.23c-2.34-1.35-.3-3.79-1.36-6.44-.67-1.69-3.43-2.73-4.07-6.78-2.21-14.12,8.58-31.42,18.3-40.66.07-2.7-19.99,1.7-21.68,2.37,5.92-4.3,13.48-3.95,20.33-5.42,7.86-1.77,8.26-14.28,7.45-20.67l-23.04,3.05c7.43-4.12,13.57-4.17,18.97-6.78,5.28-2.54-2.69-8.18-5.76-8.81-7.93-1.63-20.88,2.72-27.44-3.39,9.15-3.26,30.55-3.81,36.59,5.08,15.08,22.19-15.17,41.41-18.97,59.63-2.34,11.2,2.88,18.33.68,28.8Z"/>
      <path class="cls-1" d="M26.43,47.43c-7.41,6.33-11.94,19.39-8.81,28.8,3.55,10.67,13.97,8.52,6.1,22.02-.42.71-4.81,7.59-6.1,6.44,1.82-21.8-20.97-45.56,8.81-57.26Z"/>
      <path class="cls-8" d="M46.42,22.36c.34-.11,6.98.68,7.12,1.02.6,1.55,1.28,18.37.34,18.63l-10.5-1.69c-1.95-2.46,1.75-17.53,3.05-17.96Z"/>
      <path class="cls-8" d="M23.72,17.62l5.08-6.78c4.86,10.94,13.29,12.33,3.73-.68,17.14,10.42-6.8,26.18-8.81,7.45Z"/>
      <path class="cls-3" d="M77.25,28.46c-.13-4.03-4.06-6.95-5.08-11.52l-6.44,8.13c-4.07-6.86,9.68-12.1,11.86-17.62.16,7.19,3.99,14.31-.34,21.01Z"/>
      <path class="cls-9" d="M54.89,18.3c-4.42,6.92-12.85,1.96-13.55-5.42l5.08-6.1c1.89,2.8,2.71,5.14,5.42,7.45,1.57,1.34,4.34-1.34,3.05,4.07Z"/>
      <path class="cls-2" d="M54.89,18.3c1.29-5.4-1.48-2.73-3.05-4.07-2.71-2.31-3.53-4.65-5.42-7.45l-5.08,6.1c-.35-3.7,1.28-8.98,3.73-11.52,7.22,1.91,14.14,10.19,9.83,16.94Z"/>
      <path class="cls-9" d="M77.25,28.46c-3.22,4.97-8.99.87-11.52-3.39l6.44-8.13c1.03,4.57,4.95,7.49,5.08,11.52Z"/>
      <path class="cls-2" d="M23.04,33.2l-6.44-10.16-3.05,6.1c-1.6-4.93,1.02-7.32,3.05-11.52,6.32,1.37,13.99,12,6.44,15.59Z"/>
      <path class="cls-1" d="M38.62,27.78c-6.45,5.37-5.73,7.67.68,12.2-.69,1.19-7.1.71-8.47,2.71.12-2.7-1.64-12.91,0-14.23.84-.68,5.79-.78,6.78-3.39.57.86.84,1.69,1.02,2.71Z"/>
      <path class="cls-8" d="M9.15,29.82c4.01.4,7.18,4.48,6.44,8.47-7.11,5.79-11.87-1.71-6.44-8.47Z"/>
      <path class="cls-2" d="M32.53,10.16c9.56,13.01,1.13,11.62-3.73.68l-5.08,6.78c-.74-6.92,1.81-11.71,8.81-7.45Z"/>
      <path class="cls-8" d="M23.04,33.2c-4.1,1.95-8.09.25-9.49-4.07l3.05-6.1,6.44,10.16Z"/>
      <path class="cls-1" d="M16.94,43.37c-2.84.84-2.23,4.21,0,6.1-1.51,2-3.31,3.66-5.08,5.42,2.19-5.72-1.4-6.86-3.05-11.86,4.56-1.65,6.02-4.19,8.13.34Z"/>
      <path class="cls-8" d="M26.43,35.91c-2.47.88-2.48,6.28-1.36,8.13-1.53.79-2.13,2.91-3.39,1.02-1.39-8.03-5.66-7.81,3.73-11.86,1.42.78.75,1.88,1.02,2.71Z"/>
      <path class="cls-9" d="M38.62,27.78c.18,1.04.99,11.67.68,12.2-6.4-4.53-7.13-6.83-.68-12.2Z"/>
      <path class="cls-3" d="M65.73,29.14c.64,1.24-.72,3.73-.68,4.07-3.65,1.55-4.12,6.16-8.81,6.78l8.47-12.2c.59.2.93,1.35,1.02,1.36Z"/>
      <path class="cls-2" d="M26.43,35.91c.27.85,2.2,6.78,2.03,7.12-.21.43-2.76.69-3.39,1.02-1.13-1.85-1.12-7.25,1.36-8.13Z"/>
      <path class="cls-4" d="M16.94,43.37c.19.4,2.05,4.81,2.03,5.08-.04.94-1.96.93-2.03,1.02-2.23-1.89-2.84-5.26,0-6.1Z"/>
      <path class="cls-9" d="M31.85,44.72c6.56,6.1,19.52,1.76,27.44,3.39,3.07.63,11.04,6.27,5.76,8.81-15.39-4.29-26.64,8.63-37.95,16.6,10.79-3.91,17.92-16.03,30.49-16.26-7.92,2.27-15.07,6.47-21.01,12.2,3.49-1.11,6.17-3.92,9.49-5.76l23.04-3.05c.8,6.38.41,18.9-7.45,20.67-2.63.59-7.16-.58-9.83,0-11.39,2.48-19.94,8.86-28.12,16.94,7.88-13.5-2.55-11.35-6.1-22.02-3.13-9.41,1.4-22.47,8.81-28.8,2.5-2.13,2.71-1.74,5.42-2.71Z"/>
      <path class="cls-5" d="M65.05,56.92c-5.41,2.6-11.54,2.66-18.97,6.78-3.32,1.84-5.99,4.65-9.49,5.76,5.94-5.73,13.09-9.92,21.01-12.2-12.57.23-19.7,12.35-30.49,16.26,11.31-7.97,22.56-20.9,37.95-16.6Z"/>
      <path class="cls-6" d="M53.19,67.08c.67-.04,1.36.02,2.03,0,1.43.74-8.67,3.62-9.49,4.07-5.25,2.83-8.71,7.78-13.89,10.5,3.39-5.5,15.06-14.23,21.35-14.57Z"/>
      <path class="cls-6" d="M43.03,50.82c2.03.45-.98,2.99-1.36,3.39-2.73,2.91-8.71,7.6-12.54,9.15l13.89-12.54Z"/>
      <path class="cls-6" d="M25.75,105.71c-.76-.01-.87,1.25-2.03.34-.07-.06,1.19-.9.68-1.69,6.18-7.28,14.27-14.69,24.39-15.25-9.32,3.29-17.97,7.8-23.04,16.6Z"/>
      <path class="cls-5" d="M34.56,100.29c-2.41,1.57-4.24,3.48-6.78,4.74,5.35-6.45,13.28-12.96,21.68-13.89-6.08,1.67-10.09,6.01-14.91,9.15Z"/>
      <path class="cls-1" d="M34.56,100.29c-8.9,9.85-16.54,32.12-1.69,39.98,9.17,4.85,12.83-.86,13.55-.68.68.17.16,1.84.34,2.03-3.37,4.86-4.91,8.61-10.5,11.52l4.74-1.36c3.08-2.6,5.48-5.94,5.76-10.16.11.12,1.49-.08,2.03,0-6.88,18.82-18.37,14.78-29.82,2.37l-2.37-7.12c3.28,8.36,14.03,18.24,22.7,11.86-15.16,4.03-25.11-13.63-24.39-27.1.41-7.85,3-12.96,7.45-18.63.03,1.41,1.97,1.25,2.03,1.36.51.79-.75,1.64-.68,1.69,1.16.91,1.27-.35,2.03-.34,1.33.02.98-.15,2.03-.68,2.54-1.26,4.37-3.18,6.78-4.74Z"/>
      <path class="cls-5" d="M17.28,116.55c.77,7.75.87,16.21,5.76,22.7,2.79,3.71,6.66,4.45,9.15,7.79-12.95-4.51-17.23-17.67-14.91-30.49Z"/>
      <path class="cls-5" d="M46.76,141.62c-.28,4.22-2.68,7.56-5.76,10.16l-4.74,1.36c5.59-2.91,7.13-6.66,10.5-11.52Z"/>
    </g>
  </g>
</svg>