<?xml version="1.0" encoding="UTF-8"?>
<svg id="Layer_2" data-name="Layer 2" xmlns="http://www.w3.org/2000/svg" viewBox="0 0 225.91 351.74">
  <defs>
    <style>
      .cls-1 {
        stroke: #e83c0d;
        stroke-miterlimit: 10;
        stroke-width: .25px;
      }

      .cls-1, .cls-2 {
        fill: #e83c0d;
      }

      .cls-3 {
        fill: #231916;
      }
    </style>
  </defs>
  <g id="_レイヤー_1" data-name="レイヤー 1">
    <g>
      <circle class="cls-3" cx="112.95" cy="112.58" r="81.27"/>
      <g>
        <path class="cls-3" d="M197.81,111.96c-.04.79.58.5.69.62-.17-1.33-.85-.59-.69-.62Z"/>
        <polygon class="cls-3" points="195.34 99.25 195.63 99.43 194.69 97.68 195.34 99.25"/>
        <path class="cls-3" d="M192.62,87.62c-.71,1.39,1.41,4.1,1.47,6.29l-.16.39,1.05.75c-.37-1.25-.83-2.68-1.33-3.99-.5-1.31-.91-2.53-1.03-3.45Z"/>
        <path class="cls-3" d="M192.59,80.77c-.23.53-.85-1.18.44,1.47-.01-.15,0-.2,0-.29-.1-.24-.24-.58-.44-1.17Z"/>
        <path class="cls-3" d="M193.02,81.94c.5,1.19.01-.91,0,0h0Z"/>
        <path class="cls-3" d="M190.48,76.55l1.04,1.4c.08-.42-.5-1.83-.11-1.39-.91-1.52-.97-1.08-.93,0Z"/>
        <path class="cls-3" d="M189.11,75.43c.18.23.36.47.52.72.03-.18-.03-.41-.52-.72Z"/>
        <path class="cls-3" d="M190.69,77.7l-1.06-1.55c-.05.3-.35.46.46.73-.35,0,.08.2.6.83Z"/>
        <path class="cls-3" d="M190.98,78.72c.19.95.49,2.14-.48.72,1.32,2.92,1.88,2.2.48-.72Z"/>
        <path class="cls-3" d="M191.39,87.37c.03.42.07.84.08,1.26l.63.92c-.16-.23-.25-.82-.34-1.33-.1-.51-.22-.93-.36-.85Z"/>
        <path class="cls-3" d="M185.9,66.97c-.25.03-.2.8-.38,1.06.3.3.58.62.86.94-.17-.65-.73-1.74-.49-1.99Z"/>
        <path class="cls-3" d="M185.52,68.02l-1.33-1.36c.86,1.42,1.18,1.58,1.33,1.36Z"/>
        <path class="cls-3" d="M187.92,75.68c.72.76,1.34,1.59,2.01,2.4-.75-.99-1.48-1.98-2.29-2.91l.27.51Z"/>
        <path class="cls-3" d="M181.85,60.99l1.05.56c-.58-.37-1.17-.73-1.77-1.06l.73.5Z"/>
        <path class="cls-3" d="M178.8,57.31c.85.33-.16-1.3.6-.83-.92-.94-1.92-1.56-2.84-2.07.85.66,1.55,1.57,2.24,2.9Z"/>
        <path class="cls-3" d="M175.04,53.53c.44.31.95.58,1.51.88-.46-.34-.95-.65-1.51-.88Z"/>
        <path class="cls-3" d="M182.51,63.96c.03-.2.16-.63-.33-1.57l-.09.97c.13.18.27.39.42.6Z"/>
        <path class="cls-3" d="M182.09,63.39v-.03c-.45-.66-.76-1.12-.89-1.31.11.17.38.57.89,1.34Z"/>
        <path class="cls-3" d="M182.62,64.11c-.04-.06-.07-.1-.1-.15-.01.09,0,.14.1.15Z"/>
        <path class="cls-3" d="M186.16,71.15c-.85-.77-2.29-2.51-1.67-.36.76.45.4-.79,1.67.36Z"/>
        <path class="cls-3" d="M182.49,65.3c.34.56.63,1.15.95,1.72.12-.12.13-.55.57-.2-.51-.51-.99-1.03-1.52-1.52Z"/>
        <polygon class="cls-3" points="181.77 64.63 182.49 65.3 182.12 64.68 181.77 64.63"/>
        <path class="cls-3" d="M176.91,56.45c-.76-.47-1.4-1.15-2.17-1.88.7.89,1.42,1.82,2.14,2.66.25-.01.84.13.03-.78Z"/>
        <path class="cls-3" d="M179.48,59.79s-.1-.09-.15-.13c.03.13.07.21.15.13Z"/>
        <path class="cls-3" d="M167.2,47.44c.02.07.03.13.05.2.03-.02.06-.04.1-.06l-.15-.14Z"/>
        <path class="cls-3" d="M176.92,57.45c.46.72.91,1,1.38,1.24-.46-.44-.94-.92-1.41-1.46-.11,0-.17.03.03.22Z"/>
        <path class="cls-3" d="M172.79,51.65c.23.4.52.83.8,1.29-.15-.46-.57-1.3-.8-1.29Z"/>
        <path class="cls-3" d="M179.29,59.33s.07.05.1.08c-.07-.3-.1-.24-.1-.08Z"/>
        <path class="cls-3" d="M179.29,59.33c-.34-.29-.68-.46-1-.64.36.37.71.71,1.04.98-.03-.11-.04-.24-.04-.33Z"/>
        <path class="cls-3" d="M162.26,48.69c.45-.36,2.54.49,3.51,2.22,1.66.86,2.05-1.35,1.48-3.27-.21.17-.34.31-2.08-.61.37.63,2.79,3.31,1.22,2.66-2.1-1.41-1.47-1.46-2.23-2.48.37,1.2-3.17-1.13-3.39.1.67.3,1.31.67,1.96,1.01-.07.16-.85-.12-.47.37Z"/>
        <path class="cls-3" d="M170.01,50.12l.63.5c-.58-.72-.92-1.31-1.54-2.45-1.21-.67-1.55-.68-1.75-.59.97.89,1.97,1.75,2.92,2.67l-.26-.12Z"/>
        <path class="cls-3" d="M173.24,53.13c-.87-.03-2.46-1.12-2.09.17,1.68,1.59,1.51.78,2.68,1.59-2.72-2.62,1.01.54-.62-1.69.59.46,1.08.93,1.54,1.37-.42-.55-.8-1.09-1.15-1.63.01.04.02.06.03.09h.01s0,.02,0,.02c.06.17.06.25-.04.08-.01,0-.05-.04-.06-.05-.08.04-.18.05-.29.04-.67-.89,0-.24.29-.04.03-.01.07-.01.1-.03v-.02c-.96-.85-2-1.61-2.98-2.41.52.63,1.28,1.28,2.59,2.5Z"/>
        <path class="cls-3" d="M182.3,69.8c-.01-.13.03-.15.06-.18-.19-.16-.29-.21-.06.18Z"/>
        <path class="cls-3" d="M181.81,68.32c.22.18.55.23.97,1,.25.74-.26.16-.42.3.43.35,1.36,1.32.76-.24l-.22-.17c-.61-1.36-1-3.43-.79-3.26-.24.69-.37,1.24-.31,2.38Z"/>
        <path class="cls-3" d="M177.77,60.58c-.71-.76-1.48-1.47-2.23-2.18l.61,1.55.2-.27c1.02,1.43,1.08.9,1.42.91Z"/>
        <path class="cls-3" d="M167.13,46.96l.75-.24c-.66-.17-1.36-.29-2.04-.42l1.29.66Z"/>
        <path class="cls-3" d="M163.83,44.46l.47-.37c-.36-.13-.73-.24-1.1-.36l.63.73Z"/>
        <path class="cls-3" d="M46.05,152.19l.57.65c-.25-.32-.42-.52-.57-.65Z"/>
        <path class="cls-3" d="M43.13,146.73h-.33c.27.18.43.23.33,0Z"/>
        <path class="cls-3" d="M68.26,40.34c-1.43.27-3.2.4-2.7.85l.71.31c.74-.61,1.39-.95,1.99-1.16Z"/>
        <path class="cls-3" d="M33.41,96.62c.08-.11.17-.22.26-.34-.14-.35-.28-.68-.4-.98.05.4.07.84.15,1.32Z"/>
        <path class="cls-3" d="M35.86,98.02l-.7,1.56c.21-.35.44-.85.7-1.56Z"/>
        <path class="cls-3" d="M69.38,176.15c.39.01.78.03,1.18.02-1.27-.86-.9-.22-1.18-.02Z"/>
        <path class="cls-3" d="M125.02,28.67c-1.13-.4-2.05-.62-2.86-.75,1.37.54,2.42,1.23,2.86.75Z"/>
        <path class="cls-3" d="M38.87,153.37c.39.44.62.58.74.5-.39-.45-.66-.68-.74-.5Z"/>
        <path class="cls-3" d="M118.77,27.64c.2.08.4.13.61.2.86-.03,1.74-.09,2.78.08-1.01-.4-2.21-.63-3.39-.28Z"/>
        <path class="cls-3" d="M177.3,155.99c.07-.06.14-.14.21-.19-.06-.07-.13.03-.21.19Z"/>
        <path class="cls-3" d="M196.27,123.79c0,.38-.09,1-.15,1.58.08-.28.14-.75.15-1.58Z"/>
        <path class="cls-3" d="M149.72,35.6c.81.34.16-.01,0,0h0Z"/>
        <path class="cls-3" d="M152.33,39.77c-.2-.02-.36,0-.45.12.14-.1.29-.14.45-.12Z"/>
        <path class="cls-3" d="M110.16,31.48s-.04,0-.07,0c.25.12.21.1.07,0Z"/>
        <path class="cls-3" d="M150.78,36.46c-.26-.22-.57-.45-.92-.68.14.12.42.34.92.68Z"/>
        <path class="cls-3" d="M150.75,36.1c.26.16.46.29.66.41.15-.04.09-.15-.66-.41Z"/>
        <path class="cls-3" d="M148.59,35.13c.46.2.88.42,1.27.65-.14-.11-.19-.17-.14-.17-.24-.1-.57-.24-1.13-.47Z"/>
        <path class="cls-3" d="M123.37,191.2c.06.01.12.02.18.04.78-.37.43-.28-.18-.04Z"/>
        <path class="cls-3" d="M55.58,59.34s.02-.06.04-.09c-.03.02-.07.05-.1.07l.06.02Z"/>
        <path class="cls-3" d="M54.01,61.82c.21-1.45.73-1.95,1.51-2.5-.67-.19-1.36-.37-2.03-.54.16,1.03.33,2.04.52,3.04Z"/>
        <path class="cls-3" d="M54.92,164.03l-.88-1.9c2.3,1.22,3.18,2.71,2.57.78-.82.55-2.19-.84-3.42-2.33-.62-.75-1.24-1.49-1.82-1.99-.55-.52-1.06-.79-1.51-.56l-.43-1.33c.2.32.34.3.54.62-.71-2.64-2.3-.75-3.9-3.75-.49-1.08-.62-1.95-.02-1.38l-1.73-2.01c-.34-.68.06-.68.4-.01-.7-1.13-1.31-2.3-1.98-3.45h.07c-.55-.36-1.5-1.35-1.96-1.84-.16-1.05.41.38.53.04-.45-.61-.92-1.21-1.35-1.84.07-.52.4-.4.76.03.39.42.83,1.14,1.11,1.84.49-1.35.19-1.7-.33-2.29-.48-.6-1.2-1.46-1.43-3.73.31.62.66,1.22.98,1.83.55-1.63-.34-2.99-.4-5.38-.19.6-.21,4.96-1.44,2.88-.07-.69-.3-1.54-1.08-2.65.68-.22.17-1.37-.3-2.87l.94-.14c-.73-1.54-1.1-1.31-1.76-2.18-.34-1.87.29-2.4.83-2.95-.38-2.98-.79,2.27-1.59-1.21-.02-.64-.08-1.22-.18-1.77-.07-.56-.17-1.1-.3-1.66-.26-1.11-.68-2.27-1.05-3.76.19-1.79.6.26.82-.39l-.87-1.51c-.01-.39.23-.27.35-.22-.36-1.31-.96-.06-1.27-2.15-.52-.27-.2-1.37.18-2.7.41-1.33.75-2.89.26-4.21.32-.62.55.34.94.17-.5-3.58-.37-3.05-1.02-6.09.31-.8.61-1.6.98-2.38-1.03,1.7-1.44-.74-1.75-2.96-.45.59-.85,1.1-1.06,1.46.03-1.15.06-2.3.17-3.44.24-.37.48.04.74.66-.02-.24-.05-.47-.08-.65.61-1.1,1-.36,1.33.58-.28.35-.57.71-.84,1.05.42.93.91,1.8,1.48,1.73-.07-.23-.09-.65-.06-1.11.12.24.23.4.34.32.12-.09-.04-.47-.15-1.04l1.2-.5-.37-.27c.53-1.34,1.05-2.67,1.68-3.96-.05-.8-.13-1.59-.21-2.41-.05-.81-.09-1.64-.09-2.53-.01-.89.03-1.83.2-2.84.17-1.01.37-2.12.79-3.3.2,1.43,1.05.74,1.87,1.16-.72.41-.95,1.35-1.17,2.44-.24,1.08-.36,2.35-.85,3.51.52-1.21.84-.79.87-.43.16-1.51.49-2.98.75-4.5.65.38.86-.67,1.64-1.6-.86.1-.74-.76-.36-1.88.35-1.14,1.11-2.46,1.31-3.4.49.13.74.76-.38,2.68,2.12-1.65-.14-3.66,1.94-5.31-.26.48-.48.7-.36,1.01.13-.66.66-1.63,1.16-2.33.5-.69,1.01-1.07.99-.66l-.28.46c.53-.74,1.16-1.68,1.8-2.71.66-1.01,1.39-2.06,2-3.09,1.29-1.99,2.25-3.78,1.96-4.38.15.08.85,1.33.92,1.66.29-2.53.65-5.14,1.22-7.72.39,1.16,3.74,1.37,2.12,3.95.72-.5,1.52-1.18,2.56-2.69-.53.28-2.16-.09-1.65-.72,2.46-.66,1.55-.64,4.25-1.7-.82.4-1.22-1.49-.1-2.39,0,.34,1.18,1.19.91,1.66.5-1.18,1.02-2.36,1.61-3.5-.5.78.76,1.19,1.65,1.09-.24-.02.35-.47,1.07-1.01.74-.52,1.64-1.08,1.96-1.42l-1.42.53c3.3-2.05,1.84-4.16,5.3-6.19-.25.54.08,2.39,1.89,1.59.18-.58.52-2.01,1.26-3.51.74-1.48,1.8-3.2,3.34-4.21l.83.16c.77-.55,1.53-1.11,2.33-1.61-.58.88-1.67,2.5-2.82,4.07-1.15,1.59-2.28,3.28-3.14,4.3,1.47-.33.63.32,2.53-.71.88.06-.73,1.15-1.28,1.46,1.53-.67,3.04-1.36,4.6-1.92-.31-.41.46-1.03,1.25-1.64.81-.57,1.64-1.12,1.4-1.47-1.6.96-3.11,2.08-4.62,3.12-.32-.4.1-1.36,1.04-2.4.48-.51,1.07-1.08,1.79-1.54.72-.46,1.53-.87,2.41-1.16,1,.03-.02,1.91.18,2.19.16-.23.88-.74,1.65-1.08.76-.35,1.54-.63,1.73-.57l-1.27.99c1-.14,1.66-.71,2.41-1.24.74-.52,1.6-.92,2.88-.8.82-.19,2.7.62,2.7.02-1.56-.8-2.75-4.13-2.01-5.17.16,0,1.35,0,2.62.05,1.27.02,2.64.24,3.17.41,1.53.63-1.69,2.45-.38,3,0-.28.69-.74.98-.9.91.07-.21.89,1.64.44.16-1.04,3.87-.41.77-.96,1.83-.5,2-.1,4.19-.32-.77-.57,1.8-2.4,3.75-2.75-.1.26.34.58.56.73.98,0,1.85.02,2.66.06.81.06,1.55.16,2.28.24.73.08,1.46.16,2.22.24.77.1,1.57.2,2.48.27.32.26,2.03.71,1.24,1.07.53-.12,1.04-.39,2.15-.28,2.02,1.14-2.47-.18-.97,1.07.2-.55,2.94-.49,4.57-.52-.16-.48-1.06-.72-2.13-.74-1.07-.02-2.29.1-3.1.18.06-.62.82-1.17,2.07-1.57.62-.19,1.38-.38,2.22-.46.84-.08,1.77-.1,2.76-.07,3.12.29,1.16,1.06,1.72.99,1.4.38,2.44.51,3.27.52.83.05,1.46-.03,2.07-.1,1.21-.14,2.31-.24,4.48,1,1.57,1.37-.44,1.52-.22,2.2-1.23-.25-2.09-.69-2.86-1.1-.78-.39-1.46-.78-2.28-1l1.9.93c-.84.04-2.49-.22-3.3-.69.34.28,1.08.59,2.08.94.5.16,1.06.34,1.65.53.59.21,1.22.43,1.88.66.65.23,1.33.45,2,.71.66.28,1.32.56,1.97.83,1.29.54,2.47,1.18,3.39,1.78.82.08,2.17.39,1.73-.16l-1.32-.48c-.92-1.12,2.79.29,1.29-.72.97.17,1.99.41,3.07.74.54.17,1.09.38,1.65.64.54.29,1.09.63,1.63,1.04v1.04c.07-.25-1.27-1.35-2.06-1.48,1.18.23,2.97,3.06,4.59,2.75-.42-.51-.83-1.05-1.28-1.53.96.28,2.04.59,3.15.99,1.12.38,2.21.95,3.12,1.78-.39-1.37-.5-.24-1.34-2.1.55,1.89-5.25-3.42-3.93-.96-.44-.97-1.05-1.46-1.73-1.97-.68-.51-1.41-1.05-2.23-2.03-.07.3.47.88-1.29-.19-.12.04-.37.03-.52.03-.05-.04-.07-.05-.11-.08.03.03.05.05.09.08-.1,0-.11,0,.03.03.38.34.66.66.72.88-.61.08-1.62-.28-2.64-.62-1.03-.33-2.04-.69-2.61-.76-1.04-.62.59-.11.12-.67-.56-.07-1.13-.12-1.71-.15.11-.67-2.59-2.21.23-1.51l-2.4-.98c-1.3-.87-3.26-1.68-4.58-1.81-1.14-.48-3.17-.14-2.01-.35l-2.01-.35-2.02-.26v-.17c-1.93-.53-4.02-.57-6.12-.82-2.12-.13-4.27-.46-6.5-1.19-.68.03-1.36.07-2.16.07-.8.03-1.7,0-2.82-.11l-.43-.59c-.87.05-2.17-.04-3.35-.1-1.18-.06-2.25-.09-2.6.26-.49-.35-1.27-.51-2.21-.54-.94-.05-2.04.04-3.16.24-1.12.19-2.28.38-3.34.62-1.06.24-2.02.44-2.79.5l.03.76c-1.04.14-2.03.47-3.07.78-.52.17-1.05.35-1.61.53-.55.21-1.12.45-1.72.7l.33.6c-.99.57-2.4.8-3.95,1.17-.78.17-1.6.34-2.44.54-.83.23-1.66.51-2.48.85.13-.32.99-.59,1.63-.68-1.11.04-2.17.33-3.18.74-1,.45-1.94,1.05-2.87,1.64-.93.57-1.8,1.25-2.69,1.77-.89.53-1.81.94-2.76,1.19-.71.68-1.34.95-2,1.14.08-.05.14-.1.19-.15-.09.04-.21.11-.34.19-.43.11-.86.22-1.31.39.42-.08.81-.18,1.13-.28-.63.38-1.51,1.07-2.34,1.79l-.78-.34c-.07.05-.13.1-.2.15-1.05.36-.54.75.24.88-.4.38-.72.8-.94,1.17-1.36-.42-2.11,1.92-3.75,1.69-.11.46-1.11,1.4-2.04,2.38-.89,1.03-1.71,2.1-1.5,2.76-.14-.1-.43.05,0-.34-1.01.66-1.97,1.39-2.5,2.39l-1-.3c-.36.89-.69,1.79-.99,2.71-1.48.76-2.19,1.03-1.59-.6-.95,1.75-1.38,2.4-1.76,3-.38.6-.74,1.14-1.36,2.71l-.35-.5c-.7.93-1.22,2.86-2.04,3.11-1.21.71-3.14,3.3-5.13,6.46-1.93,3.2-3.92,6.93-5.71,9.82,1.06-.24.55.38-.05,1.18-.58.81-1.28,1.8-.71,2.17-.52.21-1.08,1.01-1.01-.13-.48,1.66-.97,2.86-1.43,3.93-.46,1.07-.71,2.08-.49,3.38-.5.27-.37-.87-.7-.6,0,.29.04,1.15-.29,1.44-.33.28-.19-.58-.21-1.16-.23.86-.33,1.55-.33,2.1.02.56.13.98.29,1.31.33.66.89.94,1.44,1.2-.47.79-.74,1.41-.82,2-.06.6.05,1.17.32,1.86-.49.53-1.06,1.47-.82-.68-.07.3-.21.9-.39,1.63-.19.74-.36,1.62-.47,2.47-.23,1.71-.33,3.3.16,3.4-.27.36-.2,1.68-.11,2.01-.29,2.7-.28,2.95-.28,5.61l.17-.74c1.09,1.06.25,2.2.44,4.34l-.12-.06c-.34,2.47-.12,3-.02,3.51.06.26.12.51.13,1.01,0,.5-.03,1.24-.1,2.47l.67-.35c.79.14.7,1.21.53,2.61-.12,1.39-.27,3.12.27,4.45l.21-1.08c.37.71.11,1.84-.24,3.03-.34,1.19-.8,2.44-.65,3.22-.03.36-.36-.47-.57-.91.24,4.23,1.04.28,2.08,3.16-.31.69-1.45-.33-.91,1.68-.02.55.84,1.87,1.72,3.38.97,1.49,1.86,3.2,2.03,4.67.1-.72.2-1.43,1.05-.26.96,1.9,1.21,5.96,3.26,7.1.05.29,0,.43-.07.49.56.64,1.31,1.76,2.14,2.73.83.97,1.64,1.84,2.19,2.07-.32.67,0,1.47.56,2.34.57.87,1.4,1.8,2.28,2.62,1.69,1.69,3.37,3.08,2.52,3.81.58.63,1.13,1.27,1.73,1.88l1.8,1.81-.26.06c1.06,1.25,1.97,1.91,2.69,2.36.74.44,1.32.65,1.93.82.46.6-.09.4-.22.45,1.65,1.72,2.57,2.68,3.61,3.32,1.03.65,2.06,1.16,4.02,1.82l-.09.83c.56.14,1.78,1.38,3.5,2.73.43.34.88.7,1.35,1.05.49.33,1,.66,1.52.97,1.05.63,2.15,1.2,3.31,1.53-.08.05-.23.13-.61.06,2.53.85,5.15,2.65,7.61,3.94,2.44,1.32,4.68,2.09,6,1.13,1.15.19,2.34.24,3.49.36-4.2-1.41.95-.93-.67-1.85.84.16,1.85.65,2.4,1.06.56.38.64.7-.41.49l-.29-.22c-1.13,1.2,5.22,1.77,4.93,2.62,4.32.84,8.63,1.45,12.91,1.85,4.28.4,8.54.37,12.68,0-.36-.32-.71-.63-1.06-.97.95-.07,1.9-.19,2.85-.28.78.15,1.13.71-.93.93,1.16.48,3.37-.95,3.37-1.22,4.04-.28-1.34,1.52-.13,1.33l1.65-.38-.4-.06c.64-.34.96-.63,1.43-.88.47-.24,1.08-.47,2.29-.73,1.57-.14.93.47,1.55.37.01.08.23.06.93-.18,1.19-.28,2.36-.6,3.55-.9l-1.64-.42c1.43-.83,3.28-.9,1.4-1.36,1.37.36,4.65-.56,7.66-1.8,1.52-.6,2.94-1.33,4.12-1.85,1.16-.56,2.03-1,2.42-1.06.43-.39.87-.75,1.34-1.09.45-.35.92-.69,1.41-1.01.98-.65,2.08-1.22,3.24-1.95-.67.22-1.51-.38.51-1.54.17,1.05,1.22.69,2.47-.02,1.24-.72,2.77-1.65,3.94-1.71-.96.16.33-.94,1.5-1.99,1.16-1.06,2.11-2.15.68-1.78,1.59-1.16.57.49,2.01-.14.78-.9,1.63-1.81,2.57-2.7.48-.43.96-.87,1.46-1.32.49-.45.99-.92,1.49-1.38,1.03-.91,2.04-1.9,3.03-2.95,1.01-1.02,1.93-2.16,2.78-3.36-.15-.23-1.07.29-.6-.92.99-.53,1.91-1.13,2.87-1.72.55-1.04-.57-1.69,1.3-2.97-.34.13-.86.32-.51-.37,3.65-4.42,6.14-9.81,8.14-15.29,2.01-5.51,3.55-11.11,5.66-16.69-.78,1.48-.64.43-.45-.76-.25.75-.63-.12-1.01-.02.53-1.54,1.08-3.1,1.56-4.69-.45-.49-.37-1.78-.29-3.03.09-1.25.07-2.46-.38-2.72l.13,1.53c-.53-1.04-1.15-.34-1.84.53-.72.87-1.49,1.92-2.19,1.72.27.57.26,1.2.12,1.89-.16.68-.48,1.41-.77,2.18-.56,1.55-1.21,3.2-.64,5.12-.42.72-.33-.74-.73-.39.46,1,.31,2.09-.4,3.99l-.09-.26c-.25,1.39-.65,2.54-.98,3.6-.32,1.07-.74,2.02-1.16,2.98-.42.96-.85,1.94-1.42,3.01-.54,1.07-1.11,2.28-1.87,3.65l.83-.14c-.65,1.2-.96,1.37-1.38,1.87.32,1.88,1.62-3.44,2.11-1.67-.51.27-1.02.95-1.52,1.82-.5.87-1.08,1.9-1.61,2.93-.52,1.04-1.15,1.99-1.7,2.75-.56.74-1.1,1.25-1.62,1.29-1.13,1.74,1.02-.09-.11,1.66l-.67.23.19.75c-.81,1.11-1.7,1.33-2.02,1.16.23-.24.46-.82.63-1.12-.72.57-1.4,1.59-1.96,2.53-.56.94-1.08,1.74-1.32,1.93l1.44-1.4c-.79,1.17-1.66,2.39-2.62,3.57-1,1.16-1.99,2.37-3.08,3.48-.53.57-1.06,1.14-1.59,1.71-.55.54-1.08,1.09-1.6,1.64-1.02,1.12-2.06,2.14-2.95,3.22l.53-.02c-.69.82-1.24,1.32-1.7,1.68-.46.36-.84.59-1.23.81-.78.47-1.64.88-3.45,2.33l.09-.16c-.55.83-1.52,1.62-2.61,2.28.77-.96-2.25.55-1.19-.64-1.75,1.47-2.21,1.82-2.42,2.19-.23.35-.22.71-1.29,1.95l-.88-.16c-.7.89-.63,1.23-2.71,2.34,1.54-1.21-1.7-.15-.03-1.59-1.23.23-2.21.59-3.05,1-.85.39-1.56.8-2.2,1.18-1.27.78-2.32,1.29-3.65.81-.81,1.08.24.94,1.38.62,1.14-.29,2.31-.9,1.79-.5.58.04.25.47-.42.95-.68.45-1.7.92-2.46,1.1-.75.24-1.53,0-2.6-.21-.53-.1-1.12-.18-1.82-.16-.69.03-1.48.12-2.43.33.38-.08.38-.2.75-.28-.75-.03-1.41.26-2.12.53-.71.28-1.47.51-2.41.35-.82,1.08-2.28.35-2.38,1.56l3.49-.9c-.97.33-1.87.91-2.96,1.41-1.1.49-2.41.8-4.13.69.24-.27,1.2-.7,1.86-.96-1.02-.23-1.85.5-2.9.21.09-.58,1.16-.76,2.46-.97.65-.1,1.36-.19,2.03-.34.67-.18,1.3-.4,1.79-.72-.55-.16-1.51.25-2.24.46-.73.21-1.21.29-.76-.41-.66.9-1.62.97-2.71,1.01-1.1,0-2.31-.07-3.59.65l.13-.71c-.4.16-1.25.51-2.01.51l1.34-.94c-2.09.82-4.06-.54-6.06-.21,2.1.05,2.34.25,2.27.53-.07.28-.44.63.46.87-5.31.84-2.99-1.79-8.77-1.91.78-.01,2.91.65,1.65.89-1.1-.2-2.53-.66-3.15-1.11-3.83-.34.49.79-1.19,1.01-1.19-.99-1.93.05-3.68.03l.12-.7c-1.07-.3-1.69-.39-2.08-.38-.39.02-.56.17-.72.32-.31.3-.57.59-2.48-.13l1.89-.58c-.69-.08-1.4-.13-2.09-.23l.62-.67c-1.16,0-1.9-.11-2.61-.3-.71-.19-1.39-.47-2.39-.95.33.64-.67,1.14-2.57.52-1.12-.86.93-.35-1.71-1.27.76-.2,1.56-.42,2.49.56.2-.18.73-.22.93-.4-1.21-.88-3.32-1.35-4.26-1.71.35.17.76.37.94.55l-2.05-.28-2.04-.38c-.47-.51.08-.49.62-.48-.77-.28-1.44-.17-2.54-.67.53-.38.72-.93,2.36-.49-1.25-.3-2.46-.71-3.69-1.09-.12-.33-1.4-1.51-.86-1.47-.82-.67-2.07-1.05-3.39-1.52-1.28-.53-2.69-1.07-3.7-2.06-.18,0-.48-.07-1.01-.35-.52-.41-1-.83-1.47-1.26-.46-.45-.91-.9-1.39-1.34-.48-.44-1-.86-1.56-1.26-.55-.42-1.17-.82-1.89-1.18-.21-.65-.44-1.27-.62-1.94-1.92-1.51.85,2.62-2.37.09-2.33-1.77-.17-1.37-.67-2.29-.68-.33-1.64-.77-2.59-1.44-.94-.68-1.81-1.65-2.37-2.92.73.54,1.06,1.16,1.65,1.73ZM39.29,138.33c.17.25.45.62.66.99.23.36.39.73.27,1-1.02-.33-.84-.96-.93-1.99ZM35.78,92.44c.11.49-.15,1.13-.59,1.83.08-.56.23-1.19.59-1.83ZM140.6,32.5s-.05,0-.08.01c-1.26-.72-.82-.45.08-.01ZM143.27,33.81c.31.02.33-.08.25-.22-.26.09-.88-.14-1.56-.46.13.25.44.51,1.32.68ZM133.11,194.26l-.6-.05c1.21-.49.9-.23.6.05Z"/>
        <path class="cls-3" d="M35.58,97.84c-.15.14-.29.16-.43.18.08.25.21.28.43-.18Z"/>
        <path class="cls-3" d="M69.16,176.14l.07.06c.07,0,.11-.03.15-.05h-.22Z"/>
        <path class="cls-3" d="M99.41,35.41c-.57,0-.91-.08-1.14-.17,0,.18.28.28,1.14.17Z"/>
        <path class="cls-3" d="M157.88,39.7c-.56-.3-1.16-.55-1.74-.82.82.43,1.03.72,1.36,1.08.05-.16-.13-.57.38-.25Z"/>
        <path class="cls-3" d="M168.09,52.99c.25.12.41.38.66.5l.17-.29c-.84-.77-1.59-1.12-.84-.21Z"/>
        <path class="cls-3" d="M158.09,42.65c-.21.6.91,1,2.02,1.69-.07-.04-.13-.08-.19-.13.8-.47-.5-1.06-1.83-1.55Z"/>
        <path class="cls-3" d="M160.37,44.49c.34.21.69.43.99.68.32-.18-.36-.34-.99-.68Z"/>
        <path class="cls-3" d="M146.89,34.86c.51.4.67-.54.9-.17.95-.43-4.22-.86-.9.17Z"/>
        <polygon class="cls-3" points="157.88 44.86 157.91 44 156.98 44.11 157.88 44.86"/>
        <path class="cls-3" d="M149.43,39.35l1.73,1.12c.03-.12.3-.07.61.03-1.11-.6-2.28-1.36-2.33-1.14Z"/>
        <path class="cls-3" d="M151.76,40.49c.57.32,1.12.63,1.5.71-.32-.17-.98-.54-1.5-.71Z"/>
        <path class="cls-3" d="M155.43,43.55l-.43-.45-1.22-.76c.55.41,1.12.78,1.64,1.22Z"/>
        <path class="cls-3" d="M128.66,32.15l-2.24-.18c-.26.21.31.47,1.14.52.56-.08,1.39-.03,1.1-.33Z"/>
        <path class="cls-3" d="M134.7,35.67c-.53-.31-.52-.48-.78-.81l-.3.87,1.08-.06Z"/>
        <path class="cls-3" d="M128.47,34.39c-.27.21-3.23.17-.52.59.26-.22,2.44,0,.52-.59Z"/>
        <polygon class="cls-3" points="95.62 33.59 96.17 33.45 95.78 31.99 95.62 33.59"/>
        <path class="cls-3" d="M70.69,47.91c2.3-1.04,0-1.12,2.16-1.94.32-.63-1.77.68-1.42.1-1.09,1.15-1.87,1.39-.74,1.85Z"/>
        <path class="cls-3" d="M71.43,46.06c.18-.18.36-.38.54-.62-.33.32-.46.49-.54.62Z"/>
        <path class="cls-3" d="M197.69,117.45c.16-.58.26-1.17.38-1.75l-.54,1.12c.06.21.1.42.15.63Z"/>
        <path class="cls-3" d="M196.69,114.04l.97-.4-.84-1.06c.03.39.1,1.16-.13,1.46Z"/>
        <path class="cls-3" d="M39.79,133.5l-.26-.05c-.17.3-.09.67.08,1.4l.18-1.35Z"/>
        <polygon class="cls-3" points="47.91 153.43 47.73 153.11 47.37 154.16 47.91 153.43"/>
        <path class="cls-3" d="M60.1,166.77c-.52-.52-1.25-1.01-1.73-1.57,1.19,1.06,1.12,2.48,1.73,1.57Z"/>
      </g>
    </g>
    <g>
      <circle class="cls-3" cx="112.95" cy="249.02" r="81.27"/>
      <g>
        <path class="cls-3" d="M197.81,248.4c-.04.79.58.5.69.62-.17-1.33-.85-.59-.69-.62Z"/>
        <polygon class="cls-3" points="195.34 235.69 195.63 235.87 194.69 234.12 195.34 235.69"/>
        <path class="cls-3" d="M192.62,224.05c-.71,1.39,1.41,4.1,1.47,6.29l-.16.39,1.05.75c-.37-1.25-.83-2.68-1.33-3.99-.5-1.31-.91-2.53-1.03-3.45Z"/>
        <path class="cls-3" d="M192.59,217.21c-.23.53-.85-1.18.44,1.47-.01-.15,0-.2,0-.29-.1-.24-.24-.58-.44-1.17Z"/>
        <path class="cls-3" d="M193.02,218.38c.5,1.19.01-.91,0,0h0Z"/>
        <path class="cls-3" d="M190.48,212.98l1.04,1.4c.08-.42-.5-1.83-.11-1.39-.91-1.52-.97-1.08-.93,0Z"/>
        <path class="cls-3" d="M189.11,211.86c.18.23.36.47.52.72.03-.18-.03-.41-.52-.72Z"/>
        <path class="cls-3" d="M190.69,214.14l-1.06-1.55c-.05.3-.35.46.46.73-.35,0,.08.2.6.83Z"/>
        <path class="cls-3" d="M190.98,215.16c.19.95.49,2.14-.48.73,1.32,2.92,1.88,2.2.48-.73Z"/>
        <path class="cls-3" d="M191.39,223.81c.03.42.07.84.08,1.26l.63.92c-.16-.23-.25-.82-.34-1.33-.1-.51-.22-.93-.36-.85Z"/>
        <path class="cls-3" d="M185.9,203.4c-.25.03-.2.8-.38,1.06.3.3.58.62.86.94-.17-.65-.73-1.74-.49-1.99Z"/>
        <path class="cls-3" d="M185.52,204.46l-1.33-1.36c.86,1.42,1.18,1.58,1.33,1.36Z"/>
        <path class="cls-3" d="M187.92,212.11c.72.76,1.34,1.59,2.01,2.4-.75-.99-1.48-1.98-2.29-2.91l.27.51Z"/>
        <path class="cls-3" d="M181.85,197.43l1.05.56c-.58-.37-1.17-.73-1.77-1.06l.73.5Z"/>
        <path class="cls-3" d="M178.8,193.75c.85.33-.16-1.3.6-.83-.92-.94-1.92-1.56-2.84-2.07.85.66,1.55,1.57,2.24,2.9Z"/>
        <path class="cls-3" d="M175.04,189.97c.44.31.95.58,1.51.88-.46-.34-.95-.65-1.51-.88Z"/>
        <path class="cls-3" d="M182.51,200.4c.03-.2.16-.63-.33-1.57l-.09.97c.13.18.27.39.42.6Z"/>
        <path class="cls-3" d="M182.09,199.83v-.03c-.45-.66-.76-1.12-.89-1.31.11.17.38.57.89,1.34Z"/>
        <path class="cls-3" d="M182.62,200.55c-.04-.06-.07-.1-.1-.15-.01.09,0,.14.1.15Z"/>
        <path class="cls-3" d="M186.16,207.59c-.85-.77-2.29-2.51-1.67-.36.76.45.4-.79,1.67.36Z"/>
        <path class="cls-3" d="M182.49,201.74c.34.56.63,1.15.95,1.72.12-.12.13-.55.57-.2-.51-.51-.99-1.03-1.52-1.52Z"/>
        <polygon class="cls-3" points="181.77 201.07 182.49 201.74 182.12 201.12 181.77 201.07"/>
        <path class="cls-3" d="M176.91,192.88c-.76-.47-1.4-1.15-2.17-1.88.7.89,1.42,1.82,2.14,2.66.25-.01.84.13.03-.78Z"/>
        <path class="cls-3" d="M179.48,196.23s-.1-.09-.15-.13c.03.13.07.21.15.13Z"/>
        <path class="cls-3" d="M167.2,183.88c.02.07.03.13.05.2.03-.02.06-.04.1-.06l-.15-.14Z"/>
        <path class="cls-3" d="M176.92,193.88c.46.72.91,1,1.38,1.24-.46-.44-.94-.92-1.41-1.46-.11,0-.17.03.03.22Z"/>
        <path class="cls-3" d="M172.79,188.09c.23.4.52.83.8,1.29-.15-.46-.57-1.3-.8-1.29Z"/>
        <path class="cls-3" d="M179.29,195.77s.07.05.1.08c-.07-.3-.1-.24-.1-.08Z"/>
        <path class="cls-3" d="M179.29,195.77c-.34-.29-.68-.46-1-.64.36.37.71.71,1.04.98-.03-.11-.04-.24-.04-.33Z"/>
        <path class="cls-3" d="M162.26,185.12c.45-.36,2.54.49,3.51,2.22,1.66.86,2.05-1.35,1.48-3.27-.21.17-.34.31-2.08-.61.37.63,2.79,3.31,1.22,2.66-2.1-1.41-1.47-1.46-2.23-2.48.37,1.2-3.17-1.13-3.39.1.67.3,1.31.67,1.96,1.01-.07.16-.85-.12-.47.37Z"/>
        <path class="cls-3" d="M170.01,186.56l.63.5c-.58-.72-.92-1.31-1.54-2.45-1.21-.67-1.55-.68-1.75-.59.97.89,1.97,1.75,2.92,2.67l-.26-.12Z"/>
        <path class="cls-3" d="M173.24,189.56c-.87-.03-2.46-1.12-2.09.17,1.68,1.59,1.51.78,2.68,1.59-2.72-2.62,1.01.54-.62-1.69.59.46,1.08.93,1.54,1.37-.42-.55-.8-1.09-1.15-1.63.01.04.02.06.03.09h.01s0,.02,0,.02c.06.17.06.25-.04.08-.01,0-.05-.04-.06-.05-.08.04-.18.05-.29.04-.67-.89,0-.24.29-.04.03-.01.07-.01.1-.03v-.02c-.96-.85-2-1.61-2.98-2.41.52.63,1.28,1.28,2.59,2.5Z"/>
        <path class="cls-3" d="M182.3,206.24c-.01-.13.03-.15.06-.18-.19-.16-.29-.21-.06.18Z"/>
        <path class="cls-3" d="M181.81,204.76c.22.18.55.23.97,1,.25.74-.26.16-.42.3.43.35,1.36,1.32.76-.24l-.22-.17c-.61-1.36-1-3.43-.79-3.26-.24.69-.37,1.24-.31,2.38Z"/>
        <path class="cls-3" d="M177.77,197.02c-.71-.76-1.48-1.47-2.23-2.18l.61,1.55.2-.27c1.02,1.43,1.08.9,1.42.91Z"/>
        <path class="cls-3" d="M167.13,183.39l.75-.24c-.66-.17-1.36-.29-2.04-.42l1.29.66Z"/>
        <path class="cls-3" d="M163.83,180.9l.47-.37c-.36-.13-.73-.24-1.1-.36l.63.73Z"/>
        <path class="cls-3" d="M46.05,288.63l.57.65c-.25-.32-.42-.52-.57-.65Z"/>
        <path class="cls-3" d="M43.13,283.17h-.33c.27.18.43.23.33,0Z"/>
        <path class="cls-3" d="M68.26,176.78c-1.43.27-3.2.4-2.7.85l.71.31c.74-.61,1.39-.95,1.99-1.16Z"/>
        <path class="cls-3" d="M33.41,233.06c.08-.11.17-.22.26-.34-.14-.35-.28-.68-.4-.98.05.4.07.84.15,1.32Z"/>
        <path class="cls-3" d="M35.86,234.45l-.7,1.56c.21-.35.44-.85.7-1.56Z"/>
        <path class="cls-3" d="M69.38,312.59c.39.01.78.03,1.18.02-1.27-.86-.9-.22-1.18-.02Z"/>
        <path class="cls-3" d="M125.02,165.11c-1.13-.4-2.05-.62-2.86-.75,1.37.54,2.42,1.23,2.86.75Z"/>
        <path class="cls-3" d="M38.87,289.81c.39.44.62.58.74.5-.39-.45-.66-.68-.74-.5Z"/>
        <path class="cls-3" d="M118.77,164.07c.2.08.4.13.61.2.86-.03,1.74-.09,2.78.08-1.01-.4-2.21-.63-3.39-.28Z"/>
        <path class="cls-3" d="M177.3,292.42c.07-.06.14-.14.21-.19-.06-.07-.13.03-.21.19Z"/>
        <path class="cls-3" d="M196.27,260.22c0,.38-.09,1-.15,1.58.08-.28.14-.75.15-1.58Z"/>
        <path class="cls-3" d="M149.72,172.04c.81.34.16-.01,0,0h0Z"/>
        <path class="cls-3" d="M152.33,176.21c-.2-.02-.36,0-.45.12.14-.1.29-.14.45-.12Z"/>
        <path class="cls-3" d="M110.16,167.92s-.04,0-.07,0c.25.12.21.1.07,0Z"/>
        <path class="cls-3" d="M150.78,172.89c-.26-.22-.57-.45-.92-.68.14.12.42.34.92.68Z"/>
        <path class="cls-3" d="M150.75,172.54c.26.16.46.29.66.41.15-.04.09-.15-.66-.41Z"/>
        <path class="cls-3" d="M148.59,171.56c.46.2.88.42,1.27.65-.14-.11-.19-.17-.14-.17-.24-.1-.57-.24-1.13-.47Z"/>
        <path class="cls-3" d="M123.37,327.64c.06.01.12.02.18.04.78-.37.43-.28-.18-.04Z"/>
        <path class="cls-3" d="M55.58,195.78s.02-.06.04-.09c-.03.02-.07.05-.1.07l.06.02Z"/>
        <path class="cls-3" d="M54.01,198.26c.21-1.45.73-1.95,1.51-2.5-.67-.19-1.36-.37-2.03-.54.16,1.03.33,2.04.52,3.04Z"/>
        <path class="cls-3" d="M54.92,300.47l-.88-1.9c2.3,1.22,3.18,2.71,2.57.78-.82.55-2.19-.84-3.42-2.33-.62-.75-1.24-1.49-1.82-1.99-.55-.52-1.06-.79-1.51-.56l-.43-1.33c.2.32.34.3.54.62-.71-2.64-2.3-.75-3.9-3.75-.49-1.08-.62-1.95-.02-1.38l-1.73-2.01c-.34-.68.06-.68.4-.01-.7-1.13-1.31-2.3-1.98-3.45h.07c-.55-.36-1.5-1.35-1.96-1.84-.16-1.05.41.38.53.04-.45-.61-.92-1.21-1.35-1.84.07-.52.4-.4.76.03.39.42.83,1.14,1.11,1.84.49-1.35.19-1.7-.33-2.29-.48-.6-1.2-1.46-1.43-3.73.31.62.66,1.22.98,1.83.55-1.63-.34-2.99-.4-5.38-.19.6-.21,4.96-1.44,2.88-.07-.69-.3-1.54-1.08-2.65.68-.22.17-1.37-.3-2.87l.94-.14c-.73-1.54-1.1-1.31-1.76-2.18-.34-1.87.29-2.4.83-2.95-.38-2.98-.79,2.27-1.59-1.21-.02-.64-.08-1.22-.18-1.77-.07-.56-.17-1.1-.3-1.66-.26-1.11-.68-2.27-1.05-3.76.19-1.79.6.26.82-.39l-.87-1.51c-.01-.39.23-.27.35-.22-.36-1.31-.96-.06-1.27-2.15-.52-.27-.2-1.37.18-2.7.41-1.33.75-2.89.26-4.21.32-.62.55.34.94.17-.5-3.58-.37-3.05-1.02-6.09.31-.8.61-1.6.98-2.38-1.03,1.7-1.44-.74-1.75-2.96-.45.59-.85,1.1-1.06,1.46.03-1.15.06-2.3.17-3.44.24-.37.48.04.74.66-.02-.24-.05-.47-.08-.65.61-1.1,1-.36,1.33.58-.28.35-.57.71-.84,1.05.42.93.91,1.8,1.48,1.73-.07-.23-.09-.65-.06-1.11.12.24.23.4.34.32.12-.09-.04-.47-.15-1.04l1.2-.5-.37-.27c.53-1.34,1.05-2.67,1.68-3.96-.05-.8-.13-1.59-.21-2.41-.05-.81-.09-1.64-.09-2.53-.01-.89.03-1.83.2-2.84.17-1.01.37-2.12.79-3.3.2,1.43,1.05.74,1.87,1.16-.72.41-.95,1.35-1.17,2.44-.24,1.08-.36,2.35-.85,3.51.52-1.21.84-.79.87-.43.16-1.51.49-2.98.75-4.5.65.38.86-.67,1.64-1.6-.86.1-.74-.76-.36-1.88.35-1.14,1.11-2.46,1.31-3.4.49.13.74.76-.38,2.68,2.12-1.65-.14-3.66,1.94-5.31-.26.48-.48.7-.36,1.01.13-.66.66-1.63,1.16-2.33.5-.69,1.01-1.07.99-.66l-.28.46c.53-.74,1.16-1.68,1.8-2.71.66-1.01,1.39-2.06,2-3.09,1.29-1.99,2.25-3.78,1.96-4.38.15.08.85,1.33.92,1.66.29-2.53.65-5.14,1.22-7.72.39,1.16,3.74,1.37,2.12,3.95.72-.5,1.52-1.18,2.56-2.69-.53.28-2.16-.09-1.65-.72,2.46-.66,1.55-.64,4.25-1.7-.82.4-1.22-1.49-.1-2.39,0,.34,1.18,1.19.91,1.66.5-1.18,1.02-2.36,1.61-3.5-.5.78.76,1.19,1.65,1.09-.24-.02.35-.47,1.07-1.01.74-.52,1.64-1.08,1.96-1.42l-1.42.53c3.3-2.05,1.84-4.16,5.3-6.19-.25.54.08,2.39,1.89,1.59.18-.58.52-2.01,1.26-3.51.74-1.48,1.8-3.2,3.34-4.21l.83.16c.77-.55,1.53-1.11,2.33-1.61-.58.88-1.67,2.5-2.82,4.07-1.15,1.59-2.28,3.28-3.14,4.3,1.47-.33.63.32,2.53-.71.88.06-.73,1.15-1.28,1.46,1.53-.67,3.04-1.36,4.6-1.92-.31-.41.46-1.03,1.25-1.64.81-.57,1.64-1.12,1.4-1.47-1.6.96-3.11,2.08-4.62,3.12-.32-.4.1-1.36,1.04-2.4.48-.51,1.07-1.08,1.79-1.54.72-.46,1.53-.87,2.41-1.16,1,.03-.02,1.91.18,2.19.16-.23.88-.74,1.65-1.08.76-.35,1.54-.63,1.73-.57l-1.27.99c1-.14,1.66-.71,2.41-1.24.74-.52,1.6-.92,2.88-.8.82-.19,2.7.62,2.7.02-1.56-.8-2.75-4.13-2.01-5.17.16,0,1.35,0,2.62.05,1.27.02,2.64.24,3.17.41,1.53.63-1.69,2.45-.38,3,0-.28.69-.74.98-.9.91.07-.21.89,1.64.44.16-1.04,3.87-.41.77-.96,1.83-.5,2-.1,4.19-.32-.77-.57,1.8-2.4,3.75-2.75-.1.26.34.58.56.73.98,0,1.85.02,2.66.06.81.06,1.55.16,2.28.24.73.08,1.46.16,2.22.24.77.1,1.57.2,2.48.27.32.26,2.03.71,1.24,1.07.53-.12,1.04-.39,2.15-.28,2.02,1.14-2.47-.18-.97,1.07.2-.55,2.94-.49,4.57-.52-.16-.48-1.06-.72-2.13-.74-1.07-.02-2.29.1-3.1.18.06-.62.82-1.17,2.07-1.57.62-.19,1.38-.38,2.22-.46.84-.08,1.77-.1,2.76-.07,3.12.29,1.16,1.06,1.72.99,1.4.38,2.44.51,3.27.52.83.05,1.46-.03,2.07-.1,1.21-.14,2.31-.24,4.48,1,1.57,1.37-.44,1.52-.22,2.2-1.23-.25-2.09-.69-2.86-1.1-.78-.39-1.46-.78-2.28-1l1.9.93c-.84.04-2.49-.22-3.3-.69.34.28,1.08.59,2.08.94.5.16,1.06.34,1.65.53.59.21,1.22.43,1.88.66.65.23,1.33.45,2,.71.66.28,1.32.56,1.97.83,1.29.54,2.47,1.18,3.39,1.78.82.08,2.17.39,1.73-.16l-1.32-.48c-.92-1.12,2.79.29,1.29-.72.97.17,1.99.41,3.07.74.54.17,1.09.38,1.65.64.54.29,1.09.63,1.63,1.04v1.04c.07-.25-1.27-1.35-2.06-1.48,1.18.23,2.97,3.06,4.59,2.75-.42-.51-.83-1.05-1.28-1.53.96.28,2.04.59,3.15.99,1.12.38,2.21.95,3.12,1.78-.39-1.37-.5-.24-1.34-2.1.55,1.89-5.25-3.42-3.93-.96-.44-.97-1.05-1.46-1.73-1.97-.68-.51-1.41-1.05-2.23-2.03-.07.3.47.88-1.29-.19-.12.04-.37.03-.52.03-.05-.04-.07-.05-.11-.08.03.03.05.05.09.08-.1,0-.11,0,.03.03.38.34.66.66.72.88-.61.08-1.62-.28-2.64-.62-1.03-.33-2.04-.69-2.61-.76-1.04-.62.59-.11.12-.67-.56-.07-1.13-.12-1.71-.15.11-.67-2.59-2.21.23-1.51l-2.4-.98c-1.3-.87-3.26-1.68-4.58-1.81-1.14-.48-3.17-.14-2.01-.35l-2.01-.35-2.02-.26v-.17c-1.93-.53-4.02-.57-6.12-.82-2.12-.13-4.27-.46-6.5-1.19-.68.03-1.36.07-2.16.07-.8.03-1.7,0-2.82-.11l-.43-.59c-.87.05-2.17-.04-3.35-.1-1.18-.06-2.25-.09-2.6.26-.49-.35-1.27-.51-2.21-.54-.94-.05-2.04.04-3.16.24-1.12.19-2.28.38-3.34.62-1.06.24-2.02.44-2.79.5l.03.76c-1.04.14-2.03.47-3.07.78-.52.17-1.05.35-1.61.53-.55.21-1.12.45-1.72.7l.33.6c-.99.57-2.4.8-3.95,1.17-.78.17-1.6.34-2.44.54-.83.23-1.66.51-2.48.85.13-.32.99-.59,1.63-.68-1.11.04-2.17.33-3.18.74-1,.45-1.94,1.05-2.87,1.64-.93.57-1.8,1.25-2.69,1.77-.89.53-1.81.94-2.76,1.19-.71.68-1.34.95-2,1.14.08-.05.14-.1.19-.15-.09.04-.21.11-.34.19-.43.11-.86.22-1.31.39.42-.08.81-.18,1.13-.28-.63.38-1.51,1.07-2.34,1.79l-.78-.34c-.07.05-.13.1-.2.15-1.05.36-.54.75.24.88-.4.38-.72.8-.94,1.17-1.36-.42-2.11,1.92-3.75,1.69-.11.46-1.11,1.4-2.04,2.38-.89,1.03-1.71,2.1-1.5,2.76-.14-.1-.43.05,0-.34-1.01.66-1.97,1.39-2.5,2.39l-1-.3c-.36.89-.69,1.79-.99,2.71-1.48.76-2.19,1.03-1.59-.6-.95,1.75-1.38,2.4-1.76,3-.38.6-.74,1.14-1.36,2.71l-.35-.5c-.7.93-1.22,2.86-2.04,3.11-1.21.71-3.14,3.3-5.13,6.46-1.93,3.2-3.92,6.93-5.71,9.82,1.06-.24.55.38-.05,1.18-.58.81-1.28,1.8-.71,2.17-.52.21-1.08,1.01-1.01-.13-.48,1.66-.97,2.86-1.43,3.93-.46,1.07-.71,2.08-.49,3.38-.5.27-.37-.87-.7-.6,0,.29.04,1.15-.29,1.44-.33.28-.19-.58-.21-1.16-.23.86-.33,1.55-.33,2.1.02.56.13.98.29,1.31.33.66.89.94,1.44,1.2-.47.79-.74,1.41-.82,2-.06.6.05,1.17.32,1.86-.49.53-1.06,1.47-.82-.68-.07.3-.21.9-.39,1.63-.19.74-.36,1.62-.47,2.47-.23,1.71-.33,3.3.16,3.4-.27.36-.2,1.68-.11,2.01-.29,2.7-.28,2.95-.28,5.61l.17-.74c1.09,1.06.25,2.2.44,4.34l-.12-.06c-.34,2.47-.12,3-.02,3.51.06.26.12.51.13,1.01,0,.5-.03,1.24-.1,2.47l.67-.35c.79.14.7,1.21.53,2.61-.12,1.39-.27,3.12.27,4.45l.21-1.08c.37.71.11,1.84-.24,3.03-.34,1.19-.8,2.44-.65,3.22-.03.36-.36-.47-.57-.91.24,4.23,1.04.28,2.08,3.16-.31.69-1.45-.33-.91,1.68-.02.55.84,1.87,1.72,3.38.97,1.49,1.86,3.2,2.03,4.67.1-.72.2-1.43,1.05-.26.96,1.9,1.21,5.96,3.26,7.1.05.29,0,.43-.07.49.56.64,1.31,1.76,2.14,2.73.83.97,1.64,1.84,2.19,2.07-.32.67,0,1.47.56,2.34.57.87,1.4,1.8,2.28,2.62,1.69,1.69,3.37,3.08,2.52,3.81.58.63,1.13,1.27,1.73,1.88l1.8,1.81-.26.06c1.06,1.25,1.97,1.91,2.69,2.36.74.44,1.32.65,1.93.82.46.6-.09.4-.22.45,1.65,1.72,2.57,2.68,3.61,3.32,1.03.65,2.06,1.16,4.02,1.82l-.09.83c.56.14,1.78,1.38,3.5,2.73.43.34.88.7,1.35,1.05.49.33,1,.66,1.52.97,1.05.63,2.15,1.2,3.31,1.53-.08.05-.23.13-.61.06,2.53.85,5.15,2.65,7.61,3.94,2.44,1.32,4.68,2.09,6,1.13,1.15.19,2.34.24,3.49.36-4.2-1.41.95-.93-.67-1.85.84.16,1.85.65,2.4,1.06.56.38.64.7-.41.49l-.29-.22c-1.13,1.2,5.22,1.77,4.93,2.62,4.32.84,8.63,1.45,12.91,1.85,4.28.4,8.54.37,12.68,0-.36-.32-.71-.63-1.06-.97.95-.07,1.9-.19,2.85-.28.78.15,1.13.71-.93.93,1.16.48,3.37-.95,3.37-1.22,4.04-.28-1.34,1.52-.13,1.33l1.65-.38-.4-.06c.64-.34.96-.63,1.43-.88.47-.24,1.08-.47,2.29-.73,1.57-.14.93.47,1.55.37.01.08.23.06.93-.18,1.19-.28,2.36-.6,3.55-.9l-1.64-.42c1.43-.83,3.28-.9,1.4-1.36,1.37.36,4.65-.56,7.66-1.8,1.52-.6,2.94-1.33,4.12-1.85,1.16-.56,2.03-1,2.42-1.06.43-.39.87-.75,1.34-1.09.45-.35.92-.69,1.41-1.01.98-.65,2.08-1.22,3.24-1.95-.67.22-1.51-.38.51-1.54.17,1.05,1.22.69,2.47-.02,1.24-.72,2.77-1.65,3.94-1.71-.96.16.33-.94,1.5-1.99,1.16-1.06,2.11-2.15.68-1.78,1.59-1.16.57.49,2.01-.14.78-.9,1.63-1.81,2.57-2.7.48-.43.96-.87,1.46-1.32.49-.45.99-.92,1.49-1.38,1.03-.91,2.04-1.9,3.03-2.95,1.01-1.02,1.93-2.16,2.78-3.36-.15-.23-1.07.29-.6-.92.99-.53,1.91-1.13,2.87-1.72.55-1.04-.57-1.69,1.3-2.97-.34.13-.86.32-.51-.37,3.65-4.42,6.14-9.81,8.14-15.29,2.01-5.51,3.55-11.11,5.66-16.69-.78,1.48-.64.43-.45-.76-.25.75-.63-.12-1.01-.02.53-1.54,1.08-3.1,1.56-4.69-.45-.49-.37-1.78-.29-3.03.09-1.25.07-2.46-.38-2.72l.13,1.53c-.53-1.04-1.15-.34-1.84.53-.72.87-1.49,1.92-2.19,1.72.27.57.26,1.2.12,1.89-.16.68-.48,1.41-.77,2.18-.56,1.55-1.21,3.2-.64,5.12-.42.72-.33-.74-.73-.39.46,1,.31,2.09-.4,3.99l-.09-.26c-.25,1.39-.65,2.54-.98,3.6-.32,1.07-.74,2.02-1.16,2.98-.42.96-.85,1.94-1.42,3.01-.54,1.07-1.11,2.28-1.87,3.65l.83-.14c-.65,1.2-.96,1.37-1.38,1.87.32,1.88,1.62-3.44,2.11-1.67-.51.27-1.02.95-1.52,1.82-.5.87-1.08,1.9-1.61,2.93-.52,1.04-1.15,1.99-1.7,2.75-.56.74-1.1,1.25-1.62,1.29-1.13,1.74,1.02-.09-.11,1.66l-.67.23.19.75c-.81,1.11-1.7,1.33-2.02,1.16.23-.24.46-.82.63-1.12-.72.57-1.4,1.59-1.96,2.53-.56.94-1.08,1.74-1.32,1.93l1.44-1.4c-.79,1.17-1.66,2.39-2.62,3.57-1,1.16-1.99,2.37-3.08,3.48-.53.57-1.06,1.14-1.59,1.71-.55.54-1.08,1.09-1.6,1.64-1.02,1.12-2.06,2.14-2.95,3.22l.53-.02c-.69.82-1.24,1.32-1.7,1.68-.46.36-.84.59-1.23.81-.78.47-1.64.88-3.45,2.33l.09-.16c-.55.83-1.52,1.62-2.61,2.28.77-.96-2.25.55-1.19-.64-1.75,1.47-2.21,1.82-2.42,2.19-.23.35-.22.71-1.29,1.95l-.88-.16c-.7.89-.63,1.23-2.71,2.34,1.54-1.21-1.7-.15-.03-1.59-1.23.23-2.21.59-3.05,1-.85.39-1.56.8-2.2,1.18-1.27.78-2.32,1.29-3.65.81-.81,1.08.24.94,1.38.62,1.14-.29,2.31-.9,1.79-.5.58.04.25.47-.42.95-.68.45-1.7.92-2.46,1.1-.75.24-1.53,0-2.6-.21-.53-.1-1.12-.18-1.82-.16-.69.03-1.48.12-2.43.33.38-.08.38-.2.75-.28-.75-.03-1.41.26-2.12.53-.71.28-1.47.51-2.41.35-.82,1.08-2.28.35-2.38,1.56l3.49-.9c-.97.33-1.87.91-2.96,1.41-1.1.49-2.41.8-4.13.69.24-.27,1.2-.7,1.86-.96-1.02-.23-1.85.5-2.9.21.09-.58,1.16-.76,2.46-.97.65-.1,1.36-.19,2.03-.34.67-.18,1.3-.4,1.79-.72-.55-.16-1.51.25-2.24.46-.73.21-1.21.29-.76-.41-.66.9-1.62.97-2.71,1.01-1.1,0-2.31-.07-3.59.65l.13-.71c-.4.16-1.25.51-2.01.51l1.34-.94c-2.09.82-4.06-.54-6.06-.21,2.1.05,2.34.25,2.27.53-.07.28-.44.63.46.87-5.31.84-2.99-1.79-8.77-1.91.78-.01,2.91.65,1.65.89-1.1-.2-2.53-.66-3.15-1.11-3.83-.34.49.79-1.19,1.01-1.19-.99-1.93.05-3.68.03l.12-.7c-1.07-.3-1.69-.39-2.08-.38-.39.02-.56.17-.72.32-.31.3-.57.59-2.48-.13l1.89-.58c-.69-.08-1.4-.13-2.09-.23l.62-.67c-1.16,0-1.9-.11-2.61-.3-.71-.19-1.39-.47-2.39-.95.33.64-.67,1.14-2.57.52-1.12-.86.93-.35-1.71-1.27.76-.2,1.56-.42,2.49.56.2-.18.73-.22.93-.4-1.21-.88-3.32-1.35-4.26-1.71.35.17.76.37.94.55l-2.05-.28-2.04-.38c-.47-.51.08-.49.62-.48-.77-.28-1.44-.17-2.54-.67.53-.38.72-.93,2.36-.49-1.25-.3-2.46-.71-3.69-1.09-.12-.33-1.4-1.51-.86-1.47-.82-.67-2.07-1.05-3.39-1.52-1.28-.53-2.69-1.07-3.7-2.06-.18,0-.48-.07-1.01-.35-.52-.41-1-.83-1.47-1.26-.46-.45-.91-.9-1.39-1.34-.48-.44-1-.86-1.56-1.26-.55-.42-1.17-.82-1.89-1.18-.21-.65-.44-1.27-.62-1.94-1.92-1.51.85,2.62-2.37.09-2.33-1.77-.17-1.37-.67-2.29-.68-.33-1.64-.77-2.59-1.44-.94-.68-1.81-1.65-2.37-2.92.73.54,1.06,1.16,1.65,1.73ZM39.29,274.77c.17.25.45.62.66.99.23.36.39.73.27,1-1.02-.33-.84-.96-.93-1.99ZM35.78,228.87c.11.49-.15,1.13-.59,1.83.08-.56.23-1.19.59-1.83ZM140.6,168.94s-.05,0-.08.01c-1.26-.72-.82-.45.08-.01ZM143.27,170.24c.31.02.33-.08.25-.22-.26.09-.88-.14-1.56-.46.13.25.44.51,1.32.68ZM133.11,330.7l-.6-.05c1.21-.49.9-.23.6.05Z"/>
        <path class="cls-3" d="M35.58,234.28c-.15.14-.29.16-.43.18.08.25.21.28.43-.18Z"/>
        <path class="cls-3" d="M69.16,312.58l.07.06c.07,0,.11-.03.15-.05h-.22Z"/>
        <path class="cls-3" d="M99.41,171.85c-.57,0-.91-.08-1.14-.17,0,.18.28.28,1.14.17Z"/>
        <path class="cls-3" d="M157.88,176.14c-.56-.3-1.16-.55-1.74-.82.82.43,1.03.72,1.36,1.08.05-.16-.13-.57.38-.25Z"/>
        <path class="cls-3" d="M168.09,189.43c.25.12.41.38.66.5l.17-.29c-.84-.77-1.59-1.12-.84-.21Z"/>
        <path class="cls-3" d="M158.09,179.08c-.21.6.91,1,2.02,1.69-.07-.04-.13-.08-.19-.13.8-.47-.5-1.06-1.83-1.55Z"/>
        <path class="cls-3" d="M160.37,180.93c.34.21.69.43.99.68.32-.18-.36-.34-.99-.68Z"/>
        <path class="cls-3" d="M146.89,171.3c.51.4.67-.54.9-.17.95-.43-4.22-.86-.9.17Z"/>
        <polygon class="cls-3" points="157.88 181.3 157.91 180.44 156.98 180.55 157.88 181.3"/>
        <path class="cls-3" d="M149.43,175.79l1.73,1.12c.03-.12.3-.07.61.03-1.11-.6-2.28-1.36-2.33-1.14Z"/>
        <path class="cls-3" d="M151.76,176.93c.57.32,1.12.63,1.5.71-.32-.17-.98-.54-1.5-.71Z"/>
        <path class="cls-3" d="M155.43,179.99l-.43-.45-1.22-.76c.55.41,1.12.78,1.64,1.22Z"/>
        <path class="cls-3" d="M128.66,168.58l-2.24-.18c-.26.21.31.47,1.14.52.56-.08,1.39-.03,1.1-.33Z"/>
        <path class="cls-3" d="M134.7,172.11c-.53-.31-.52-.48-.78-.81l-.3.87,1.08-.06Z"/>
        <path class="cls-3" d="M128.47,170.83c-.27.21-3.23.17-.52.59.26-.22,2.44,0,.52-.59Z"/>
        <polygon class="cls-3" points="95.62 170.02 96.17 169.89 95.78 168.43 95.62 170.02"/>
        <path class="cls-3" d="M70.69,184.34c2.3-1.04,0-1.12,2.16-1.94.32-.63-1.77.68-1.42.1-1.09,1.15-1.87,1.39-.74,1.85Z"/>
        <path class="cls-3" d="M71.43,182.5c.18-.18.36-.38.54-.62-.33.32-.46.49-.54.62Z"/>
        <path class="cls-3" d="M197.69,253.89c.16-.58.26-1.17.38-1.75l-.54,1.12c.06.21.1.42.15.63Z"/>
        <path class="cls-3" d="M196.69,250.48l.97-.4-.84-1.06c.03.39.1,1.16-.13,1.46Z"/>
        <path class="cls-3" d="M39.79,269.94l-.26-.05c-.17.3-.09.67.08,1.4l.18-1.35Z"/>
        <polygon class="cls-3" points="47.91 289.87 47.73 289.54 47.37 290.6 47.91 289.87"/>
        <path class="cls-3" d="M60.1,303.21c-.52-.52-1.25-1.01-1.73-1.57,1.19,1.06,1.12,2.48,1.73,1.57Z"/>
      </g>
    </g>
    <g>
      <path class="cls-1" d="M126.74,143.33c-.93,0-1.86-.27-2.66-.67-.67-.27-1.2-.53-1.73-.93-.67-.27-1.33-.53-2-.8-.53-.27-.53-.53,0-.8.67-.13.67-.4,0-.67-4.39-2-9.05-3.73-13.71-5.46-1.46-.53-2.79-1.06-4.13-1.46-1.46-.4-2.79-.93-4.12-1.33-2-.67-3.33-1.6-3.73-2.93-.53-1.33-.13-2.93,1.06-4.66l.4-.4c1.86-2.53,2-3.86.53-3.86-.67,0-1.6.27-2.93.8-6.25,2.53-12.77,4.92-19.83,6.92h-.27l-.13.13-2.13.93q-.13,0-.13.13h-.27c-2.93.93-5.72,1.73-8.38,2.4l-6.52,1.6c-1.46.27-2.4-.27-3.06-1.73-.13-.4-.27-.67-.4-1.06-.13-.27-.4-.67-.53-1.06l-2.4-4.79c-.4-.8-.93-1.6-1.33-2.4-.53-.8-1.06-1.6-1.46-2.26-.13-.13-.27-.4-.27-.53l-.8-.93c0-.13-.13-.4-.27-.53-.8-1.2-.53-2,.93-2.26,7.05-1.46,13.84-3.19,20.63-5.19s13.44-4.52,19.96-7.32c2-.93,2.93-2.13,3.06-3.46.13-1.33-.67-2.66-2.26-4.12-.67-.67-1.33-1.2-2-1.86-.67-.53-1.33-1.06-2-1.73-.93-.93-.8-1.6.4-2.13h.27c1.06-.4,1.2-1.06.4-1.86-.8-.8-1.6-.8-2.26-.13l-3.19,2.79-3.99,3.19c-.53.4-.93.53-1.06.67l-2.93,1.33c-.13,0-.27,0-.4.13-.13.13-.27.13-.4.27l-3.99,2.93-3.33,2.13c-.67.67-1.33.53-2-.27-.67-.67-.53-1.07.27-1.46l.53-.27c1.2-.4,1.33-1.06.4-2l-1.86-1.86-8.78-7.72c-.4-.4-.67-.8-.67-1.2s.27-.67.8-.93c6.52-3.46,12.64-7.72,18.63-12.78,5.86-5.06,11.04-10.51,15.7-16.23.53-.67.4-.8-.4-.53-.4.13-.53.27-.53.13-.13-.13,0-.27.13-.53,1.46-1.86,2.93-3.99,4.39-6.25,1.46-2.26,3.33-3.06,5.86-2.13l4.66,1.73c.8.27,1.46.27,2.13-.13.67-.27,1.33-.27,2,0l5.99,2c.8.27,1.33.67,1.6,1.2.13.67,0,1.33-.4,2-.93,1.6-.53,2.4,1.33,2.4h27.41l.8-.13h.27l1.06-.4c.4-.13.93-.27,1.6-.13.53.13,1.06.4,1.46.53l5.85,3.46c1.2.53,1.2,1.06,0,1.73-1.2.53-1.33,1.06-.13,1.73l.67.27c.67.4,1.2.93,1.46,1.6.13.67,0,1.46-.4,2.13-2.53,5.46-5.72,10.78-9.45,15.7-3.73,4.92-7.85,9.45-12.38,13.57-1.6,1.6-1.33,2.79.67,3.73l1.2.67c1.33.4,2.66.4,3.86,0l.13-.13c1.2-.53,2.53-.53,3.73-.13,5.59,2,11.18,3.73,16.77,5.19,5.46,1.46,11.18,2.79,17.03,3.86,1.73.4,2.13,1.33.93,2.79-.67.67-1.33,1.46-1.86,2.26-1.2,1.6-2.4,3.19-3.46,4.66-.27.53-.67.93-1.33,1.06-.67.27-1.06.67-1.46,1.2l-3.06,5.19c-.67,1.2-1.6,1.73-2.93,1.46l-6.65-1.6c-.67,0-.67-.13,0-.53.13-.13.27-.13.27-.27s-.13-.13-.4-.13c-14.24-3.73-27.28-8.78-38.99-15.17-.4-.13-.67-.27-.8-.13l-.8.4c-.93.67-2,1.2-2.93,1.73s-2,1.06-3.19,1.73c-2.79,1.6-2.66,2.79.4,3.59.8.13,1.6.4,2.4.67.8.27,1.6.53,2.53.67,4.12,1.33,8.25,2.79,12.38,4.26,3.99,1.6,7.98,3.33,11.98,5.06.67.4,1.2.8,1.33,1.46.13.67,0,1.2-.4,1.86l-.93,1.46c-.27.4-.8.8-1.46,1.2-.67.4-1.06.8-1.46,1.2l-4.26,6.39c-.93,1.46-2.13,2.13-3.86,2.13ZM142.31,170.61l-2.79-.93-4.26-1.2c-.4-.13-.93-.27-1.6-.13-.67,0-1.2.13-1.6.27h-.13c-.93.4-2,.53-3.06.27-16.37-4.52-32.87-8.12-49.64-10.65-.4-.13-.4-.27,0-.53.4-.13.4-.27-.13-.4l-4.52-.67c-1.6-.27-2.66-.93-3.06-1.86-.4-.93-.27-2,.67-3.46l6.65-9.85c1.06-1.6,2.53-2.26,4.52-2,9.31,1.2,18.63,2.66,27.94,4.39.53.13.53.27.13.4-.4.27-.4.4,0,.53,6.39,1.2,12.64,2.53,18.9,3.99s12.51,2.93,18.76,4.66c1.2.4,1.86.93,2.26,1.73.27.8.13,1.73-.53,2.66l-1.2,1.86c-.4.93-.13,1.2.8.8.93-.4,1.06-.13.67.8l-4.66,7.72c-.93,1.73-2.4,2.26-4.12,1.6ZM109.97,87.3c.93,0,2.13-.4,3.33-1.33,1.2-.93,2.53-1.86,3.73-3.06,1.2-1.2,2.4-2.4,3.46-3.59s1.86-2.13,2.4-2.79c1.33-1.6.93-2.4-1.06-2.4h-1.2c-1.2,0-1.2-.27-.13-.8,1.2-.4,1.06-.67-.13-.67l-17.83.13c-1.73,0-2.66.4-3.06,1.2s.13,1.73,1.33,2.93c.4.4.93.8,1.33,1.2.4.4.93.8,1.33,1.2,1.06.8,1.06,1.46-.13,2-1.2.53-1.33,1.2-.27,2,.67.67,1.46,1.2,2.26,1.73.8.53,1.6,1.06,2.4,1.6.67.4,1.46.67,2.26.67ZM111.04,111.12l.27-.13v-.13l-.27.27Z"/>
      <path class="cls-1" d="M122.62,305.7h-7.05c-1.46,0-2.66-.4-3.46-1.2-.93-.93-1.33-2.13-1.33-3.59v-20.63c0-1.73.8-2.93,2.4-3.59,1.6-.67,2.4-1.86,2.4-3.59v-28.48c0-1.2-.53-1.6-1.73-1.2-1.2.53-1.73.13-1.73-1.06v-3.33c0-.93-.4-1.06-1.06-.4l-.93,1.33-1.06,1.06c-.67.8-1.33.8-1.73-.13l-1.06-2.53-1.33-2.4c-.93-1.73-1.33-1.73-1.33.27v9.58c0,1.2.53,1.6,1.73,1.06,1.2-.4,1.73,0,1.73,1.2v11.84c0,1.46-.4,2.66-1.2,3.46-.93.93-2.13,1.33-3.59,1.33h-9.45c-1.46,0-2.13.67-2.13,2.13s.67,2.13,2.13,2.13h12.51c1.46,0,2.53.4,3.46,1.2.8.93,1.2,2,1.2,3.46v2.13c0,1.73-.67,2.93-2.13,3.59l-.53.27c-1.46.67-2.13,1.86-2.13,3.59v.4c0,2.13-1.06,3.19-3.06,3.19h-10.91c-.67,0-1.33.13-1.86.4l-1.2.53c-1.46.67-2.26,1.73-2.26,3.33v9.71c0,1.46-.4,2.66-1.2,3.59-.93.8-2.13,1.2-3.59,1.2h-8.65c-1.46,0-2.66-.4-3.46-1.2-.93-.93-1.33-2-1.33-3.46v-2.13c0-1.73.8-2.93,2.4-3.59,1.6-.67,2.4-2,2.4-3.73v-2c0-1.46-.4-2.53-1.2-3.46-.93-.8-2-1.2-3.46-1.2h-10.65c-1.46,0-2.66-.4-3.46-1.33-.93-.8-1.33-2-1.33-3.46v-9.58c0-.53.27-.93.8-1.2.53-.13,1.06-.27,1.46-.27h15.7c1.46,0,2.13-.67,2.13-2.13s-.67-2.13-2.13-2.13h-4.92c-.8,0-1.46.13-2,.4l-1.46.67c-.53.27-1.2.4-2,.4h-3.06c-2.79,0-4.13-1.33-4.13-4.13v-23.29c0-1.73.8-3.06,2.53-3.73,1.6-.67,2.4-2,2.4-3.73v-2c0-1.46.4-2.53,1.33-3.46.8-.8,1.86-1.2,3.33-1.2h9.71c1.6,0,2.4-.8,2.4-2.4s-.8-2.4-2.4-2.4h-5.06c-1.46,0-2.66-.4-3.46-1.33-.93-.8-1.33-2-1.33-3.46v-8.65c0-1.2-.4-2.26-1.06-2.93-.67-.67-1.73-1.07-2.93-1.07h-3.19c-.67,0-1.33.13-1.86.4l-3.19,1.33c-.67.27-1.2.4-1.73.4-1.6,0-2.4-1.06-2.4-3.06l-.13-6.92c0-1.2.4-2.26,1.2-3.06.8-.67,1.86-1.07,3.06-1.07s2.26-.4,3.06-1.2c.67-.8,1.06-1.86,1.06-3.06v-1.33c0-1.46.4-2.66,1.33-3.59.8-.8,2-1.2,3.46-1.2h6.25c1.46,0,2.66.4,3.59,1.2.8.93,1.2,2.13,1.2,3.59v.8c0,1.46.4,2.66,1.33,3.46.8.93,2,1.33,3.46,1.33h.27c1.46,0,2.66-.4,3.59-1.33.8-.8,1.2-2,1.2-3.46v-.8c0-1.46.4-2.66,1.33-3.59.8-.8,2-1.2,3.46-1.2h9.85c1.33,0,2,.67,2,2s.67,1.73,1.86,1.33l3.33-1.46c.93-.4,1.6-.53,2.13-.13s.8,1.06.8,2,.27,1.73.93,2.26c.53.67,1.33.93,2.26.93h.93c1.2,0,2.26.4,2.93,1.06.67.67,1.06,1.73,1.06,2.93v7.32c0,1.2-.4,2.26-1.06,2.93-.67.8-1.73,1.2-2.93,1.2s-2.26.4-2.93,1.07c-.8.67-1.2,1.73-1.2,2.93v5.06c0,1.73-.8,3.06-2.4,3.73-1.73.67-2.53,2-2.53,3.73v.13c0,.93-.27,1.6-.8,2.13s-1.2.8-2,.8h-7.85c-1.6,0-2.4.8-2.4,2.4s.8,2.4,2.4,2.4h9.05c1.06,0,1.33-.4.67-1.33-.67-.93-.53-1.73.13-2.53,1.2-1.2,2.4-2.53,3.33-3.99.93-1.33,1.86-2.79,2.79-4.26.67-.93,1.46-1.6,2.26-1.86l2.13-.93c.93-.4,1.6-1.06,2.26-2,2.53-4.39,4.66-8.92,6.39-13.57,1.73-4.52,3.46-9.18,4.92-14.11.4-1.46,1.2-2.53,2.26-3.19.93-.67,2.13-.67,3.59-.27l8.25,2c1.46.4,2.53,1.06,3.19,2.13.67,1.06.67,2.26.27,3.73l-.4,1.2-.67,2.4c-.4,1.46-.93,2.93-1.33,4.39-.53,1.46-1.06,2.93-1.73,4.39-.4,1.2-1.33,2.13-2.53,2.66l-1.86.8c-.67.27-1.2.8-1.6,1.73l-.27.4c-.13.53-.27,1.06-.27,1.73v28.21c0,1.2.53,1.6,1.73,1.07,1.2-.4,1.73,0,1.73,1.2v29.01c0,1.73-.67,2.93-2.13,3.59l-.53.27c-1.46.67-2.13,1.86-2.13,3.59v27.15c0,1.86.93,2.4,2.79,1.73l1.6-.67c.67-.4,1.06-.27,1.06.67,0,.8-.4,1.2-1.2,1.2l-3.33.13c-.27,0-.53,0-.93.13-.4.13-.67.13-.8.27l-3.06,1.46c-.53.27-1.2.4-2,.4ZM50.09,270.84l-.8.4c-.27,0-.4-.13-.4-.4s.13-.4.53-.4h.53c.67,0,.67.13.13.4ZM69.25,252.74c1.33,0,2-.67,2-2v-8.52c0-1.33-.67-2-2-2s-2,.67-2,2v8.52c0,1.33.67,2,2,2ZM80.83,207.89h4.39c1.73,0,2.66-.93,2.66-2.79,0-1.73-.93-2.66-2.66-2.66h-4.39c-1.86,0-2.79.93-2.79,2.66,0,1.86.93,2.79,2.79,2.79ZM86.95,252.74c1.33,0,2-.67,2-2v-8.52c0-1.33-.67-2-2-2s-2,.67-2,2v8.52c0,1.33.67,2,2,2ZM91.34,286.14l1.33-.67c1.06-.4,1.06-.67-.13-.67h-1.06c-.53,0-.8.27-.8.8s.27.67.67.53ZM170.12,302.11c-1.73.4-3.33.67-4.79.67h-8.92c-2.26,0-4.26-.27-5.99-.93-1.73-.67-3.46-1.73-5.06-3.33l-.67-.8c-.4-.67-.93-.8-1.6-.4l-1.86.8c-.67.4-1.46.53-2.13.27-.8-.27-1.33-.8-1.6-1.46-.13-.67-.4-1.6-.53-2.79-.13-1.06-.27-2.39-.4-4.12-.13-1.6-.13-3.46-.13-5.72v-14.9c0-1.73.8-2.93,2.4-3.59,1.6-.67,2.4-1.86,2.4-3.59v-28.48c0-1.2-.53-1.6-1.73-1.2-1.2.53-1.73.13-1.73-1.06v-29.14c0-1.73.8-3.06,2.53-3.73,1.6-.67,2.4-2,2.4-3.73v-10.78c0-1.46.4-2.66,1.33-3.59.8-.8,2-1.2,3.46-1.2h8.12c1.46,0,2.66.4,3.59,1.2.8.93,1.2,2.13,1.2,3.59v3.46c0,1.73-.8,3.06-2.4,3.73-1.73.67-2.53,2-2.53,3.73v20.36c0,1.06.27,1.6.67,1.73.4.13.8-.13,1.46-1.07.4-.4.8-.93,1.2-1.46.27-.53.53-1.07.93-1.6l1.86-2.79c.53-.93,1.2-1.33,2-1.33.67,0,1.46.4,2.13,1.06l5.99,6.65c.8.93,1.73,1.2,2.93.53,1.2-.4,2.13-.27,3.06.67l.93,1.06c1.46,1.73,1.46,3.33-.13,4.79-2.93,2.79-5.85,5.59-8.78,8.12-3.06,2.53-5.99,5.06-9.05,7.45-1.2.93-1.73,2.26-1.73,3.73v11.98c0,1.73-.67,2.93-2.13,3.59l-.53.27c-1.46.67-2.13,1.86-2.13,3.59v20.89l.13.53c0,.4.13.67.27,1.06l.13.53c.27.67.8.93,1.73.93h2.66l.13-.13c.13,0,.4-.13.8-.27.4-.13.53-.4.53-.67l.4-.93c.13-.4.27-.67.27-.8l.4-1.33v-.53c.13-1.33.27-3.19.4-5.59v-4.79c0-1.46.4-2.26,1.33-2.26.53,0,1.06.27,1.73.8,2.79,2.13,5.85,3.73,9.18,4.92.53.13.93.53,1.33.93.4.53.53,1.07.4,1.73v1.86l-.27,2c0,1.33.53,1.73,1.73,1.2l.93-.4c1.73-.67,2.53-.13,2.4,1.73l-.4,3.33-.8,4.66c-.93,3.86-2.66,6.65-5.32,8.38-1.2.93-2.53,1.6-4.12,2Z"/>
    </g>
    <g>
      <path class="cls-2" d="M222.17,342.24c-.1,1.7,1,1.09,1.2,1.35-.24-2.85-1.49-1.28-1.2-1.35Z"/>
      <polygon class="cls-2" points="219.67 314.12 220.11 314.62 219.01 310.47 219.67 314.12"/>
      <path class="cls-2" d="M219.69,287.83c-1.88,2.49.3,9.53-.36,14.21l-.43.77,1.51,2.11c-.24-5.69-1.24-13.09-.72-17.1Z"/>
      <path class="cls-2" d="M223.74,273.81c-.73.87-.63-3.03-.23,3.27.08-.32.13-.41.19-.59-.01-.57,0-1.35.04-2.68Z"/>
      <path class="cls-2" d="M223.7,276.48c.05,2.77.61-1.81,0,0h0Z"/>
      <path class="cls-2" d="M223.28,263.7l.65,3.65c.43-.76.53-4.01.84-2.8-.36-3.74-.79-2.97-1.49-.84Z"/>
      <path class="cls-2" d="M221.91,260.24l.28,1.89c.18-.33.24-.83-.28-1.89Z"/>
      <path class="cls-2" d="M222.77,266.14l-.58-4.01c-.3.53-.91.58.21,1.84-.56-.33-.02.46.37,2.17Z"/>
      <path class="cls-2" d="M222.49,268.4c-.41,2.05-.67,4.69-1.31,1.03.26,6.98,1.58,5.95,1.31-1.03Z"/>
      <path class="cls-2" d="M217.75,286.48l-.55,2.74.63,2.37c-.31-1.18.51-5.27-.08-5.1Z"/>
      <path class="cls-2" d="M224.25,240.97c-.4-.23-1.06,1.23-1.57,1.5l.46,2.69c.27-1.38.52-4.01,1.12-4.19Z"/>
      <path class="cls-2" d="M222.68,242.47l-.69-4.03c-.08,3.6.25,4.26.69,4.03Z"/>
      <polygon class="cls-2" points="219.83 259.59 221.27 266.21 219.81 258.31 219.83 259.59"/>
      <polygon class="cls-2" points="224.3 225.58 225.23 227.86 223.83 223.79 224.3 225.58"/>
      <path class="cls-2" d="M224.14,215.37c.76,1.69,1.3-2.32,1.77-.53-.14-2.77-.79-5.14-1.38-7.28.33,2.27.25,4.68-.38,7.81Z"/>
      <path class="cls-2" d="M223.66,203.98c.18,1.13.51,2.3.86,3.58-.18-1.2-.43-2.39-.86-3.58Z"/>
      <path class="cls-2" d="M222.19,231.57c.24-.31.87-.91,1.14-3.17l-1.12,1.59c0,.48-.01,1.03-.02,1.59Z"/>
      <path class="cls-2" d="M222.17,230.04l.04-.06c.03-1.72.05-2.91.06-3.43-.01.44-.04,1.49-.1,3.48Z"/>
      <path class="cls-2" d="M222.19,231.97c0-.15,0-.26,0-.4-.11.15-.15.24,0,.4Z"/>
      <path class="cls-2" d="M220.85,249.02c-.63-2.37-1.3-7.31-2.26-2.53.77,1.7,1.31-1.04,2.26,2.53Z"/>
      <path class="cls-2" d="M220.78,233.94l-.26,4.28c.3-.08.73-.86,1.04.32l-.78-4.6Z"/>
      <polygon class="cls-2" points="220.43 231.85 220.78 233.94 220.88 232.35 220.43 231.85"/>
      <path class="cls-2" d="M222.61,211.31c-.49-1.85-.53-3.87-.61-6.16-.22,2.45-.34,4.98-.34,7.39.35.34.99,1.4.95-1.23Z"/>
      <path class="cls-2" d="M222.3,220.41c-.03-.13-.04-.29-.06-.41-.09.25-.13.46.06.41Z"/>
      <path class="cls-2" d="M222.01,182.65c-.06.13-.14.23-.2.36.07.03.13.05.19.08v-.45Z"/>
      <path class="cls-2" d="M221.46,212.95c-.22,1.84.06,2.94.4,3.99-.11-1.38-.19-2.84-.2-4.4-.16-.15-.26-.18-.21.41Z"/>
      <path class="cls-2" d="M223.14,197.7c-.23.96-.43,2.05-.62,3.19.36-.94.91-2.85.62-3.19Z"/>
      <path class="cls-2" d="M222.55,219.38c.02.09.04.18.05.28.24-.6.12-.53-.05-.28Z"/>
      <path class="cls-2" d="M222.55,219.38c-.16-.95-.44-1.69-.69-2.44.09,1.12.21,2.16.37,3.06.08-.23.2-.46.31-.62Z"/>
      <path class="cls-2" d="M214.8,175.84c1.04.32,2,5.17.89,9.34.78,4.11,4.2,1.42,6.12-2.17-.45-.13-.87-.13-1.49-4.36-.57,1.48-1.33,9.39-2.27,5.82-.54-5.6.37-4.59.92-7.32-1.3,2.32-1.89-7.13-3.8-5.91l.67,4.91c-.3.09-.77-1.69-1.04-.32Z"/>
      <path class="cls-2" d="M221.7,191.08l.13,1.74c.18-1.98.6-3.41,1.41-6.02-.51-2.9-.89-3.5-1.24-3.7l-.15,8.57-.16-.6Z"/>
      <path class="cls-2" d="M221.83,200.64c-1.13-1.36-1.61-5.54-2.84-2.98.08,5.11.95,3.58,1.44,6.63-.28-8.25.63,2.37,1.27-3.59.19,1.62.25,3.08.3,4.45.14-1.48.31-2.92.52-4.26-.03.08-.04.13-.07.19v.04s0,0-.01,0c-.14.36-.23.47-.15.07-.01-.03-.02-.13-.02-.17-.16-.06-.3-.21-.43-.37.23-2.39.29-.38.43.37.06.03.11.09.17.1,0,0,.01-.02.01-.03l-.62-8.26c-.16,1.75-.13,3.94,0,7.82Z"/>
      <path class="cls-2" d="M216.15,242.09c.1-.26.18-.24.26-.26-.14-.53-.23-.74-.26.26Z"/>
      <path class="cls-2" d="M216.84,238.69c.16.6.61,1.1.49,3.05-.34,1.69-.54,0-.91.08.3,1.18.81,4.12,1.36.43l-.15-.58c.39-3.33,1.8-7.6,1.96-7.02-1.02.97-1.75,1.83-2.75,4.04Z"/>
      <path class="cls-2" d="M219.05,219.42l-.56-6.88-.98,3.5.59-.18c-.23,3.91.49,3.07.95,3.55Z"/>
      <polygon class="cls-2" points="222.57 181.87 223.77 182.78 222.08 178.81 222.57 181.87"/>
      <polygon class="cls-2" points="222.43 172.93 223.47 173.26 222.84 170.9 222.43 172.93"/>
      <path class="cls-2" d="M13.61,107.82l.3,2.02c-.09-.96-.19-1.57-.3-2.02Z"/>
      <path class="cls-2" d="M13.68,93.19l-.51-.36c.28.68.49.96.51.36Z"/>
      <path class="cls-2" d="M167.52,2.02c-2.53-1.13-5.35-2.89-5.04-1.52l.78,1.33c1.76-.24,3.12-.09,4.27.2Z"/>
      <path class="cls-2" d="M38.55,9.96c.24.13.49.27.74.4.61-.46,1.19-.89,1.71-1.27-.73.26-1.57.56-2.44.87Z"/>
      <path class="cls-2" d="M36.77,15.46l-3.33-.86c.75.3,1.82.59,3.33.86Z"/>
      <path class="cls-2" d="M14.82,187.73l1.16,2.36c0-3.69-.59-2.07-1.16-2.36Z"/>
      <path class="cls-2" d="M222.01,81.39c.45-2.54.63-4.56.69-6.34-.65,3.06-1.64,5.53-.69,6.34Z"/>
      <path class="cls-2" d="M1.51,102.07c.21,1.24.44,1.77.69,1.73-.2-1.27-.41-1.99-.69-1.73Z"/>
      <path class="cls-2" d="M222.69,67.71c-.11.45-.17.89-.27,1.34.19,1.86.35,3.73.27,5.99.49-2.26.79-4.85,0-7.34Z"/>
      <path class="cls-2" d="M122.28,336c.18.06.4.09.56.16.05-.18-.2-.19-.56-.16Z"/>
      <path class="cls-2" d="M194.71,349.42c-.71.08-1.88.08-2.97.1.53.09,1.43.08,2.97-.1Z"/>
      <path class="cls-2" d="M222.93,136.97c.07,1.9.13.3,0,0h0Z"/>
      <path class="cls-2" d="M218.42,146.19c-.13-.4-.29-.71-.55-.76.27.16.45.42.55.76Z"/>
      <path class="cls-2" d="M215.6,48.83c0-.06,0-.1,0-.16-.22.56-.18.47,0,.16Z"/>
      <path class="cls-2" d="M222.41,139.82c.14-.71.26-1.53.34-2.42-.09.39-.2,1.13-.34,2.42Z"/>
      <path class="cls-2" d="M222.95,139.44c-.04.65-.08,1.17-.11,1.66.19.24.31.03.11-1.66Z"/>
      <path class="cls-2" d="M222.87,134.33c.02,1.08-.04,2.1-.12,3.07.08-.37.14-.53.18-.43-.01-.56-.03-1.34-.06-2.64Z"/>
      <path class="cls-2" d="M10.82,322.26c-.04.13-.06.27-.11.41.47,1.91.4,1.07.11-.41Z"/>
      <path class="cls-2" d="M125.2,15.83c.08-.01.12-.05.19-.06-.08-.01-.17-.03-.24-.05l.05.11Z"/>
      <path class="cls-2" d="M119.36,16.82c2.49-1.65,3.9-1.45,5.79-1.1l-1.93-3.83-3.85,4.93Z"/>
      <path class="cls-2" d="M13.94,142.86l1.02-4.78c1.69,5.77,1.11,9.95,2.55,5.46-3.57-.68-.37-18.59-3.93-19.25l.75-3.15c-.03.9.18,1.05.14,1.94,1.71-6.13-2.58-4.55-2.07-12.45.27-2.75.79-4.67,1.22-2.8l-.88-6.13c.07-1.78.69-1.35.62.43l-.28-9.35.11.07c-.56-1.33-1.43-4.36-1.79-5.84.51-2.38.38,1.19.82.58l-.87-5.18c.93-2.11,1.82,2.18,1.69,5.76,3.56-4.84-.9-4.3,1.18-14.74l.45,4.89c2.03-3.15,1.29-6.97,2.55-12.5-.66,1.31-3.18,11.07-4.07,5.45.27-1.58.4-3.67-.32-6.7,1.27-.03.96-2.99.89-6.69l1.68.25c-.49-4.01-1.34-3.69-2.1-6.05.17-4.46,1.47-5.39,2.57-6.44.27-7.15-2.09,4.94-2.41-3.53.64-5.95-.04-10.12-1.05-17.24.58-4.16,1.03.73,1.51-.77l-.67-1.84-.17-.46c-.06-.14-.11-.35-.17-.38-.11-.14-.22-.29-.34-.45.03-.44.44-.22.65-.13-.26-.7-.68-.89-1.09-1.17-.41-.3-.82-.71-1.04-2.41-.81-.88-.39-2.14.16-3.08,1.24.41,2.44.88,3.38,1.08.96.2,1.66.12,2.45-.57.38.28.28.58.17.9-.12.33-.25.68-.13,1.06.09-.05.18-.1.26-.14l.13-.07c.05-.02.18-.04.27-.07.39-.09.74-.16,1.07-.24.66-.15,1.23-.27,1.73-.38,1-.22,1.72-.38,2.4-.56,1.37-.36,2.57-.79,5.5-1.88l4.98,1.29c-3.66-1.47,1.02-3.21,5.11-4.64-1.3-.71-2.41-1.33-3.15-1.63l6.54-1.05c.79.32.13.99-.94,1.81.45-.16.87-.32,1.2-.47,2.34.72,1.13,1.86-.55,2.95-.8-.39-1.59-.8-2.35-1.21-1.61,1.19-3.12,2.51-2.79,3.66.42-.23,1.24-.42,2.14-.53-.42.32-.69.61-.5.81.22.21.9-.23,1.97-.73l1.49,2.18.36-.87,8.55,1.37c6.12-2.2,11.44-5.44,21.15-6.34-2.41,1.6-.52,2.62-.65,4.52-2.65-2.01-7.52.85-12.55.45,2.63.21,2.05,1.12,1.38,1.43l8.97-1.83c-.2,1.55,1.91,1.16,4.25,1.81-1.77-3.07,6.69-2.04,10.34-2.99.23,1.03-.65,2.08-5.1,1.83,4.92,2.31,6.35-3.6,11.18-1.64-1.09.03-1.67-.13-2.1.39,2.54-.92,8.75-.19,7.29.71l-1.09.02c7.22.36,21.98.02,23.06-2.58.07.34-.95,3.14-1.38,3.67l12.89-8.77c-1.14,2.24,3.22,7.57-2.77,8.83,1.72.32,3.85.69,7.47-.1-1.17-.32-2.92-3.24-1.32-3.44,4.4,2.49,3.05,1.33,8.48,3.46-1.76-.48.2-3.99,2.97-3.88-.43.53.23,3.46-.78,3.83l6.92-3.45c-1.73.62-.3,2.92,1.24,3.89-.72-.68,5.98.06,7.82-.28l-2.93-.8c7.81.52,7.71-4.85,15.46-4.67-.94.71-2.32,4.38,1.62,4.81,1.81-1.77,7.99-8.49,14.85-9.85l1.31,1.01,5.26-1.15c-3.27,2.66-12.46,8.24-17.48,10.42,2.92.8.81,1.19,5.19,1.1,1.55.95-2.39,1.43-3.67,1.49l10.19.61c-.45-2.06,7.79-2.07,7.4-3.78l-11.07,2.14c-.45-2.06,6.4-5.85,13.62-5.48,1.84.82-1.37,3.67-1.22,4.35.94-.71,6.85-1.35,7.51-.85l-3.06,1.1c1,.19,1.92.12,2.8-.07.44-.09.87-.22,1.3-.35l.32-.1c.1-.03.12-.07.18-.1l.34-.2c.46-.27,1.01-.5,1.57-.54.55-.04,1.13.11,1.46.6.41.07.57.76.55,1.25-.41.96-.67,1.5-.15,1.1.77-1.16,2.17-3.18,3.68-5.21,1.35-2.07,3-4.33,4.99-5.82.47-.44.85-.52,1.1-.32-.07.53-.55,4.52-1.14,8.21-.59,3.74-1.29,7.12-1.78,8.08-.79,1.6-1.73.4-2.65-.86-.91-1.27-1.8-1.68-2.48-.88.12,0,.25.07.38.18.06.05.13.12.19.19.06.06.12.24.18.36.23.55.43,1.17.53,1.54-.41,2.04-1.5-.84-1.28,3.59,1.79.74-.15,9.02,1.51,2.1.51,4.34-.37,4.61-.29,9.7,1.16-1.62,3.94,4.57,4.45,8.92-.46-.26-1.05.72-1.32,1.19-.16,8.89-.98,13.66-.99,21.95-.43.76-.96,4.76-1.73,3.06.32,1.19.92,2.29.97,4.85-1.55,4.95-.24-5.7-2.1-1.93,1.04.32,1.44,6.61,2.09,10.26,1.61-1.12.31-8.42-.34-12.06,2.22-.02,4.54,6.33,5.57,15,.55,6.89-1.43,2.99-1.12,4.18-.39,12.94,3.87,11.02,2.27,21.76-1.41,4.26-2.81.19-3.83,1.14-.54-5.61.9-8.61.84-12.42l-.67,4.68c-.47-1.78-.83-5.53-.42-7.57-1.27,3.57-.24,21.85-1.42,31.84.47,1.77.96,4.83,1.53,3.39l-.2-3.16c1.14-2.9,1.58,5.94,2.11,1.95.8,4.24,2.06,8.98,1.42,14.95l-1.61,1.12c.47-.13.96-3.9.47-5.57.71,2.49-2.18,9.14-.07,11.87l1.12-4.18c.81,4.25,2.52,9.51,2.01,14.8,1.59-2.4-.18-1.22,1.68-4.97-2.32,3.26.1-13.52-2.34-8.29,2.16-3.85.92-6.67,2.76-11.71-.53.16-1.02,1.78-.75-2.65-.16-.2-.35-.67-.47-.97.02-.14.02-.18.04-.3-.02.09-.04.15-.06.24-.08-.19-.1-.21-.02.09-.23,1.06-.51,1.91-.81,2.26-1.22-2.2-1.18-9.26-1.81-11.64.25-2.63.61,1.1,1.18-.34l-.94-3.56c1.18-.35,1.96-6.99,2.65-.79l.05-5.58c.66-3.29.93-7.81.43-10.59.26-2.63-1.31-6.65-.38-4.36l-.73-8.75.3-.08c.15-8.64-1.95-17.78.18-27.66-.3-2.91-.66-5.91-.33-10.78l1.02-.95c-.36-3.73,1.02-11.21-.04-12.82,1.37-2.01,1.52-6.54,1.39-11.39-.07-2.42-.2-4.93-.29-7.23-.04-1.15-.08-2.26-.08-3.28,0-.61,0-1.19.01-1.74.01-.85.03-1.65.06-2.41-.44-.08-.89-.15-1.33-.2.05-5.48-.12-10.77-.42-16.34-2.09.15-4.32.31-6.7.49-.08.46-.18.92-.28,1.37-1.71.28-3.46.36-5.36.33-.95-.02-1.93-.07-2.97-.13-.51-.04-1.02-.07-1.55-.11-.36-.04-.73-.09-1.1-.13-2.97-.37-6.24-.86-9.52-.79.45-.53,2.11-.39,3.29-.07-7.84-3.1-16.54,2.26-23.66,0-1.77.5-3.06.33-4.3-.02.17,0,.31-.03.44-.07-.18-.02-.45-.02-.73-.02-.78-.24-1.59-.51-2.46-.73.74.33,1.45.61,2.07.74-1.37.03-3.44.2-5.47.54l-.87-1.48c-.17.02-.3.02-.47.04-1.99-.54-1.6.7-.54,1.81-1.02.24-1.96.53-2.69.89-1.62-2.38-5.33.8-7.54-1.74-1.37,1.24-10.21.93-11.3,3.54-.07-.34-.67-.5.43-.52-2.27-.3-4.53-.59-6.56.14l-.96-1.88-4.95,2.52c-3-1.14-4.25-1.81-1.27-3.25-7.2,2.22-5.85.84-11.97,3.04l.3-1.21c-2.19.05-5.69,1.67-7.01.67-4.9-2.31-24.24-.32-36.82-2.46,2.44,3.57-5.85-1.6-6.34,1.17-.73-.84-2.49-1.32-.45-2.06-6.42.83-9.64-1.34-14.07.99-.73-.85,1.37-1.24.72-1.74-.51.18-2.04.73-2.71.23-.65-.5.94-.71,1.96-1.08-6.56.14-7.22,2.75-7.7,5.19-3.32-1.16-4.98-.99-7.38.61-1.16-.8-3.09-1.64.99-1.92-2.29-.12-14-1.17-14.23.79-.72-.5-3.2-.15-3.81.08-3.24-.08-5-.12-6.75-.17-1.88-.04-3.77-.03-7.1.06l2.1.32c-.37.84-1,1.15-1.97,1.21.05,1.13-.08,2.17-.19,3.48-.12,1.3-.23,2.88-.15,4.84l-.21-.27c-.18,1.64-.31,3.03-.39,4.19-.04.58-.07,1.1-.1,1.56-.02.41-.03.77-.04,1.09-.03,1.12.05,1.7.13,2.28.15,1.16.27,2.29-.56,7.66l1.26-.58c2.71,1-1.6,9.51-.56,15.74l.72-2.25c.93,3.4-3.69,9.51-4.03,12.93-.24.74-.38-1.18-.55-2.22-1.6,8.95,1.65,1.16,2.04,7.83-.89,1.23-2.27-1.58-2.43,2.9-.72,2.24,2.89,13.01,1.18,19.14.69-1.35,1.37-2.69,1.89.41.25,4.75-2.6,12.83-.43,17.12-.19.6-.37.83-.54.86.56,3.63.93,11.79,2.1,13.98-4.35,3.35,2.12,22.55-1.9,22.47l.21,11.16-.41-.29c-.27,7.13.7,9.66,1.66,12.16-.27,1.65-.65.45-.86.31-.81,10.42-.64,11.46,1.36,20.2l-1.3.91c.76,2.37-2.04,15.07-.52,25.29-.15-.1-.4-.31-.58-1.12,1.53,11.5-3.61,27.53,1.13,31.75l1.17,7.59c.37-9.82,2.06,1.46,2.85-2.58.28,3.86-1.43,9.98-1.67,5.24l.24-.74c-2.47-1.74-.88,12.2-2.56,11.94.12,19.32-1.25,38.15-1.35,56.25l1.92-2.09-.11,6.31c-.45,1.66-1.5,2.22-1.42-2.28-1.09,2.37.91,7.55,1.33,7.68-.78,8.82-2.24-3.44-2.29-.74l.14,3.67.22-.83c.1.37.2.7.29,1,.05.15.1.3.15.44.05.15.1.24.14.47.19.8.36,1.5.51,2.29.29,1.59.48,3.51.43,7.38-.19,2.57-.49,3.5-.75,4-.26.51-.48.59-.51,1.67-.13.11-.19.8-.08,2.86.09,0,.24-.02.4-.03l10.54.19c-1.27-.59-2.41-1.18-3.41-1.77,2.34-.44,4.51-.41,5.69-.53.58-.06.89-.15.81-.36-.08-.21-.56-.52-1.45-1.02.64.39,1.68.69,3.04.94,1.09.24,2.24.42,3.58.56,2.65.26,5.77.34,8.84.34,6.14.01,12.06-.24,13.48.24,4.24-1.29,8.42-1.27,13.6-1.11-1.29-.37-2.06-2.36,2.41-2.11-1.63,4.11,8.18,1.78,11.79,4.74-3.23-1.96,12.7-.48,7.64-3.26,3.73.33.23,1.54,3.05,2.5,8.87-1.59,19.55,1.03,30.52.5.17-.54-1.67-1.36.69-2.16l5.79,2.69c2.17-.26,1.99-3.11,5.95-1.24-.56-.45-1.39-1.14.06-1.31,21.48,2.63,43.9-2.15,65.72,2.78-2.95-1.04-.99-1.15,1.27-1.19-1.47-.25.03-1.33-.25-2.06l9.13,2.03c1.66-2.03,9.79-.14,10.75-2.08l-2.89.35c3.85-2.29-5.38-5.08-4.82-8.02-4.31,2.6-11.36-3.85-18.42-.13-1.56-.6,1.33-.95.5-1.63-1.79,1.26-3.95,1.52-7.96.96l.45-.31c-11.26.31-16.09-.93-28.74-1.76l.94,1.45c-2.72-.19-3.29-.65-4.56-1.01-3.12,2.2,7.64.12,4.79,2.55-3.61-2.95-19.17-.04-21.61-3.4-4.18-.02,1.23,1.68-2.95,1.66l-1.11-.91-1.06,1.17c-2.74-.19-4.13-1.33-4.23-2.1.67.09,1.89-.22,2.6-.28-3.56-1.07-10.03.37-11.25.02l4.02.56c-11.41.85-25.35-.34-36.38,1.5l.84.69c-8.42,1.27-6.75-.75-15.99-.17l.34-.16c-1.85.68-4.32,1.03-6.85.95,2.33-.8-4.39-1.56-1.33-2.45-9.13,1.36-4.52,1.07-10.55,3.61l-1.39-1.14c-2.06,1.03-2.23,1.57-6.84,1.86,3.79-.98-2.95-1.73,1.3-3.02-9.69-2.49-14.39,2.51-18.83-1.13-4.45,3.15,8.39,1.75,5.89,2.42,2.09,1.03-3.67,2.35-6.71,2.03-.35,0-.7-.07-1.03-.16-.28-.1-.54-.23-.8-.4-.51-.33-.98-.76-1.41-1.21-.44-.45-.85-.91-1.29-1.3-.44-.38-.91-.69-1.58-.82.04-.39.06-.77.06-1.16-.01.46.19.28.18.72.34-1.18.11-1.64-.07-2.41-.18-.71-.3-1.75.25-2.78-.1-.06-.19-.13-.27-.2-.04-.04-.07-.07-.11-.11l-.09-.23c-.11-.31-.19-.62-.24-.94-.1-.63-.1-1.25-.12-1.82-.03-1.14-.12-2.08-1.16-2.42l.24,4.16.06,1.04c.01.2.02.3.03.4l.03.32.12,1.26c-.07-.34-.17-.68-.28-1.04-.12-.37-.25-.67-.39-1.36-.29-1.2-.6-2.44-.87-3.77-.53-2.67-.84-5.72-.25-9.61.42.61.97,2.92,1.28,4.51.61-2.27-.41-4.38.22-6.74,2.08.67.45,10.12,2.04,15.18.88-2.44-1.51-9.57.75-7.02-2.87-3.65.36-8.94-1.83-15.09l1.25.41c-.2-.97-.79-2.99-.75-4.78l1.62,3.24c-1.38-4.98,1.21-9.59.46-14.37.04,9.99-1.5,2.24-2.41,6.47-1.67-12.33,3.26-7.09,2.66-20.89.18,1.87-.75,7.01-1.33,4.09.26-2.63.74-6.1,1.39-7.71-.26-9.14-1.28,1.4-2.05-2.49,1.52-3.11-.62-4.49-1.11-8.5l1.27-.03c.81-10.42-2.64-2.76-1.66-12.14l1.76,3.97-.45-4.89,1.44,1.01c-1.07-5.32-.79-6.98-.39-12.19-.89,1.21-2.3-.68-2.34-5.3.75-3.15,1.21,1.76,1.02-4.78.79,1.48,1.79,3.1.62,5.94.41.29.8,1.46,1.2,1.76.87-3.39.2-8.52.19-10.89-.05.91-.12,2-.3,2.56l-1.76-9.48c.48-1.49.86-.31,1.23.86-.14-1.92-.72-3.25-.83-6.07,1.03.73,2.09.56,2.58,4.55l-1.14-9.04c.45-.6,1.23-4.64,1.61-3.46.61-5.01-2-12.29-1.2-18.93-.2-.35-.39-1.04-.54-2.45.23-6.24,1.5-11.77.08-19.17l1.85-4.2c-.42-5.79-2.33,5.68-3.03-3.97-.59-6.83,1.58-2.55,2.09-4.95-.93-3.4-2.83-9.3-1.32-15.58.35,2.08.07,3.71.21,5.65ZM13.12,71.4c.27,1.38,1.09,4.14.34,5.16-1.45-1.58-.76-2.8-.34-5.16ZM47.58,12.8c-.88.49-2.25.25-3.79-.31,1.12-.12,2.39-.07,3.79.31ZM221.9,116.19c-.02-.06-.04-.1-.06-.15.49-3.09.3-1.99.06.15ZM221.35,122.6c.18.64.35.6.53.33-.32-.45-.34-1.89-.25-3.53-.33.46-.56,1.28-.28,3.2ZM2.28,347.89l.33-2.18c.18,1.89.19,2.59.11,2.77-.08.18-.26-.2-.44-.59Z"/>
      <path class="cls-2" d="M37.01,14.82c-.34-.25-.43-.53-.51-.8-.47.25-.48.54.51.8Z"/>
      <path class="cls-2" d="M14.6,187.3c-.01.07,0,.14-.01.22.08.12.15.18.23.22l-.21-.44Z"/>
      <path class="cls-2" d="M210.59,23.25c.09-.66.19-1.17.31-1.58.06-.24.11-.28.17-.38.06-.09.12-.17.18-.24-.16,0-.3.08-.41.28-.03.07-.06.08-.08.21-.02.13-.05.28-.07.45-.04.34-.07.75-.09,1.26Z"/>
      <path class="cls-2" d="M223.5,156.59l-.33-4.11c.06,1.99-.21,2.7-.42,3.7.3-.09.73-.88.75.41Z"/>
      <path class="cls-2" d="M215.65,192.25c.16.6.02,1.27.17,1.87l.59-.16c-.04-2.56-.51-4.35-.76-1.7Z"/>
      <path class="cls-2" d="M219.29,160.39c-1.07.33-.7,2.9-.51,5.78,0-.17-.01-.34,0-.51,1.49.85,1-2.22.51-5.27Z"/>
      <path class="cls-2" d="M218.82,166.84c.05.89.08,1.79.03,2.66.6.34.12-1.08-.03-2.66Z"/>
      <path class="cls-2" d="M222.05,130.74c-.27,1.36,1.36.86.93,1.63,1.36,1.52-1.64-9.1-.93-1.63Z"/>
      <polygon class="cls-2" points="215.77 162.72 217.09 161.69 216.03 160.08 215.77 162.72"/>
      <path class="cls-2" d="M216.74,140l-.36,4.6c.22-.07.35.51.45,1.23.04-2.83.31-5.94-.08-5.83Z"/>
      <path class="cls-2" d="M216.82,145.83c-.03,1.48,0,2.88.22,3.7-.01-.8-.06-2.52-.22-3.7Z"/>
      <polygon class="cls-2" points="215.38 156.44 215.65 155.08 215.75 151.83 215.38 156.44"/>
      <path class="cls-2" d="M216.99,90.57l-.38-5.02c-.45-.51-.73.86-.55,2.72.31,1.2.49,3.06.93,2.29Z"/>
      <path class="cls-2" d="M213.39,105.75c.27-1.36.57-1.45,1-2.21l-1.63-.15.63,2.37Z"/>
      <path class="cls-2" d="M213.01,91.11c-.45-.5-1.3-7.28-1.2-.92.45.51.83,5.54,1.2.92Z"/>
      <path class="cls-2" d="M215.07,15.91l.02,1.18c.89-.47,1.78-.96,2.68-1.46-.9,0-1.8.09-2.7.28Z"/>
      <path class="cls-2" d="M163.61,17.93c5.1.75,1.21-1.93,5.82-.99,1.2-.74-3.77-.76-2.54-1.4-3.08.78-4.7.34-3.28,2.39Z"/>
      <path class="cls-2" d="M166.89,15.54c.49-.12,1.02-.27,1.57-.47-.89.19-1.31.34-1.57.47Z"/>
      <polygon class="cls-2" points="206.73 351.09 210.01 351.74 207.89 350.69 206.73 351.09"/>
      <path class="cls-2" d="M213.02,348.78l.77,1.99,1.97-1.8c-.74.09-2.18.26-2.74-.19Z"/>
      <path class="cls-2" d="M16.55,60.78l-.41-.29c-.44.59-.48,1.49-.55,3.28l.96-2.99Z"/>
      <polygon class="cls-2" points="15.28 112.64 15.31 111.75 13.77 113.42 15.28 112.64"/>
      <path class="cls-2" d="M17.24,156.17c.06-1.78-.28-3.86-.21-5.65.28,3.87-1.71,6.13.21,5.65Z"/>
    </g>
  </g>
</svg>