<?xml version="1.0" encoding="UTF-8"?>
<svg id="Layer_2" data-name="Layer 2" xmlns="http://www.w3.org/2000/svg" viewBox="0 0 379.85 187.02">
  <defs>
    <style>
      .cls-1 {
        fill: #231916;
      }

      .cls-2 {
        fill: #d93017;
      }
    </style>
  </defs>
  <g id="_レイヤー_1" data-name="レイヤー 1">
    <rect class="cls-1" width="379.85" height="187.02"/>
    <path class="cls-2" d="M184.08,69.55c-.44.65-.81,1.03-1.14,1.14-.65-1.08-1.41-2.12-2.28-3.09-.87-.98-1.9-1.46-3.09-1.46-.87,0-1.6.24-2.2.73-.6.49-1.17,1-1.71,1.55-.54.54-1.14,1.06-1.79,1.55-.65.49-1.46.73-2.44.73s-1.82-.19-2.52-.57c-.71-.38-1.36-.81-1.95-1.3-.6-.49-1.17-.95-1.71-1.38-.54-.43-1.19-.65-1.95-.65v6.02h-22.79c-.65-1.84-1.63-3.04-2.93-3.58-1.3-.54-2.88-.81-4.72-.81-1.2,0-2.23.06-3.09.16-.87.11-1.3.81-1.3,2.12v1.14c.33.43,1.06,1.22,2.2,2.36,1.14,1.14,1.87,1.76,2.2,1.87l17.42,8.79c.11,0,.16.27.16.81s-.08,1.03-.24,1.46c-.16.44-.52.76-1.06.98.43-.98.22-1.6-.65-1.87-.87-.27-1.57-.41-2.12-.41-1.41,0-2.66.38-3.74,1.14-1.09.76-2.34,1.14-3.74,1.14-1.74,0-3.07-.38-3.99-1.14-.92-.76-1.66-1.68-2.2-2.77-.54-1.08-1-2.25-1.38-3.5-.38-1.25-.95-2.41-1.71-3.5-1.19.65-2.14,1.57-2.85,2.77-.71,1.2-1.28,2.47-1.71,3.83-.44,1.36-.73,2.71-.9,4.07-.16,1.36-.24,2.52-.24,3.5,1.08,0,2.3-.05,3.66-.16,1.36-.11,2.69-.11,3.99,0,1.3.11,2.52.33,3.66.65,1.14.33,2.14.87,3.01,1.63-1.09,1.52-2.85,3.07-5.29,4.64-2.44,1.57-5.05,3.07-7.81,4.48-2.77,1.41-5.37,2.66-7.81,3.74-2.44,1.09-4.15,1.85-5.13,2.28-.87.54-1.22.9-1.06,1.06s.24.57.24,1.22h32.39v-2.28l-8.79-8.63v-1.14c.33-.54.7-.87,1.14-.98l7-.16c3.58,0,7.62.38,12.13,1.14,4.5.76,8.71,2.03,12.61,3.82,3.91,1.79,7.21,4.18,9.93,7.16,2.71,2.99,4.07,6.75,4.07,11.31,0,3.58-1.17,6.57-3.5,8.95-2.33,2.39-5.4,3.58-9.2,3.58-2.28,0-4.1-.73-5.45-2.2-1.36-1.46-2.58-3.09-3.66-4.88-1.09-1.79-2.2-3.42-3.34-4.88-1.14-1.46-2.69-2.2-4.64-2.2-2.39,0-4.78.19-7.16.57-2.39.38-4.78.57-7.16.57h-2.77c.11-1.08-.35-1.95-1.38-2.6-1.03-.65-2.25-1.19-3.66-1.63-1.41-.43-2.85-.73-4.31-.9-1.46-.16-2.52-.24-3.17-.24,0,.22.22.6.65,1.14.43.54.92,1.14,1.46,1.79.54.65,1.08,1.28,1.63,1.87.54.6.98,1.11,1.3,1.55-.44.98-.98,1.6-1.63,1.87-.65.27-1.25.52-1.79.73-.54.22-1.03.6-1.46,1.14-.43.54-.65,1.52-.65,2.93v1.79c0,.76.38,1.2,1.14,1.3,2.49-.11,5.48-.16,8.95-.16s7.11.22,10.9.65c3.8.44,7.57,1.09,11.31,1.95,3.74.87,7.08,2.17,10.01,3.91,2.93,1.74,5.32,3.91,7.16,6.51,1.84,2.6,2.77,5.81,2.77,9.6,0,3.26-1.14,5.94-3.42,8.06-2.28,2.12-4.99,3.17-8.14,3.17-1.3,0-2.25-.52-2.85-1.55-.6-1.03-1.09-2.14-1.46-3.34-.38-1.2-.76-2.31-1.14-3.34-.38-1.03-1.06-1.55-2.03-1.55h-.65c-.11,0-.63.16-1.55.49-.92.33-1.49.54-1.71.65h-.98c-1.52-1.41-3.45-3.26-5.78-5.53-2.33-2.28-4.83-4.53-7.49-6.75-2.66-2.22-5.35-4.15-8.06-5.78-2.71-1.63-5.21-2.44-7.49-2.44v27.99c0,.65-.63,1.22-1.87,1.71-1.25.49-2.63.95-4.15,1.38-1.52.43-2.96.76-4.31.98-1.36.22-2.09.33-2.2.33l-12.37.33v-18.72c0-.87-.49-1.65-1.46-2.36-.98-.7-1.74-1.06-2.28-1.06-3.47,0-7.35.92-11.64,2.77-4.29,1.85-8.79,3.85-13.51,6.02-4.72,2.17-9.55,4.18-14.49,6.02-4.94,1.84-9.85,2.77-14.73,2.77l-3.26-.16c-.11-.11-.3-.43-.57-.98-.27-.54-.46-.92-.57-1.14v-.65c0-.98.84-2.12,2.52-3.42,1.68-1.3,3.77-2.71,6.27-4.23,2.49-1.52,5.18-3.12,8.06-4.8,2.87-1.68,5.56-3.44,8.06-5.29,2.49-1.84,4.58-3.72,6.27-5.62,1.68-1.9,2.52-3.82,2.52-5.78v-.65c-.11-.11-.3-.3-.57-.57-.27-.27-.46-.41-.57-.41h-10.74c-.65.87-1.71,1.82-3.17,2.85-1.46,1.03-2.79,1.55-3.99,1.55-1.41,0-2.79-1-4.15-3.01-1.36-2.01-2.58-4.31-3.66-6.92-1.09-2.6-1.95-5.15-2.6-7.65-.65-2.49-.98-4.29-.98-5.37,0-.11.13-.3.41-.57.27-.27.51-.41.73-.41h44.43c.11,0,.3-.13.57-.41.27-.27.46-.51.57-.73v-1.14c-1.09.11-2.31-.08-3.66-.57-1.36-.49-2.66-1.16-3.91-2.03-1.25-.87-2.31-1.87-3.17-3.01-.87-1.14-1.3-2.3-1.3-3.5,0-.33.05-.54.16-.65,2.93-.98,5.48-1.33,7.65-1.06,2.17.27,4.88.41,8.14.41,0-.11.08-.35.24-.73.16-.38.24-.62.24-.73l-4.39-4.39h-.49c-.76,0-1.28.22-1.55.65-.27.43-.9.65-1.87.65-1.74,0-3.12-.38-4.15-1.14-1.03-.76-2.31-1.9-3.82-3.42-.22,1.09-.54,2.06-.98,2.93-.33.76-.68,1.49-1.06,2.2-.38.71-.79,1.17-1.22,1.38-.54-.43-1.66-1.22-3.34-2.36-1.68-1.14-3.42-2.41-5.21-3.82-1.79-1.41-3.39-2.82-4.8-4.23-1.41-1.41-2.12-2.66-2.12-3.74,0-.65.16-1.16.49-1.55.33-.38.98-.57,1.95-.57h24.9c.54,0,.87-.54.98-1.63.11-1.08.16-1.79.16-2.12s-.03-.95-.08-1.87c-.06-.92-.41-1.38-1.06-1.38h-9.44c0-1.41-.16-2.36-.49-2.85-.33-.49-.81-.76-1.46-.81-.65-.05-1.46,0-2.44.16-.98.16-2.12.24-3.42.24l-.16.49,1.14,2.28h-9.77l1.14-2.28-.16-.65c-.11,0-.27-.08-.49-.24-.22-.16-.38-.19-.49-.08-.33.22-1.06.73-2.2,1.55s-1.87,1.38-2.2,1.71h-15.14c-.11,0-.3-.3-.57-.9-.27-.6-.46-1.06-.57-1.38,0-.22-.06-.81-.16-1.79-.11-.98-.16-1.63-.16-1.95h60.06c.43,0,.79-.27,1.06-.81.27-.54.49-1.19.65-1.95.16-.76.3-1.49.41-2.2.11-.7.16-1.22.16-1.55,0-.65-.08-1.71-.24-3.17-.16-1.46-.46-2.2-.9-2.2h-43.46l-.33-.65c-.11-.22-.24-.38-.41-.49-.16-.11-.3-.27-.41-.49-.43-.87-.73-1.44-.9-1.71-.16-.27-.24-.79-.24-1.55,0-.43.05-1,.16-1.71.11-.7.43-1.06.98-1.06h44.6c.22-.76.38-1.41.49-1.95.11-.54.19-1.06.24-1.55.05-.49.14-.95.24-1.38l.16-1.14c0-.87-.16-1.87-.49-3.01s-.92-1.93-1.79-2.36c-8.14-.43-16.44-.76-24.9-.98-8.46-.22-16.82-.27-25.07-.16-.11,0-.3-.13-.57-.41-.27-.27-.41-.46-.41-.57-.11-.43-.22-1.27-.33-2.52-.11-1.25-.16-2.03-.16-2.36h51.43l.33-.65c.11-.22.38-.54.81-.98.65-1.08,1.08-2.03,1.3-2.85.22-.81.35-1.65.41-2.52.05-.87,0-1.9-.16-3.09-.16-1.19-.35-2.71-.57-4.56l1.14-1.14h6.27c1.57,0,3.36.06,5.37.16,2.01.11,4.12.24,6.35.41,2.22.16,4.26.38,6.1.65,1.84.27,3.36.63,4.56,1.06,1.19.43,1.79.92,1.79,1.46v.65c-.11.11-.3.3-.57.57-.27.27-.46.41-.57.41-.22,0-.76-.16-1.63-.49-.87-.33-1.41-.49-1.63-.49-.33-.11-.95-.13-1.87-.08-.92.06-1.9.11-2.93.16-1.03.06-2.01.11-2.93.16-.92.06-1.55.08-1.87.08,0,.76.05,1.63.16,2.6.11.98.33,1.87.65,2.69.33.81.81,1.52,1.46,2.12.65.6,1.46.9,2.44.9h.49c.33-.22.9-.73,1.71-1.55.81-.81,1.33-1.38,1.55-1.71v3.26c.11.33.3.76.57,1.3.27.54.46.81.57.81h20.67c1.52,0,2.77-.62,3.74-1.87.98-1.25,1.9-2.63,2.77-4.15.87-1.52,1.79-2.9,2.77-4.15.98-1.25,2.17-1.87,3.58-1.87,1.08,0,2.79.65,5.13,1.95,2.33,1.3,4.66,2.82,7,4.56,2.33,1.74,4.37,3.56,6.1,5.45,1.73,1.9,2.6,3.39,2.6,4.48,0,.22-.06.63-.16,1.22-.11.6-.44.9-.98.9h-15.3c-.44,0-1,.27-1.71.81-.71.54-1.22,1.03-1.55,1.46.98,1.09,2.3,2.17,3.99,3.26,1.68,1.09,3.36,2.2,5.05,3.34,1.68,1.14,3.15,2.33,4.39,3.58,1.25,1.25,1.87,2.52,1.87,3.82,0,.87-.22,1.63-.65,2.28-.43.65-.65,1.41-.65,2.28,0,1.52.73,2.85,2.2,3.99s3.09,2.23,4.88,3.26c1.79,1.03,3.44,2.12,4.96,3.25,1.52,1.14,2.28,2.47,2.28,3.99v.49ZM78.77,127.17c-1.85-1.52-3.12-3.09-3.83-4.72-.71-1.63-1.33-3.09-1.87-4.39-.54-1.3-1.36-2.36-2.44-3.17-1.09-.81-2.93-1.22-5.53-1.22,0,.65.43,1.76,1.3,3.34.87,1.57,1.87,3.2,3.01,4.88,1.14,1.68,2.28,3.17,3.42,4.48,1.14,1.3,2.03,1.95,2.69,1.95h1.87c.81,0,1.27-.38,1.38-1.14ZM72.26,82.57c-.11-.22-.44-.49-.98-.81-.54-.33-.92-.38-1.14-.16-.33.11-.76.57-1.3,1.38-.54.81-.87,1.44-.98,1.87,0,.11.13.43.41.98.27.54.51.92.73,1.14.11.11.33.16.65.16.22,0,.38-.05.49-.16l2.12-4.39ZM92.93,129.28c0-.65-.35-1-1.06-1.06-.71-.05-1.22-.08-1.55-.08-1.74,0-3.39.19-4.96.57-1.57.38-3.09.81-4.56,1.3s-2.93.92-4.39,1.3c-1.46.38-2.96.57-4.48.57,0,.98.35,2.12,1.06,3.42.7,1.3,1.16,2.17,1.38,2.6.65-.43,1.19-.73,1.63-.9.43-.16,1.03-.24,1.79-.24.43,0,.84.06,1.22.16.38.11.68.43.9.98-.54.76-1.25,1.41-2.12,1.95-.87.54-1.74,1.06-2.6,1.55-.87.49-1.68.98-2.44,1.46-.76.49-1.3,1-1.63,1.55.22.87.95,1.3,2.2,1.3h2.2c1.3,0,2.33-.22,3.09-.65.76-.43,1.44-1,2.03-1.71.59-.7,1.14-1.52,1.63-2.44.49-.92,1.11-1.93,1.87-3.01h1.14l6.51,3.26,1.14-.98v-10.91ZM121.09,73.29c-.54,0-1.63.08-3.26.24s-2.71.3-3.26.41c-.11,0-.38.11-.81.33-.43.22-.9.46-1.38.73-.49.27-.95.52-1.38.73-.44.22-.71.33-.81.33-.65,0-1.44-.54-2.36-1.63-.92-1.08-1.93-1.63-3.01-1.63-.43,0-.87.06-1.3.16-.44.11-.71.44-.81.98l4.23,4.39c-.65.98-1.82,1.87-3.5,2.69-1.68.81-3.36,1.68-5.05,2.6-1.68.92-3.2,1.9-4.56,2.93-1.36,1.03-2.03,2.2-2.03,3.5v1.3c.11.22.27.71.49,1.46.22.76.41,1.55.57,2.36.16.81.35,1.57.57,2.28.22.71.38,1.17.49,1.38.33.11.7.16,1.14.16.98,0,1.73-.19,2.28-.57.54-.38,1.25-.95,2.12-1.71l21.65-21.65v-1.79ZM106.11,30.65c-.65,0-1.52.08-2.6.24-1.09.16-2.12.43-3.09.81-.98.38-1.82.95-2.52,1.71-.71.76-1.06,1.68-1.06,2.77,1.95,0,3.99-.38,6.1-1.14,2.12-.76,3.17-2.22,3.17-4.39ZM112.71,93.64c-1.03-.11-2.25-.16-3.66-.16-1.2,0-2.03.35-2.52,1.06-.49.71-.92,1.46-1.3,2.28-.38.81-.9,1.46-1.55,1.95-.65.49-1.74.52-3.26.08.87,1.52,1.95,2.28,3.26,2.28,2.71-1.3,4.88-2.36,6.51-3.17s3.8-1.93,6.51-3.34c-1.63-.54-2.96-.87-3.99-.98ZM150.38,65.32c.76,0,1.6-.33,2.52-.98.92-.65,1.76-1.46,2.52-2.44.76-.98,1.38-2.01,1.87-3.09.49-1.08.73-2.01.73-2.77,0-.87-.11-1.73-.33-2.6-.22-.87-.81-1.3-1.79-1.3l-1.14.16c-.33,0-1.06.14-2.2.41-1.14.27-1.87.46-2.2.57h-28.65c0-.54-.14-1.3-.41-2.28-.27-.98-.63-1.95-1.06-2.93-.44-.98-.95-1.82-1.55-2.52-.6-.7-1.22-1.06-1.87-1.06l-1.14.16c-.33.11-.92.35-1.79.73-.87.38-1.76.81-2.69,1.3-.92.49-1.79.95-2.6,1.38-.81.44-1.38.76-1.71.98v1.63c0,.87.14,1.55.41,2.03.27.49.9.73,1.87.73s1.63-.38,1.95-1.14c.33-.76.92-1.14,1.79-1.14.98,0,1.55.38,1.71,1.14.16.76.19,1.63.08,2.6-.11.98-.16,1.93-.16,2.85s.38,1.6,1.14,2.03c.22.11.43.22.65.33.22.11.54.22.98.33.43,0,.76.06.98.16v-6.18h2.28v10.91h29.79ZM116.69,144.42h-4.23c.87,1.85,2.28,2.77,4.23,2.77v-2.77ZM138.5,46.76c1.08,0,2.3-.6,3.66-1.79,1.36-1.19,2.66-2.58,3.91-4.15,1.25-1.57,2.36-3.15,3.34-4.72.98-1.57,1.68-2.69,2.12-3.34-.54-.98-1.36-1.6-2.44-1.87-1.09-.27-2.12-.41-3.09-.41h-.98c.87,1.09,1.22,1.85,1.06,2.28-.16.43-.24,1.3-.24,2.6h-24.74v11.39h17.41ZM123.2,89.08l1.14-.98,1.14.98h-2.28ZM142.74,135.47c-.76,0-1.49.44-2.2,1.3-.71.87-1.06,1.63-1.06,2.28s.51,1.06,1.55,1.22c1.03.16,1.6.24,1.71.24v-5.05ZM141.76,90.22c.11-.43.43-.81.98-1.14h1.14l-2.12,1.14ZM156.41,137.26c-1.95,0-3.74.81-5.37,2.44-1.63,1.63-2.44,3.42-2.44,5.37,2.06,0,3.88-.79,5.45-2.36,1.57-1.57,2.36-3.39,2.36-5.45ZM151.69,111.05c0-1.73-.87-2.6-2.6-2.6,0,1.74.87,2.6,2.6,2.6ZM163.41,28.37c.87-.54,1.3-1.36,1.3-2.44-1.09,0-1.9.43-2.44,1.3l1.14,1.14ZM175.29,116.26c0,.44.05.87.16,1.3.11.43.43.71.98.81.11-.22.16-.54.16-.98,0-.54-.06-1-.16-1.38-.11-.38-.49-.68-1.14-.9v1.14Z"/>
    <path class="cls-2" d="M344.7,108.48c-1.09,0-1.98-.43-2.69-1.3-.71-.87-1.6-1.3-2.69-1.3s-2.33.27-3.74.81c-1.41.54-2.9,1.14-4.48,1.79-1.57.65-3.15,1.28-4.72,1.87-1.57.6-3.07.95-4.48,1.06l-2.12,2.12v15.95c1.3,0,2.28-.13,2.93-.41.65-.27,1.22-.7,1.71-1.3.49-.6,1-1.44,1.55-2.52.54-1.08,1.36-2.44,2.44-4.07.33-.11.7-.16,1.14-.16.76,0,1.57.27,2.44.81.87.54,1.71,1.17,2.52,1.87.81.71,1.55,1.44,2.2,2.2.65.76,1.14,1.36,1.46,1.79-.65.11-1.38.49-2.2,1.14-.81.65-1.6,1.33-2.36,2.03-.76.71-1.41,1.38-1.95,2.03-.54.65-.87,1.09-.98,1.3-.11.11-.16.27-.16.49,0,.54.46,1.17,1.38,1.87.92.71,1.95,1.44,3.09,2.2,1.14.76,2.25,1.46,3.34,2.12,1.08.65,1.79,1.14,2.12,1.46h-19.53c-.11,0-.3.22-.57.65-.27.43-.46.76-.57.98l-1.14,2.12c-.65-.54-1.28-1.17-1.87-1.87-.6-.7-1.06-1.49-1.38-2.36-1.3,1.63-2.93,2.77-4.88,3.42-1.95.65-3.91.92-5.86.81.54.87,1.38,1.74,2.52,2.6,1.14.87,2.41,1.68,3.83,2.44,1.41.76,2.79,1.46,4.15,2.12,1.36.65,2.52,1.19,3.5,1.63l.16,3.26c0,2.06-.71,3.66-2.12,4.8-1.41,1.14-3.15,2.01-5.21,2.6-2.06.59-4.18.98-6.35,1.14-2.17.16-4.07.24-5.7.24l-3.58-.16-1.63-1.14v-23.28h-37.44c-.22-.22-.38-.43-.49-.65-.11-.22-.22-.38-.33-.49-.11-.11-.16-.27-.16-.49-.54-.87-.87-1.44-.98-1.71-.11-.27-.16-.79-.16-1.55,0-.33.05-.87.16-1.63.11-.76.43-1.14.98-1.14h11.88v-22.14h-3.26c-1.19,2.28-2.96,5.1-5.29,8.46-2.33,3.37-4.99,6.89-7.98,10.58-2.99,3.69-6.24,7.38-9.77,11.07-3.53,3.69-7.08,7-10.66,9.93-3.58,2.93-7.08,5.32-10.5,7.16-3.42,1.84-6.59,2.77-9.52,2.77-.33,0-.49-.06-.49-.16-.87-1.3-1.3-2.23-1.3-2.77-.22.22-.52.35-.9.41-.38.05-1,.08-1.87.08,0,2.49-.81,4.23-2.44,5.21-1.63.98-4.02,1.46-7.16,1.46h-.49c-.22-.11-.6-.46-1.14-1.06-.54-.6-.87-.95-.98-1.06-.11-.11-.16-.33-.16-.65,0-.98.76-2.06,2.28-3.26,1.52-1.2,3.42-2.47,5.7-3.83,2.28-1.36,4.72-2.77,7.32-4.23,2.6-1.46,5.05-2.98,7.32-4.56,2.28-1.57,4.18-3.2,5.7-4.88,1.52-1.68,2.28-3.44,2.28-5.29,0-.11-.38-.65-1.14-1.63-.76-.98-1.71-2.12-2.85-3.42s-2.39-2.71-3.74-4.23c-1.36-1.52-2.66-2.93-3.91-4.23-1.25-1.3-2.36-2.36-3.34-3.17-.98-.81-1.63-1.22-1.95-1.22h-1.63c-1.74,1.41-2.9,2.52-3.5,3.34-.6.81-.9,2.03-.9,3.66v1.79c.11.11.33.46.65,1.06.33.6.49.95.49,1.06s-.14.3-.41.57c-.27.27-.52.46-.73.57-1.2.87-2.31,1.33-3.34,1.38-1.03.06-2.42.08-4.15.08v-2.6c2.93-3.26,5.48-6.54,7.65-9.85,2.17-3.31,4.12-6.65,5.86-10.01,1.73-3.36,3.31-6.78,4.72-10.25,1.41-3.47,2.87-6.94,4.39-10.42-.65.98-1.68,1.46-3.09,1.46h-15.3c-.65,0-1.17-.36-1.55-1.08-.38-.72-.68-1.5-.9-2.33-.22-.83-.35-1.64-.41-2.42-.06-.78-.08-1.22-.08-1.33h21.48v-18.89l-2.28-1.62h-18.39l-.33-.65c-.11-.22-.24-.38-.41-.49-.16-.11-.3-.27-.41-.49-.11-.11-.19-.3-.24-.57-.06-.27-.14-.51-.24-.73-.11-.33-.27-.6-.49-.81-.11-.22-.16-.46-.16-.73s-.06-.62-.16-1.06v-.98h5.7v-4.88c.87-.87,2.09-2.49,3.66-4.88,1.57-2.39,3.31-5.1,5.21-8.14,1.9-3.04,3.83-6.24,5.78-9.6,1.95-3.36,3.74-6.43,5.37-9.2,1.63-2.77,2.95-5.05,3.99-6.84,1.03-1.79,1.6-2.69,1.71-2.69.87,0,2.22.16,4.07.49,1.84.33,3.85.76,6.02,1.3,2.17.54,4.42,1.14,6.75,1.79,2.33.65,4.45,1.33,6.35,2.03,1.9.71,3.44,1.38,4.64,2.03,1.19.65,1.79,1.2,1.79,1.63,0,1.09-.49,1.87-1.46,2.36s-2.03.98-3.17,1.46c-1.14.49-2.17,1.11-3.09,1.87-.92.76-1.38,1.95-1.38,3.58h63.31c1.41,0,2.55-.68,3.42-2.03.87-1.36,1.71-2.87,2.52-4.56.81-1.68,1.73-3.2,2.77-4.56,1.03-1.36,2.36-2.03,3.99-2.03s3.39.63,5.29,1.87c1.9,1.25,3.74,2.77,5.53,4.56s3.47,3.61,5.05,5.45c1.57,1.85,2.9,3.36,3.99,4.56.22.44.33.81.33,1.14,0,.65-.22,1.09-.65,1.3-.44.22-.92.38-1.46.49-.54.11-1.06.27-1.55.49-.49.22-.79.71-.9,1.46h-14.16v14.32c.87,0,1.68-.33,2.44-.98.76-.65,1.44-1.41,2.03-2.28.59-.87,1.16-1.79,1.71-2.77.54-.98,1.03-1.73,1.46-2.28,0-.22.16-.49.49-.81.11-.11.27-.22.49-.33.22,0,.59.14,1.14.41.54.27.92.52,1.14.73.54.43,1.25,1.09,2.12,1.95.87.87,1.71,1.71,2.52,2.52.81.81,1.76,1.82,2.85,3.01v1.14c0,.33-.33.54-.98.65-.65.11-1.38.22-2.2.33-.81.11-1.6.16-2.36.16h-1.46c-1.2,0-2.31-.19-3.34-.57-1.03-.38-2.09-.57-3.17-.57h-.49c-.54.22-.92.6-1.14,1.13,1.52,3.24,2.6,6.48,3.25,9.71-1.95.54-3.53,1.19-4.72,1.94-1.2.76-1.79,2.22-1.79,4.37,0,1.19.19,2.24.57,3.16.38.92.57,1.92.57,2.99v.49c-.11.11-.49.62-1.14,1.54-.65.92-1.03,1.49-1.14,1.7v.97c0,.76.13,1.51.41,2.27.27.76.9,1.13,1.87,1.13.43,0,.76-.05.98-.16.11-1.38.51-2.78,1.22-4.21.7-1.43,1.93-2.14,3.66-2.14,1.52,0,2.85.57,3.99,1.71,1.14,1.14,2.17,2.52,3.09,4.15.92,1.63,1.82,3.26,2.69,4.88.87,1.63,1.79,2.93,2.77,3.91h-8.46c-.11.11-.16.33-.16.65-.22.54-.22.87,0,.98,0,.22.13.63.41,1.22.27.6.46.95.57,1.06.33.22.98.79,1.95,1.71.98.92,2.01,1.93,3.09,3.01,1.08,1.09,2.09,2.12,3.01,3.09.92.98,1.49,1.63,1.71,1.95v2.44ZM214.49,57.21c1.08,0,1.73-.46,1.95-1.38.22-.92.33-1.71.33-2.36s-.08-1.3-.24-1.95-.63-.98-1.38-.98c-.33,0-.54.06-.65.16l-10.74,5.37v1.14h10.74ZM217.74,35.4c-.22-.43-.54-.76-.98-.98-.11-.11-.33-.16-.65-.16-.22,0-.38.06-.49.16.11.44.49.76,1.14.98,0,.11.16.16.49.16.22,0,.38-.05.49-.16ZM221,107.02c-.11-.33-.27-.84-.49-1.55-.22-.7-.46-1.44-.73-2.2-.27-.76-.63-1.41-1.06-1.95-.44-.54-.92-.81-1.46-.81-.65,0-1.09.24-1.3.73-.22.49-.33,1-.33,1.55,0,.98.59,1.95,1.79,2.93,1.19.98,2.22,1.46,3.09,1.46.22,0,.38-.05.49-.16ZM222.14,78.86c-.22-.11-.6-.16-1.14-.16-.87,0-1.49.33-1.87.98-.38.65-.65,1.44-.81,2.36-.16.92-.27,1.95-.33,3.09-.06,1.14-.19,2.2-.41,3.17.76-1.52,1.49-3.09,2.2-4.72.7-1.63,1.49-3.2,2.36-4.72ZM218.88,37.68c.54,0,.81-.38.81-1.14s-.27-1.14-.81-1.14-.81.38-.81,1.14.27,1.14.81,1.14ZM237.27,26.78c-.44.11-.76.49-.98,1.14-.11,0-.16.16-.16.49s.05.49.16.49c.22.33.73.9,1.55,1.71.81.81,1.38,1.33,1.71,1.55-.22.65-.54,1.03-.98,1.14-.44.11-.87.16-1.3.16-1.09,0-1.98-.41-2.69-1.22-.71-.81-1.6-1.22-2.69-1.22-.54,0-1.3.24-2.28.73s-1.95,1.09-2.93,1.79c-.98.71-1.87,1.44-2.69,2.2-.81.76-1.44,1.41-1.87,1.95,1.41.44,2.63,1.28,3.66,2.52,1.03,1.25,2.3,1.87,3.83,1.87,1.41,0,2.71-.24,3.91-.73,1.19-.49,2.33-1,3.42-1.55,1.08-.54,2.12-1.06,3.09-1.55.98-.49,1.9-.73,2.77-.73s1.49.38,1.87,1.14c.38.76,1,1.14,1.87,1.14.65,0,1.11-.24,1.38-.73.27-.49.41-1,.41-1.55,0-.22-.52-.9-1.55-2.03-1.03-1.14-2.2-2.36-3.5-3.66-1.3-1.3-2.5-2.47-3.58-3.5-1.09-1.03-1.68-1.55-1.79-1.55h-.65ZM224.58,112.55c0-.98-.44-1.74-1.3-2.28v2.28h1.3ZM240.04,109.3c-.87,0-1.93.08-3.17.24-1.25.16-2.5.49-3.74.98-1.25.49-2.31,1.14-3.17,1.95-.87.81-1.3,1.93-1.3,3.34.11.22.22.38.33.49.33.33.6.49.81.49.54.44,1.44,1.11,2.69,2.03,1.25.92,2.3,1.38,3.17,1.38.98,0,1.76-.49,2.36-1.46.59-.98,1.03-2.06,1.3-3.26.27-1.19.46-2.39.57-3.58.11-1.19.16-2.06.16-2.6ZM248.34,121.83c0-.54-.08-1.16-.24-1.87-.16-.7-.68-1.06-1.55-1.06-1.19,0-2.22.6-3.09,1.79-.87,1.2-1.63,2.6-2.28,4.23-.65,1.63-1.14,3.25-1.46,4.88-.33,1.63-.49,2.88-.49,3.74,1.08,0,2.17-.43,3.26-1.3,1.08-.87,2.06-1.93,2.93-3.17.87-1.25,1.57-2.52,2.12-3.82.54-1.3.81-2.44.81-3.42ZM245.09,98.88c0-.22-.06-.38-.16-.49-.98.33-2.01.9-3.09,1.71-1.09.81-1.63,1.82-1.63,3.01,1.08,0,2.03-.46,2.85-1.38.81-.92,1.44-1.65,1.87-2.2.11-.11.16-.33.16-.65ZM243.78,40.94l-.98-1.14-1.14,1.14v17.58c.33,0,.76-.11,1.3-.33.54-.22.81-.54.81-.98v-16.28ZM241.67,85.86c.76,0,1.49-.23,2.2-.69.7-.46,1.06-1.1,1.06-1.91.22.56.6.86,1.14.91.54.05,1.08.07,1.63.07.43,0,1.25-.48,2.44-1.44,1.19-.96,2.36-2.03,3.5-3.21,1.14-1.18,2.17-2.36,3.09-3.53.92-1.18,1.38-2.03,1.38-2.57s-.06-.91-.16-1.12c-.98.87-2.03,1.46-3.17,1.79-1.14.33-2.31.57-3.5.73-1.2.16-2.39.44-3.58.81-1.2.38-2.28,1.06-3.26,2.03v-10.74h-2.77v18.88ZM250.29,52.82c.54,0,.81-.35.81-1.06s-.27-1.06-.81-1.06-.81.35-.81,1.06.27,1.06.81,1.06ZM254.69,106.04c.54,0,.81-.38.81-1.14s-.27-1.14-.81-1.14-.81.38-.81,1.14.27,1.14.81,1.14ZM265.59,52.49c0-.87-.03-1.76-.08-2.69-.06-.92-.41-1.71-1.06-2.36-.43.54-1.14.95-2.12,1.22-.98.27-1.95.49-2.93.65-.98.16-1.82.33-2.52.49-.71.16-1.06.46-1.06.9,0,3.26.41,6.51,1.22,9.77.81,3.26,1.49,6.51,2.03,9.77.54-.43,1.19-1.46,1.95-3.09.76-1.63,1.46-3.39,2.12-5.29.65-1.9,1.22-3.74,1.71-5.53s.73-3.06.73-3.82ZM293.75,92.37h-29.13c0-1.19.16-2.36.49-3.5s.49-2.36.49-3.66c0-.87-.11-1.63-.33-2.28-.22-.65-.87-.98-1.95-.98-.44,0-.76.06-.98.16-.54,2.71-1.11,4.88-1.71,6.51-.6,1.63-1.87,3.09-3.83,4.39v.49c0,.87.41,1.9,1.22,3.09.81,1.2,1.79,2.33,2.93,3.42,1.14,1.09,2.33,1.98,3.58,2.69,1.25.71,2.3,1.06,3.17,1.06h26.04v-11.39ZM270.97,39.47c-.22,0-.81.08-1.79.24-.98.16-1.46.57-1.46,1.22v16.28h3.26v-17.74ZM273.08,83.25h-1.63v-16.28c0-.11-.19-.3-.57-.57-.38-.27-.73-.46-1.06-.57h-.98c-.22.11-.46.3-.73.57-.27.27-.41.46-.41.57v17.25c0,.65.24,1.03.73,1.14.49.11,1.06.14,1.71.08.65-.05,1.27-.05,1.87,0,.6.06.95.41,1.06,1.06v-3.25ZM274.55,127.36c-.54,0-1.11.16-1.71.49-.6.33-.9.81-.9,1.46,0,.33.05.49.16.49.22.65.54,1.03.98,1.14.76-.22,1.19-.73,1.3-1.55.11-.81.16-1.49.16-2.03ZM277.48,54.12c1.08,0,1.73-.38,1.95-1.14.22-.76.33-1.52.33-2.28,0-.65-.06-1.38-.16-2.2-.11-.81-.65-1.22-1.63-1.22-.22,0-.38.06-.49.16v6.67ZM288.38,119.06c.54-.33.87-.7.98-1.14.11,0,.16-.16.16-.49s-.06-.54-.16-.65c-.44-1.19-.81-2.12-1.14-2.77-.33-.65-.71-1.25-1.14-1.79-.43-.54-.92-.81-1.46-.81-.98,0-1.68.57-2.12,1.71-.43,1.14-.65,2.09-.65,2.85,0,1.09.33,1.71.98,1.87.65.16,1.79.57,3.42,1.22h1.14ZM294.89,113.53c-.11-.11-.22-.27-.33-.49-.33-.33-.6-.49-.81-.49-.11-.11-.27-.16-.49-.16-.33,0-.54.06-.65.16l-.49.49c-.11.22-.27.38-.49.49v20.67c0,.11.13.3.41.57.27.27.46.46.57.57h1.14c.22-.11.46-.3.73-.57.27-.27.41-.46.41-.57v-20.67ZM298.15,39.47c-.22,0-.81.08-1.79.24-.98.16-1.46.57-1.46,1.22v16.28c0,.11.27.3.81.57.54.27.98.41,1.3.41.22,0,.46-.13.73-.41.27-.27.41-.46.41-.57v-17.74ZM299.12,67.96c0-.87-.33-1.55-.98-2.03-.65-.49-1.41-.73-2.28-.73v19.04l1.14,1.14,2.12-2.12v-15.3ZM301.4,142.83c-.43.33-1.19,1.06-2.28,2.2-1.09,1.14-1.79,1.87-2.12,2.2.22.11.59.16,1.14.16.98,0,1.84-.22,2.6-.65.76-.43,1.68-.98,2.77-1.63,0-.22-.14-.59-.41-1.14-.27-.54-.52-.92-.73-1.14h-.98ZM319.79,52.82c-3.04-.22-5.07-.84-6.1-1.87-1.03-1.03-1.55-3.01-1.55-5.94,0-1.52.38-2.71,1.14-3.58.76-.87,1.14-1.95,1.14-3.25v-.49l-2.28-2.28h-.98c-.22.11-.79.33-1.71.65-.92.33-1.44.49-1.55.49h-.65c-1.41,0-2.74-.22-3.99-.65-1.25-.43-2.63-.65-4.15-.65,0,2.28.49,4.31,1.46,6.1.98,1.79,2.06,3.61,3.26,5.45,1.19,1.85,2.28,3.77,3.26,5.78.98,2.01,1.46,4.31,1.46,6.92.76,0,1.76-.13,3.01-.41,1.25-.27,2.49-.68,3.74-1.22,1.25-.54,2.3-1.19,3.17-1.95.87-.76,1.3-1.63,1.3-2.6v-.49ZM307.1,134.2c0-.54-.19-1.06-.57-1.55-.38-.49-.84-.73-1.38-.73-.22,0-.38.06-.49.16v2.12h2.44ZM321.91,97.25c.54,0,.81-.35.81-1.06s-.27-1.06-.81-1.06-.81.35-.81,1.06.27,1.06.81,1.06ZM327.44,25.64c-.22-.54-.52-.87-.9-.98-.38-.11-.84-.16-1.38-.16-.44,0-.76.06-.98.16.11.54.38.87.81.98.43.11.87.16,1.3.16s.81-.05,1.14-.16ZM327.44,72.35c.11-.43.43-.81.98-1.14h1.14c.43.33.81.71,1.14,1.14h-3.26ZM331.68,74.47c-.54,0-.81-.35-.81-1.06s.27-1.06.81-1.06.81.35.81,1.06-.27,1.06-.81,1.06ZM333.95,75.6c-.54-.22-.92-.6-1.14-1.14h1.14c.54.33.87.71.98,1.14h-.98ZM341.44,80.98c.54,0,.81.38.81,1.14s-.27,1.14-.81,1.14-.81-.38-.81-1.14h-.16c-.76,0-1.03-.38-.81-1.14h-.33c-.54,0-.81-.33-.81-.98h-.33c-.54,0-.81-.38-.81-1.14h-.16c-.76,0-1.03-.38-.81-1.14h-.33c-.54,0-.81-.35-.81-1.06s.27-1.06.81-1.06c.76,0,1.03.38.81,1.14h.33c.54,0,.81.33.81.98h.16c.54,0,.81.38.81,1.14h.33c.76,0,1.03.38.81,1.14h.33c.54,0,.81.33.81.98h.16ZM340.47,64.7c-.11.33-.3.49-.57.49s-.46-.16-.57-.49c-.11-.33.05-.49.49-.49s.65.16.65.49ZM342.58,54.93c-.54,0-.81-.35-.81-1.06s.27-1.06.81-1.06.81.35.81,1.06-.27,1.06-.81,1.06ZM347.95,88.63c.11.11.16.27.16.49,0,.33-.06.54-.16.65-.22.54-.54.87-.98.98-.11.11-.33.16-.65.16-.22,0-.38-.05-.49-.16l2.12-2.12ZM346.98,88.63c-.54,0-.81-.35-.81-1.06s.27-1.06.81-1.06.81.35.81,1.06-.27,1.06-.81,1.06Z"/>
  </g>
</svg>