<?xml version="1.0" encoding="UTF-8"?>
<svg id="Layer_2" data-name="Layer 2" xmlns="http://www.w3.org/2000/svg" viewBox="0 0 379.85 187.02">
  <defs>
    <style>
      .cls-1 {
        fill: #231916;
      }

      .cls-2 {
        fill: #d93017;
      }
    </style>
  </defs>
  <g id="_レイヤー_1" data-name="レイヤー 1">
    <rect class="cls-1" width="379.85" height="187.02"/>
    <g>
      <path class="cls-2" d="M49.95,165.44l-2-3.08c-.62-1.08-.46-2,.62-2.47l.93-.31c.77-.46,1.23-.92,1.39-1.54.15-.62,0-1.23-.46-2-.46-.77-1.08-1.39-1.54-2-.46-.62-1.08-1.23-1.54-1.85-.46-.46-.92-.93-1.23-1.39-.46-.46-.77-.93-1.08-1.39-1.7-1.7-1.39-3.08.62-4.16,4.16-2.62,7.71-5.4,10.64-8.64,2.93-3.08,5.86-6.63,8.48-10.49.77-1.54.62-2.93-.77-4.01l-.92-.62c-.77-.77-1.39-.62-1.54.46-.31,1.08-.92,1.39-1.85.93l-12.65-6.94c-1.08-.62-1.85-1.54-2.31-2.62-.46-1.08-.62-2.31-.31-3.55.46-1.7.77-3.39,1.23-5.09.31-1.7.77-3.55,1.23-5.55l2.93-12.64c.31-1.39.15-2.31-.31-2.78-.62-.46-1.54-.31-2.78.15l-.77.31c-.92.46-1.54.46-2,0-.46-.31-.62-1.08-.46-2.16l1.39-6.94c.46-2.31-.46-3.55-2.78-3.55h-1.7c-1.54,0-2.78-.46-3.7-1.54-1.08-.93-1.54-2.16-1.54-3.7v-9.87c0-1.7.46-3.08,1.54-4.16.92-.92,2.31-1.39,4.01-1.39h4.93c2.62,0,4.16-1.23,4.63-3.85l.46-2.78c0-.62.46-1.08,1.23-1.54.15-.15.46-.46.77-.77.15-.15.31-.46.31-.77.31-1.7.62-3.55.92-5.24l.93-5.09.77-5.71c.15-1.54.93-2.78,2-3.7,1.08-.77,2.47-1.08,4.01-.92l10.18.92c1.7.15,2.93.77,3.7,1.85s1.08,2.62.92,4.32l-.92,4.47c0,.62-.46,1.08-1.23,1.54-.77.46-1.23.92-1.23,1.54l-2,10.79c-.31,1.39,0,2.62.77,3.55.77.93,1.85,1.39,3.39,1.39h5.24l2.78-.31c.46-.15,1.08-.15,1.54,0l10.02,1.54c1.7.31,2.47,1.23,2.31,2.93l-.31,4.78c-.15,1.7.46,2.31,1.85,1.54l2-.93c1.08-.46,2-.46,2.78,0,.77.46,1.08,1.39.92,2.78-.62,6.32-1.39,12.49-2.16,18.66-.93,6.32-2.31,12.49-4.01,18.5l-2.78,9.41c-.31.77-.62,1.7-.77,2.47-.31.77-.62,1.7-.92,2.47-.62,2.47,0,4.47,1.7,6.17.77.77,1.39,1.39,2.16,2,.62.62,1.23,1.23,2,1.85.15.15.31.15.46.31,0,.15.15.31.31.46l1.39,1.39c.15.15.15.31.31.31.15.15.15.31.31.46,1.7,2,1.7,4.16,0,6.32l-2.47,3.24c-.31.46-.62.77-1.08,1.08s-.77.62-1.23.77l-2.31.92c-.77.31-1.54.93-2.31,1.85l-5.71,7.71c-.15.46-.46.77-.93.77s-.77-.31-.92-.77l-2.16-2.62c-.92-.93-.77-1.7.46-2.16l1.85-.77c1.08-.31,1.23-.93.46-1.85l-2.31-2.47c-.77-.77-1.39-.62-2.16.15-1.08,1.39-2,2.78-3.08,4.16-1.08,1.39-2.16,2.78-3.24,4.01-.46.46-1.08.93-1.85,1.39l-2.62,1.23c-.77.46-1.39.77-1.85,1.23-4.78,5.09-10.33,9.71-16.81,14.19-.92.77-1.7.46-2.16-.62ZM76.16,102.21c1.54-4.78,2.78-9.71,3.85-14.65,1.08-4.93,1.85-9.87,2.47-14.96.15-1.39,0-2.31-.62-2.78-.62-.46-1.54-.31-2.78.15l-2.93,1.23c-.77.15-1.54.31-2.16.31h-5.86c-1.39,0-2.31.62-2.62,2-.31,1.54.15,2,1.54,1.23l2.16-.93c1.08-.46,2-.62,2.62-.15.62.46.77,1.39.46,2.78l-1.85,9.25-2.62,10.95c-.31,1.54.15,2.78,1.54,3.55l4.01,2.78c1.39,1.08,2.31.77,2.78-.77ZM107.16,165.44c-1.7,0-3.08-.77-4.32-2.16-1.39-1.54-2.93-3.08-4.63-4.47-1.7-1.54-3.24-2.93-4.93-4.32-2.93-2.47-2.78-4.78.31-7.09,5.4-3.55,10.49-7.87,14.96-12.65.46-.46,1.08-.92,1.85-1.39l2.93-1.23c.77-.46,1.39-.93,1.85-1.39,4.01-4.63,7.25-9.25,9.56-14.03s4.32-10.02,5.86-15.88c.46-2,.31-3.55-.62-4.78-1.08-1.08-2.62-1.7-4.63-1.7l-13.88-.15h-3.7c-2.62,0-3.85-1.23-3.85-3.86v-11.26c0-1.7.46-3.08,1.54-4.16.92-.93,2.31-1.39,4.01-1.39h18.97c1.7,0,3.08-.46,4.16-1.54.93-.92,1.39-2.31,1.39-4.01v-17.89c0-1.54-.77-2.16-2.31-2l-1.54.15-1.54.46-6.32,2.78-1.54.46-17.42,1.54c-1.54.15-2.47-.46-2.78-2.16l-.46-2.31-3.55-10.33-1.08-2.31c-.31-.62-.31-1.23-.15-1.7s.77-.62,1.54-.62c10.18-1.08,20.51-2.47,30.84-4.16,10.33-1.7,20.2-4.32,29.92-7.86,2.47-.77,4.63-.31,6.32,1.54l3.55,4.01c.77.93,1.85,1.54,2.93,1.85,1.08.31,2.31.15,3.39-.31l.93-.46c1.08-.46,2.31-.62,3.39-.31,1.08.31,2,.92,2.78,1.7l1.23,1.23c1.08,1.39,1.54,2.62,1.39,3.7-.31,1.08-1.23,2-2.93,2.62-6.63,2-13.26,3.86-19.89,5.55-2.93.77-4.32,2.47-4.32,5.4v22.82c0,1.39.77,2.16,2.16,2.16h2.16l22.05.15c1.7,0,3.08.46,4.16,1.39.93,1.08,1.39,2.47,1.39,4.16v9.56c0,1.7-.46,3.08-1.39,4.01-1.08,1.08-2.47,1.54-4.16,1.54h-19.58c-1.39,0-2.31.31-2.78,1.08-.62.77-.77,1.85-.31,3.08l1.23,4.01c.31.92.62,1.85.92,2.78.15.93.46,1.85.93,2.62.77,1.7.15,2.93-1.54,3.7-1.7.77-2.31,2.16-1.54,3.86,2,4.78,4.47,9.25,7.4,13.72,2.78,4.47,6.01,8.48,9.56,12.03,1.23,1.08,2.47,1.23,3.86.62l.31-.15c1.08-.46,2.16-.46,3.08.31l2.78,2.31c1.08.77,1.23,1.54.15,2.31l-2.78,2.78c-.77.77-1.54,1.7-2.31,2.47s-1.39,1.7-2.16,2.62l-5.71,7.87c-.46.77-1.23,1.23-2.16,1.23-.77,0-1.39-.31-1.85-.77-.77-.77-1.54-1.39-2.31-2.16s-1.39-1.39-2.16-2.16c-.77-.93-1.54-1.85-2.31-2.78-.77-.93-1.7-1.85-2.47-2.93-.92-1.08-2-1.39-3.24-.77-1.39.46-2.47.15-3.24-1.08-1.85-2.78-3.55-5.71-5.09-8.63-1.54-2.93-3.08-6.01-4.47-8.94-.93-2.16-1.85-3.24-2.93-3.24s-2.16.93-3.24,2.93c-3.55,6.63-7.71,12.34-12.34,17.27-4.63,5.09-10.02,9.71-16.19,14.03-1.08.77-2,1.08-3.08,1.08Z"/>
      <path class="cls-2" d="M230.21,164.82c-1.08.92-2.47,1.39-4.16,1.39h-11.26c-3.24,0-4.78-1.54-4.78-4.78v-1.85c0-2,.92-3.24,2.62-4.01,1.7-.77,2.62-2.16,2.62-4.16v-31.61c0-1.08-.31-1.7-.77-2.16-.62-.31-1.39-.31-2.16.15-2,.77-3.08.15-3.08-2v-30.07c0-1.39,0-2.16-.15-2.16s-.46.77-.62,2.16l-.93,4.63-.92,4.16c-.31,1.23-.92,2-1.85,2.47-1.08.46-2.16.46-3.39,0l-11.41-4.32c-1.23-.46-1.54-1.23-1.08-2.47.15-.46.46-1.08.92-1.54.31-.46.77-.77,1.23-.92l1.85-.62c.77-.31,1.39-.77,2-1.54.46-.62.93-1.39,1.08-2.16,1.23-4.78,2.16-9.56,2.78-14.34.62-4.78,1.08-9.56,1.39-14.5.15-1.7.92-3.08,2-4.16,1.08-.93,2.62-1.23,4.32-1.08l3.08.31c1.7.15,3.08-.15,4.16-.92.92-.77,1.39-2.16,1.39-3.86v-2.16c0-2.31-1.08-2.93-3.08-2.16-1.08.46-1.85.62-2.31.15-.62-.46-.92-1.08-.92-2.16v-12.64c0-1.7.46-3.08,1.54-4.16.92-.92,2.31-1.39,4.01-1.39h10.49c1.7,0,3.08.46,4.16,1.39.93,1.08,1.39,2.47,1.39,4.16v3.08c0,2.16,1.08,2.78,3.24,2,2-.77,3.08-.15,3.08,2v8.94c0,2.31.92,3.55,2.78,3.55.62,0,1.23-.15,2-.46h.15c1.39-.46,2.62-.62,3.85-.15,1.08.46,2,1.39,2.47,2.78l1.85,4.47c.46,1.08.92,2.16,1.39,3.08.31,1.08.62,2,1.08,3.08.46.92.46,1.7.15,2.47-.46.77-1.08,1.39-1.85,1.85l-.31.15c-1.85.77-2.47,2.16-1.7,4.01l1.85,5.09c.46,1.54,0,2.62-1.39,3.39l-9.56,4.32c-.77.46-1.7.62-2.62.62-2.16,0-3.55-1.23-4.16-3.7-.46-1.54-.77-2.31-1.23-2.31s-.62.93-.62,2.62v29.45c0,.92.31,1.54.93,2,.46.46,1.23.31,2.16-.15.77-.46,1.54-.46,2.16,0,.46.46.77,1.08.77,2v32.54c0,2-.93,3.24-2.62,4.01-1.7.77-2.62,2.16-2.62,4.16v9.87c0,1.7-.46,3.08-1.39,4.16ZM245.63,100.67l-3.7-7.25-4.47-6.78c-1.08-1.39-.77-2.16.93-2.47,10.33-2,19.89-5.09,28.53-9.25,1.39-.46,2-1.23,2.16-2.31.15-.92-.31-2-1.23-3.08-.46-.46-.93-1.08-1.39-1.7-.46-.46-1.08-1.08-1.54-1.7-.62-.77-1.23-1.7-1.85-2.47-.77-.77-1.39-1.7-1.85-2.47-.62-.77-.77-1.54-.46-2.31.15-.62.77-1.08,1.54-1.54l.15-.15c.77-.31,1.39-.77,1.7-1.54.15-.62,0-1.23-.46-2l-3.08-5.24c-1.08-1.7-.62-2.78,1.39-3.55l1.39-.46c1.23-.46,1.85-.77,1.85-1.08-.15-.15-.77-.31-2.16-.31h-5.4c-1.7,0-3.08-.46-4.01-1.54-1.08-.92-1.54-2.31-1.54-4.01v-8.33c0-1.7.46-3.08,1.54-4.16.93-.92,2.31-1.39,4.01-1.39h58.6c.46,0,.77,0,.93-.15l2-.31c.92-.15,2-.15,3.08.31l6.94,2.78c2,.77,2,1.7,0,2.47l-1.54.77c-1.08.31-1.08.62,0,1.08,1.08.46,1.39,1.23,1.08,2.16-4.01,14.19-10.95,26.83-20.66,38.09-1.08,1.39-.92,2.47.46,3.24h.15l.15.15h.15c1.23.77,2.62.77,4.16,0l1.85-.77c1.39-.77,2.93-.77,4.32,0,3.55,1.39,7.25,2.62,10.79,3.7,3.55,1.08,7.25,2,10.95,2.93,1.85.31,2.16,1.08.77,2.47-.46.46-1.08,1.23-1.7,2l-7.56,10.33-1.39,2.47c-.77,1.7-2.16,2.16-4.16,1.7-5.55-1.54-10.79-3.39-15.73-5.55-4.93-2-9.56-4.47-14.03-7.25-.62-.46-1.54-.77-2.93-.77-1.23,0-2.31.31-3.08.77-5.86,3.39-12.03,6.17-18.35,8.48-6.48,2.31-13.11,4.32-19.89,5.86h-.46l-.15.15-3.39,1.39c-1.54.77-2.62.31-3.39-1.39ZM284.49,163.13h-37.63c-1.7,0-3.08-.46-4.01-1.39-1.08-1.08-1.54-2.47-1.54-4.16l.15-8.94c0-1.7.46-2.93,1.54-4.01.92-1.08,2.16-1.54,3.86-1.54h25.13c1.7,0,3.08-.46,4.16-1.54.92-.92,1.39-2.31,1.39-4.01v-6.32c0-1.23-.62-1.85-1.85-1.85s-1.39-.31-.31-.77l.77-.31c.77-.31,1.23-.62,1.23-.77-.15-.15-.62-.31-1.39-.31h-17.27c-1.7,0-3.08-.46-4.01-1.54-1.08-.93-1.54-2.31-1.54-4.01v-8.63c0-1.7.46-3.08,1.54-4.16.92-.92,2.31-1.39,4.01-1.39h18.5c1.7,0,3.08-.46,4.16-1.54.92-.93,1.39-2.31,1.39-4.01v-1.7c0-1.7.46-3.08,1.54-4.16.92-.93,2.31-1.39,4.01-1.39h11.41c1.7,0,3.08.46,4.16,1.39.92,1.08,1.39,2.47,1.39,4.16v1.7c0,1.7.46,3.08,1.54,4.01.93,1.08,2.31,1.54,4.01,1.54h12.03c1.85,0,2,.31.31,1.08-1.7.77-1.7,1.08.15,1.08h1.54c2.93,0,4.32,1.39,4.32,4.32v9.87c0,1.7-.46,3.08-1.39,4.01-1.08,1.08-2.47,1.54-4.16,1.54h-18.04c-1.7,0-3.08.46-4.01,1.39-1.08,1.08-1.54,2.47-1.54,4.16v2.62c0,1.7.46,3.08,1.54,4.01.93,1.08,2.31,1.54,4.01,1.54h24.98c.77,0,1.54-.15,2.16-.46l1.54-.62c.62-.31,1.39-.46,2.16-.46h1.39c1.54,0,2.31.77,2.31,2.31v12.18c0,1.7-.46,3.08-1.39,4.16-1.08.92-2.47,1.39-4.16,1.39h-44.41c-.77,0-1.54.15-2.16.46l-1.39.62c-.62.31-1.39.46-2.16.46ZM247.17,141.07h-.15c-.15,0-.31,0-.15-.15h.31q.15,0,0,.15ZM287.73,59.65c.92,0,1.85-.46,2.62-1.23,2.47-2.47,4.78-5.24,6.79-8.48.92-1.23,1.23-2.31.77-3.08-.46-.77-1.54-1.23-3.08-1.23h-1.85c-2,0-2.16-.46-.31-1.39,2-.77,1.85-1.23-.31-1.23h-9.1c-1.08,0-1.7.15-1.85.62-.31.46-.15,1.23.46,2v.15c1.08,1.7.77,2.93-.92,3.7-.93.46-1.54,1.08-1.7,1.7-.15.77,0,1.39.77,2.16.46.46.77.92,1.23,1.39.46.46.92.92,1.39,1.39l2.47,2.47c.93.77,1.85,1.08,2.62,1.08Z"/>
    </g>
  </g>
</svg>