<?xml version="1.0" encoding="UTF-8"?>
<svg id="Layer_2" data-name="Layer 2" xmlns="http://www.w3.org/2000/svg" viewBox="0 0 225.91 351.74">
  <defs>
    <style>
      .cls-1 {
        stroke: #e83c0d;
        stroke-miterlimit: 10;
        stroke-width: .14px;
      }

      .cls-1, .cls-2 {
        fill: #e83c0d;
      }

      .cls-3 {
        fill: #231916;
      }
    </style>
  </defs>
  <g id="_レイヤー_1" data-name="レイヤー 1">
    <g>
      <path class="cls-3" d="M183.09,335.84c.06-.1.09-.18.09-.28,0-.13-.01-.24-.06-.33-.08-.19-.26-.33-.46-.43-.4-.2-.9-.3-1.01-.43-.05.24-.04.48,0,.64.04.1.11.21.2.3.17.22.42.24.63.37.41.27.81.24.61.16Z"/>
      <path class="cls-3" d="M154.27,338.05l.77-.48c-1.69.1-3.64-.09-5.64-.4,1.7.44,3.35.75,4.87.88Z"/>
      <path class="cls-3" d="M114.6,339.26c.92.16,1.84-.33,2.4-1.31.18-.29.35-.6.52-.93l.13-.25.06-.13.12-.19c.17-.27.33-.54.5-.81.17-.27.34-.55.52-.83.19-.28.43-.57.66-.85.23-.29.46-.57.7-.86.27-.28.57-.56.87-.84.31-.27.59-.57.95-.82.36-.25.73-.5,1.1-.74.74-.5,1.61-.8,2.46-1.16,1.71-.52,3.51-.76,5.02-.64,3.1.18,5.45,1.08,7.24,2.08.34.37.65.75.95,1.13,1.4-.23,2.78-.41,4.14-.6-2.1-.94-4.51-1.95-7.47-2.73-1.54-.35-3.13-.71-5.07-.73-.9-.06-1.99.07-2.97.18-1.06.22-2.09.43-3.11.9-4.2,1.66-6.48,5.26-7.57,7.26-.18.36-.36.72-.53,1.06-.14.27-.27.53-.45.76-.33.47-.74.81-1.15,1.05Z"/>
      <path class="cls-3" d="M99.88,335.05c.46.63-.51.75-.62.76.05,0,.13,0,.8-.01.68,0,1.87.02,3.71-.04-.36-.14-.46-.22-.67-.32-.67-.03-1.59-.09-3.22-.39Z"/>
      <path class="cls-3" d="M103.1,335.44c3.19.09-2.04-1.08,0,0h0Z"/>
      <path class="cls-3" d="M86.67,332.77c1.7.17,3.38.29,5.03.37-.83-.86-4.96-2.24-3.27-2.25-2.48-.45-3.54-.51-3.67-.16-.13.35.67,1.08,1.91,2.04Z"/>
      <path class="cls-3" d="M81.43,333.26c.89.16,1.77.32,2.65.46-.36-.41-.98-.72-2.65-.46Z"/>
      <path class="cls-3" d="M89.67,334.46c-1.85-.19-3.71-.45-5.58-.75.55.68.36,1.6,2.55.47-.69.68.62.24,3.04.28Z"/>
      <path class="cls-3" d="M92.57,335.66c1.28.63,2.78,1.19,3.34,1.6.55.4.17.72-2.41.69,4.78.81,6.76.31,6.49-.21-.28-.56-2.75-1.2-7.41-2.08Z"/>
      <path class="cls-3" d="M115.35,342.53c1.11-.35,2.2-.91,3.1-1.71l.22-.8.14-.81.32-1.7c-.07.41-.37,1.02-.72,1.63-.31.59-.81,1.16-1.31,1.63-1.04.93-2.1,1.43-1.76,1.76Z"/>
      <path class="cls-3" d="M59.13,318.38c-.6.35.46,2.26.38,3.13,1.16.45,2.34.87,3.53,1.28-1.46-1.3-4.23-3.51-3.9-4.41Z"/>
      <path class="cls-3" d="M59.5,321.5c-1.74-.67-3.45-1.39-5.11-2.15,1.92,1.46,3.22,2.17,4,2.43.79.26,1.06.09,1.11-.28Z"/>
      <path class="cls-3" d="M79.47,335.97c3.26.4,6.51.66,9.69.76-3.76-.25-7.6-.71-11.44-1.38l1.75.62Z"/>
      <path class="cls-3" d="M47.82,307.51c.3.16.68.26.98.38.3.12.64.2.98.27-.57-.14-1.01-.39-1.58-.63-.46-.3-1.05-.58-1.51-1,.33.38.77.68,1.13.98Z"/>
      <path class="cls-3" d="M46.74,299.34c.46.88,1.05.38,1.56-.05.51-.44.97-.82,1.21,0,.17-2.35,0-4.89.13-7.32-.52,2.39-1.52,4.57-2.89,7.38Z"/>
      <path class="cls-3" d="M50.35,287.92c-.23.6-.35,1.27-.49,1.93-.09.69-.19,1.38-.22,2.11.13-.64.31-1.27.4-1.95.15-.65.22-1.37.31-2.09Z"/>
      <path class="cls-3" d="M48.06,313.53c.03-.25.07-.67.02-1.26-.07-.6-.25-1.34-.56-2.2-.27.68-.45,1.38-.56,2.17.3.38.68.83,1.1,1.29Z"/>
      <path class="cls-3" d="M46.95,312.31v-.08c-.55-.68-.84-1.22-1.1-1.68-.29-.43-.42-.79-.52-1,.09.17.18.5.46.93.12.22.27.49.44.79.19.29.41.63.72,1.04Z"/>
      <path class="cls-3" d="M48.36,313.86c-.11-.12-.19-.21-.3-.33,0,.24.01.36.3.33Z"/>
      <path class="cls-3" d="M66.11,328.46c-1.73-.33-4.28-1.14-5.72-1.32-1.43-.19-1.85.34.85,2.69,2.74.12-.34-2.45,4.87-1.37Z"/>
      <path class="cls-3" d="M48.6,317.09c1.28,1.34,2.71,2.65,4.22,3.91.17-.44-.26-1.59,1.29-1.05-1.92-.88-3.77-1.84-5.51-2.87Z"/>
      <path class="cls-3" d="M46.3,315.64c.75.5,1.5.99,2.3,1.45-.48-.49-.94-.99-1.36-1.49l-.95.04Z"/>
      <path class="cls-3" d="M45.4,294.68c-.09-2.22.8-4.51,2.06-6.93-1.79,2.36-3.14,5.16-3.85,7.87.42.53,1.04,1.88,1.79-.94Z"/>
      <path class="cls-3" d="M43.79,304.12c-.06-.12-.1-.27-.14-.39-.15.27-.14.46.14.39Z"/>
      <path class="cls-3" d="M65.2,275.55c-.07-.12-.18-.24-.28-.35-.04.1-.07.19-.12.29.13.02.3.03.4.06Z"/>
      <path class="cls-3" d="M43.16,296.01c-.81,2.03-.55,3.39-.09,4.55-.1-1.49.1-3.17.53-4.93-.19-.24-.34-.31-.44.39Z"/>
      <path class="cls-3" d="M54.02,282.02c-.49.24-1.01.51-1.52.87-.53.33-1.04.72-1.56,1.16,1.09-.56,3.15-1.47,3.08-2.02Z"/>
      <path class="cls-3" d="M44.1,303.09c.03.09.07.17.09.26.34-.6.16-.52-.09-.26Z"/>
      <path class="cls-3" d="M44.1,303.09c-.17-.45-.33-.88-.5-1.29-.18-.41-.39-.81-.53-1.23.04,1.22.27,2.3.58,3.17.11-.24.29-.48.45-.65Z"/>
      <path class="cls-3" d="M74.45,271.27c-.16.08-.32.05-.49-.07-.17-.13-.3-.35-.51-.65-.37-.58-.93-1.56-2.04-2.27-1.11-.74-2.48-1.11-3.97-1.49-1.49-.38-3.11-.72-4.7-1.15-3.19.75-3.11,2.62-2.07,4.24,1.15,1.69,2.43,3.62,4.26,5.32.09-.34.21-.69.72-.96.13-.07.3-.14.49-.21.15-.05.33-.11.56-.17.11-.04.37-.11.4-.18.39.02.73.16,1.12.37-.06-.19-.15-.48-.36-.74-.09-.14-.21-.28-.37-.41-.05-.06-.02-.08-.04-.13-.02-.05-.09-.09-.13-.14-.38-.41-1.42-.93-2.46-1.29-.49-.21-1.02-.36-1.41-.54-.21-.1-.37-.17-.48-.24-.12-.07-.22-.15-.3-.23-.15-.16-.18-.33-.04-.5.16-.16.4-.4,1.04-.53,1.94-.12,3.23.02,4.02.28.44.1.66.28.91.4.1.08.15.15.24.23.11.09.21.18.29.27.15.21.27.41.38.61.08.23.16.45.25.7.12.52.3,1.1.32,1.95.13-.93.44-1.13.86-.79.4.34.63,1.26.59,2.29-.01,1.03-.24,2.16-.32,2.96-.04.4-.04.71.03.86.15.13.59.06,1.07-.28.54-2.46,1-4.55.87-6.85.06-.09.18-.06.29.04.09.1.2.26.31.36.22.2.48.17.67-1.06Z"/>
      <path class="cls-3" d="M58.21,276.18l-.71.48-.71.55c.47-.2.92-.39,1.36-.46l.66-.12c.22-.02.44-.01.65-.01.87-.02,1.79.25,2.59.73.16-.1.33-.26.47-.35.13-.08.25-.18.36-.27.06-.11.36-.17.53-.24.19-.07.36-.14.51-.22.57-.28.75-.52.89-.79-.33-.05-.67-.1-1.09-.12l-.59-.05c-.21-.02-.25,0-.38,0-.43-.03-.91.02-1.44.1-1.04.17-2.26.56-3.52,1.23l.41-.48Z"/>
      <path class="cls-3" d="M50.3,283.15c-.09-.6.02-1.32.21-2.03.17-.74.44-1.45.61-2.07.16-.63.25-1.14.05-1.45-.19-.3-.69-.45-1.61-.17-2.34,2.48-2.73,3.73-2.89,4.66-.14.95-.02,1.64-.75,3.49.34-.57.63-1.05.88-1.46.26-.4.5-.72.69-.99.38-.54.62-.81.76-.9.28-.2.1.26-.06.83-.31,1.18-.66,2.58,1.91.03-.98,1.7-1.89,3.19-2.64,4.66,1.06-1.44,2.26-2.69,3.48-3.71-.09.04-.15.07-.22.1l-.02.04s0-.02-.02-.02c-.43.19-.63.21-.23-.07,0-.04.07-.13.1-.18-.15-.2-.2-.47-.24-.75,2.1-1.92.61-.06.24.75.05.08.06.19.13.25.01,0,.03,0,.04-.01,1.71-2.71,3.82-5.15,6.07-6.94-1.63.77-3.7,2.24-6.48,5.94Z"/>
      <path class="cls-3" d="M53.68,329.74c-.25-.34-.16-.43-.12-.56-.79-.26-1.14-.29.12.56Z"/>
      <path class="cls-3" d="M50.02,326.01c.88.32,1.86.2,4.19,1.92,1.85,1.79-.46.7-.66,1.25,1.76.58,5.89,2.14,1.67-1.44l-.86-.26c-1.92-1.58-3.79-3.76-4.96-5.51-1.18-1.75-1.7-3.04-1.33-2.87,0,2.05.19,3.72,1.95,6.91Z"/>
      <path class="cls-3" d="M38.71,303.42c-.45-2.87-.38-5.95.16-9.03-.91,1.4-1.68,2.89-2.39,4.46l.93-.14c-.21,1.31-.29,2.24-.21,2.89.06.65.16,1.02.35,1.23.35.43.8.3,1.16.59Z"/>
      <path class="cls-3" d="M65.61,276.5c-.32.58-.61,1.15-.86,1.73.2-.18.46-.36.63-.55l.2-.28s.1-.1.09-.15c0-.05-.01,0,.02-.13l.17-.53c.12-.35.25-.7.39-1.04l.23-.51c.09-.18.1-.27.16-.41l.16-.38.09-.19.02-.05v-.02s.02-.01.02-.01h0c1.15-2.32-1.56,3.15-1.28,2.59h0s.03-.01.03-.01l.21-.1c.25-.1.51-.19.76-.23-.14-.05-.28-.09-.43-.11-.07-.02-.15-.02-.25-.02h-.07s-.02,0-.02,0h0s0,0,0,0c.47-.95-1.05,2.12,1.05-2.13h0s0,.01,0,.01l-.02.04-.07.15c-.09.2-.17.39-.24.59-.05.17-.21.48-.31.73-.11.26-.22.53-.31.8-.03.08-.02.07-.03.1-.12.05-.23.09-.33.12Z"/>
      <path class="cls-3" d="M66.45,279.57c-.28.1-.57.21-.86.34.09.17.15.41.16.71.23-.31.47-.66.71-1.05Z"/>
      <path class="cls-3" d="M143.52,36.01c1.16-.3,2.34-.57,3.51-.81-1.68.27-2.74.54-3.51.81Z"/>
      <path class="cls-3" d="M118.45,44.81l-.12,1.04c.81-1.09,1.1-1.63.12-1.04Z"/>
      <path class="cls-3" d="M39.69,130.49c2.66-.06,5.1,2,4.54.25-.32-.52-.68-1.06-1.07-1.57-1.5.75-2.46,1.09-3.46,1.33Z"/>
      <path class="cls-3" d="M57.47,85.01c.45.13.92.26,1.38.39,1.04-.73,1.97-1.43,2.75-2.11-1.19.6-2.6,1.17-4.13,1.72Z"/>
      <path class="cls-3" d="M54.4,92.45c-2.32-.33-4.6-.83-6.84-1.5,1.49.6,3.69,1.17,6.84,1.5Z"/>
      <path class="cls-3" d="M183.13,81.12c-.64.2-1.21.52-1.68.95.35.23.57.18.83-.04.26-.22.5-.63.85-.91Z"/>
      <path class="cls-3" d="M53.68,202.67c.66-1.5,1.27-2.79,1.75-3.66.31-.43.59-.81.85-1.18-.4.17-.81.38-1.18.63-.19.15-.35.2-.56.49-.21.28-.4.57-.57.86-.66,1.15-.9,2.22-.29,2.86Z"/>
      <path class="cls-3" d="M138.65,56c1.4-.73,2-1.22,1.86-1.6-1.54.68-2.3,1.28-1.86,1.6Z"/>
      <path class="cls-3" d="M59.35,195.83c-.1-.08-.24-.1-.4-.1-.16-.01-.32-.03-.48-.04-.37.28-.42.33-.63.53-.17.16-.35.32-.53.49-.37.3-.7.68-1.02,1.12.59-.26,1.18-.39,1.66-.58.22-.09.46-.28.6-.45.12-.12.35-.33.46-.45.13-.15.29-.37.35-.52Z"/>
      <path class="cls-3" d="M183.66,265.63c.05.11.13.2.17.33.11-.2.02-.29-.17-.33Z"/>
      <path class="cls-3" d="M170.8,306.24c-.54-1.19-1.28-3.18-1.94-5.08.2.97.76,2.51,1.94,5.08Z"/>
      <path class="cls-3" d="M58.98,282.22c.29.79.21.08,0,0h0Z"/>
      <path class="cls-3" d="M55.03,293.9c-.31-.2-.62-.27-.95.09.39-.26.69-.26.95-.09Z"/>
      <path class="cls-3" d="M66.81,206.06c-.02.08-.04.15-.07.24.54-.71.44-.59.07-.24Z"/>
      <path class="cls-3" d="M58.54,283.87c.11-.48.18-.94.21-1.39-.09.22-.18.62-.21,1.39Z"/>
      <path class="cls-3" d="M59.26,283.28c0,.32.02.57.03.82.28-.1.42-.27-.03-.82Z"/>
      <path class="cls-3" d="M58.21,278.9c.16.77.3,1.51.41,2.23l.08.54.04.27c.01.09.03.2.02.2v.35c.06-.21.15-.3.21-.27l-.03-.09s-.01-.03-.05-.18c-.06-.24-.12-.51-.19-.8-.13-.6-.3-1.33-.5-2.25Z"/>
      <path class="cls-3" d="M176.56,142.48c-.07.19-.12.42-.21.62.5,3.05.49,1.72.21-.62Z"/>
      <path class="cls-3" d="M46.91,150.58c.16.04.25.03.4.06-.14-.08-.32-.17-.45-.24l.05.18Z"/>
      <path class="cls-3" d="M35.33,145.71c2.84.68,4.82,1.29,6.56,2.06,1.73.76,3.2,1.66,4.97,2.63-.63-2.09-1.12-4.15-1.45-6.22-3.16.86-6.53,1.38-10.08,1.53Z"/>
      <path class="cls-3" d="M188.58,65.88c.18-1,.45-1.94.7-2.88l.51-2.19.82-3.12c.03.95.04,1.9.05,2.84.09.65.19,1.29.27,1.9.06.73.2.95.29,1.31.1.34.19.67.27.98.2.63.36,1.2.5,1.69.17.5.32.93.45,1.26.53,1.35.84,1.13,1.68-1.43-.7-.03-1.23-.37-1.68-.96-.22-.29-.43-.66-.56-1.05-.07-.2-.14-.41-.21-.64-.03-.11-.06-.23-.09-.35l-.04-.18c-.01-.07-.02-.2-.02-.3-.02-.42-.04-.86-.07-1.31,0-.48-.06-.81.04-1.62.14-1.41.3-2.89.52-4.42.11-.77.22-1.54.23-2.29.02-.38.04-.76.07-1.14l.03-.57-.02-.54c-.03-1.46-.19-2.83-.46-4.07-.25-1.26-.64-2.37-1.13-3.47-.47-1.08-1.21-2.28-2.16-3.22-1.83-1.85-3.82-2.87-5.86-3.54-4.11-1.29-7.83-.83-8.74.37-1.17-.34-2.4-.64-3.64-.97-1.25-.31-2.55-.58-3.86-.88,2.29.24,2.76-.1,5.03.2-1.84-.55-3.54-.8-4.99-1-.37-.04-.72-.08-1.06-.11-.22-.02-.43-.03-.64-.04-.41-.01-.79,0-1.15.04-.72.07-1.37.23-1.94.43-.54.21-1.06.47-1.59.74-.54.27-1.09.56-1.72.82-.64.26-1.47.51-2.36.69-1.82.41-4.14.6-7.52.58-2.36-.08-4.4-.15-5.47-.34-1.06-.2-1.15-.55.46-1.09-3.53.9-7.01,2.07-10.35,3.56-1.53.41-2.18.37-2.08.08.11-.28.99-.82,2.54-1.22-5.35,1.71-10.56,4.16-15.32,7.62l.02-.21c-.8,1.07-2.12,2.74-3.34,4.52-1.22,1.79-2.33,3.69-2.99,5.02-1.73,1.66-1.5,1.15-.99.18.52-.93,1.39-2.12.74-1.88-.95,1.48-1.83,3.03-2.56,4.88-.36.93-.69,1.9-.94,3.05-.23,1.16-.44,2.43-.26,4.17-.06.55-.1,1.01-.09,1.44-.01.44-.02.75-.03.97-.03.46-.2.49-.51.08-.16-.22-.3-.48-.46-.86-.08-.19-.16-.41-.23-.63-.06-.21-.12-.44-.18-.69-.12-.53-.17-1-.21-1.59-.03-.51-.03-1.12.02-1.64.38-4.46,2.74-8.26,5.27-10.9-2.69.92-4.42,2.28-5.61,3.98-.6.88-1.06,1.81-1.45,3-.37,1.19-.69,2.53-.8,4.54,0,.25-.01.51-.02.77,0,.3.01.6.03.9.02.56.12,1.36.25,2.06.31,1.56.94,3.59,2.51,5.63.76,1,1.8,1.96,2.88,2.66.27.18.56.35.84.52.28.16.54.28.83.41.28.13.57.25.86.36.28.1.53.18.8.26,2.17.62,3.94.58,5.43.44,2.88-.35,4.95-1.14,7.05-1.96l.1-.04.16-.07.32-.15c.21-.1.43-.21.64-.32.21-.11.43-.23.65-.34.26-.16.51-.33.77-.49.52-.35,1-.66,1.62-1.25.59-.54,1.14-1.06,1.76-1.92.29-.4.58-.82.84-1.25.26-.48.51-.99.73-1.52.46-1.05.71-2.18.88-3.36.09-.6.08-1.08.09-1.64,0-.52-.02-1.15-.09-1.58-.06-.46-.14-.92-.23-1.39-.05-.23-.1-.48-.15-.68l-.16-.57c.09.24.18.44.27.71.09.29.17.58.25.87.08.29.15.59.21.89l.09.45.07.54c.07.73.11,1.44.08,2.2-.05.81-.17,1.63-.34,2.42-.19.79-.47,1.58-.8,2.33-.33.8-.7,1.36-1.11,2.01-.21.31-.42.62-.65.91-.2.24-.4.48-.61.71-.41.44-.9.95-1.3,1.28-.75.63-1.67,1.31-2.3,1.67-.35.21-.7.42-1.06.61l-.69.36c-.85.45-1.86.9-2.98,1.32,1.21.03,2.39-.07,3.44-.25.28-.05.49-.07.84-.17.43-.15.87-.32,1.31-.5l.65-.28c.24-.12.52-.28.78-.43.53-.31,1.03-.62,1.56-1.01.61-.48,1.2-1.01,1.76-1.58.26-.25.59-.64.89-1.03.3-.38.59-.78.86-1.2.54-.76,1.06-1.85,1.46-2.88.43-1.04.67-2.14.86-3.27.19-1.18.19-2.12.15-3.19-.04-1.12-.19-1.88-.37-2.77-.09-.41-.21-.91-.31-1.24-.11-.34-.22-.69-.34-1.03-.12-.34-.25-.68-.39-1.02-.13-.31-.25-.55-.38-.83l-.4-.81-.21-.4-.19-.33c-.26-.43-.53-.87-.81-1.3-.26-.39-.51-.73-.78-1.1l-.4-.54-.37-.46c-.25-.3-.51-.61-.77-.92-.24-.27-.49-.54-.73-.82-.51-.58-.96-1.01-1.47-1.54-1.92-1.93-3.81-3.63-5.74-5.47.78,1.14,4.45,4.87,7,9.45.32.59.59,1.11.87,1.73.13.29.25.57.36.84.11.26.23.59.31.85.35,1.03.52,2.04.39,2.41-.22.92-1.6-1.2-4.13-3.37-2.25-3.04-5.33-5.61-10.31-7.36.98-1.7-3.64-3.97-9.15-6.44l1.5-2.16c-3.18-1.1-4.78-1.22-6.08-1.17-1.3.06-2.31.3-4.29.13-6.58-2.89-7.38-5.17-8.49-7.36-2.78-1.03-3.76-1.16-3.86-.88-.09.28.7.97,1.39,1.67.7.7,1.31,1.42.92,1.72-.39.3-1.76.16-5.09-.7-4.51-1.84-8.61-2.81-13.15-3.27-2.27-.22-4.66-.31-7.33-.2-1.33.05-2.75.16-4.26.34-.79.11-1.49.2-2.43.37-1,.16-1.95.38-2.94.64-2.38.19-3.49.41-3.89.32-.4-.08-.09-.39.43-.76,1.03-.72,3.02-1.51,1.12-1.45-1.4.69-2.69,1.52-3.88,2.44-1.18.94-2.21,2.03-3.08,3.21-.78.66-1.15.77-1.32.65,0,0-.01,0-.01-.02-.16-.13-.12-.47-.09-.71-.11.12-.21.24-.25.3-.54.67-.92,1.2-1.18,1.64-.23.41-.24.62-.29.87-.05.46.07.78.13,1.17.12.78-.09,1.79-2.43,4.82.35,1.76-3.11,3.91-6.98,7.42-1.93,1.76-3.97,3.88-5.58,6.46-.4.64-.78,1.3-1.12,2.02-.17.36-.33.69-.49,1.08-.17.43-.33.87-.48,1.31-.6,1.74-.88,3.52-.87,5.16-.68,1.53-1,1.15-1.3.41-.32-.73-.48-1.81-1.12-1.37-.64,4.94.1,8.32.94,10.79.89,2.47,1.99,4.05,3.11,5.4.61.65,1.17,1.29,1.89,1.85.35.29.7.58,1.1.87.41.26.83.53,1.29.82,1.84,1.07,4.28,2.17,7.74,2.85.81.47,1.74,1,2.53,1.39.78.37,1.57.8,2.37,1.12.8.34,1.61.69,2.44.96.82.3,1.65.58,2.49.82-1.82-.7-2.51-1.43-2.44-1.92.07-.53.9-.88,2.15-1.24,2.5-.68,6.64-1.51,10.21-2.78-2.4-.75-4.31-1.58-5.56-2.03,3.73-.32,7.37-1.13,10.77-2.36,1.35.09.57,1.27-1.08,2.67.73-.36,1.4-.7,1.9-1.04,2.06,0,2.72.38,2.54,1.16-.18.77-1.26,1.83-2.65,2.88-1.57-.2-3.1-.5-4.55-.88-2.7,1.92-5.68,3.63-5.02,5.15.43-.16,1.04-.3,1.78-.44.73-.17,1.57-.3,2.45-.46-.79.51-1.31.9-.9,1.14.46.25,1.82-.42,3.81-1.39,1.11.82,2.28,1.57,3.5,2.31.17-.42.33-.85.49-1.28,2.94-.36,5.91-.98,8.97-2.06,3.04-1.13,6.22-2.52,9.44-5.65,1.3-2.03,2.45-4.56,2.75-7.51.05-.75.06-1.49.04-2.22-.06-.73-.19-1.46-.33-2.16-.35-1.36-.87-2.66-1.54-3.68l-.5-.78c-.17-.25-.36-.45-.54-.67-.37-.42-.74-.86-1.12-1.23-.81-.68-1.46-1.31-2.5-1.95-.48-.3-.95-.62-1.45-.87-.51-.22-1.03-.43-1.54-.62-.51-.22-1.02-.32-1.54-.42-.51-.1-1.03-.22-1.53-.27-4.05-.33-7.57.71-11.01,2.13-3.43,1.48-6.84,3.42-10.48,5.81,1.37-1.97,1.23-2.87.54-3.54-.67-.68-1.88-1.11-2.37-2.28,2.97-.07,6.05-1.94,10.32-3.68,2.12-.87,4.59-1.69,7.52-1.95.73-.07,1.47-.13,2.29-.07.81.05,1.58.05,2.46.26,1.68.31,3.49.93,5.16,2.01-.87-.62-1.62-.92-2.26-1.26-.64-.33-1.16-.6-1.55-.76-.8-.37-1.2-.65-1.3-.87-.22-.44.78-.64,1.84-.58-1.13-.18-2.33-.41-3.35-.38h-1.58c-.53,0-.99.07-1.48.11l-1.44.17c-.47.07-.9.18-1.35.27l-1.32.3c-.43.11-.83.25-1.24.38-3.28,1.04-6.15,2.43-8.77,4.03-.45-2.07-4.28.14-8.77,2,1.32.38,1.31,1.18.55,2.19-.73,1.06-2.24,2.35-3.94,3.89-.88.74-1.75,1.61-2.68,2.44-.9.86-1.8,1.76-2.66,2.65-1.69,1.82-3.16,3.66-4.05,5.21-.65-.26-1.02-.97-.38-2.38.32-.7.84-1.64,1.76-2.7.46-.54.99-1.13,1.62-1.77.65-.61,1.4-1.28,2.24-2-4.71,2.13-6.07,5.49-7.05,8.67-.51,1.59-.89,3.22-1.62,4.81-.69,1.63-1.72,3.21-3.4,5,.5-.94.93-1.65,1.23-2.24.32-.58.48-1.06.41-1.6-.44,1.2-1.12,2.77-1.93,4.39-.77,1.65-1.58,3.39-2.29,4.9-.76,1.51-1.3,2.87-1.8,3.6-.48.74-.82.9-.89.1l.64-2.15c-1.31,3.47-2.44,8.21-2.43,13.36-.01,5.14,1.09,10.55,3.18,15.11,2.04,4.58,4.92,8.18,7.45,10.41,2.53,2.25,4.66,3.22,5.62,2.93-.1.21-1.14.69-2.32,1.03-1.18.35-2.51.59-3.08.49,4.6,1.97,9.22,3.03,13.66,3.36,4.44.33,8.72-.02,12.54-1.07-1.27,1.2-.63,3.96-.73,6.34-.07,1.18-.4,2.29-1.54,2.97-1.13.69-3.11.99-6.23.23,1.63.86,3.52,1.75,6.08,2.42,2.58.62,5.8,1.14,10.27.4-1.5-.12-3.17-1.25-3.89-2.37-.74-1.12-.67-2.13.93-2.17,2.19.92,3.9,1.29,5.31,1.42,1.41.12,2.51.03,3.73-.22,1.22-.32,2.62-.67,4.71-2.07,1.03-.72,2.25-1.8,3.35-3.47,1.1-1.65,1.95-3.91,2.24-6.34-.15,1.6-.72,2.35-1.24,2.34-.55.01-1.03-.72-1.64-1.64-.47-.78-1.14-1.88-1.95-3.22-.69-1.15-1.39-2.31-1.97-3.59.5.25,1.5-.33,2.53-.76,1.03-.42,2.13-.74,2.84.43-.9-1.31-1.87-2.32-2.83-3.25-.93-.96-2.01-1.78-3.01-2.6-2.13-1.53-4.3-2.81-6.57-3.7,1.56.82,2.38.27,2.53-.97.08-.62-.02-1.4-.26-2.26-.25-.84-.7-1.69-1.24-2.5.4.87-2.31-1.32-6.09-3.11-.94-.44-1.94-.9-2.96-1.25-1.01-.4-2.04-.7-3.02-.96-1.96-.52-3.72-.77-4.8-.75,2.22.57,4.31,1.44,6.3,2.39-4.13-1.45-7.55-1.41-10.22-.86-2.7.62-4.7,1.71-6.47,2.99-1.76,1.32-3.34,2.71-5.08,4.41-1.73,1.7-3.7,3.58-5.9,6.43.14-.94-.25-2.8-1.3-3.69-.56-.45-1.3-.62-2.34-.2-1.05.4-2.34,1.47-3.59,3.52.02.62.06,1.43.15,2.36.13.94.34,2.01.56,3.13.31,1.14.64,2.34,1.08,3.56.49,1.23.94,2.46,1.59,3.7,1.14,2.49,2.7,4.89,4.1,7.34,1.48,2.61,2.77,5.4,3.65,8.32l-.98,2.49c.96,2.98,1.94,5.96,2.95,8.91-2.21-2.55-5.77-7.56-9.23-13.07-.86-1.38-1.72-2.78-2.55-4.19-.41-.71-.83-1.38-1.22-2.12-.38-.77-.75-1.55-1.12-2.33-1.34-3.15-2.3-6.48-2.44-9.47-.26.8-.48,1.44-.68,1.96-.18.51-.29.89-.42,1.2-.24.62-.42.95-.57,1.39-.15.44-.28.99-.3,2.02-.02.52-.02,1.17,0,1.99,0,.83.14,1.77.26,2.97-.45,1.75-1.06.53-1.58-1.58-.5-2.11-.67-5.21-.54-6.8-.26,2.08-.26,4.05-.27,6.05.1,1.89.23,4.03.36,5.39.28,3.07.57,6.13.89,9.19,1.29-.6,2.48,2.78,3.66,6.16,1.17,3.39,2.34,6.78,3.4,6.24-2.05-6.39-3.99-12.81-5.83-19.28,2.6-1.13,9.18,10.29,10.99,23.02-.48,3.43-5.21-1.56-6.06-1.15,1.18,1.51,4.01,11.83,3.64,13.13l-2.51-5.15c.18,3.67,1.67,6.42,3.03,9.36,1.37,2.95,2.59,6.06,2.41,10.67.14.75.15,1.73.11,2.79-.02.55-.04,1.12-.07,1.69-.01.29-.02.58-.03.87,0,.15-.02.27,0,.45.01.2.03.39.04.59.2,3.13.66,5.94,1.5,5.88.09-2.27.73-4.19,1.75-5.65,1.01-1.46,2.35-2.49,3.77-3.12,1.42-.65,2.89-1.04,4.19-1.13,1.3-.12,2.39-.07,3.08.21,0,.36-.02,3.07.37,6.92.19,1.91.49,4.09.84,6.15.42,2.29.77,4.2.96,5.24.12.96.16,1.75.08,2.38-.03.49-.17.81-.4,1.03-.45.44-1.23.43-2.08.34-1.66-.14-3.74-.82-2.89,2.45.25-.33.91-.03,1.64.32.71.39,1.47.87,1.91,1.18.99,1.65.63,1.98.59,2.6-.01.3.07.67.52,1.23.47.54,1.26,1.34,2.92,2.19.38-.57,1.38-.34,2.71-.12.66.12,1.42.17,2.14.17.72-.03,1.41-.12,1.95-.26,1.1-.27,1.7-.58,1.41-.55-.16-.02-.52.08-1.26.13-.71.05-1.86.11-3.35-.48.93.05,1.8-.04,2.52-.25.73-.19,1.33-.45,1.87-.7,1.05-.53,1.84-1,2.63-1.53,1.57-1.06,3.1-2.27,5.64-6.04-1.22.25-.66-3.22-.13-7.35.28-2.07.55-4.29.74-6.34.2-2.05.4-3.86.65-5.37.51.73,1.77-.14,2.34-.71.95-3.32,1.55-6.3,1.76-9.14.08-1.42.11-2.81-.07-4.18-.14-1.37-.46-2.73-1.04-4.02-.57-1.29-1.41-2.55-2.64-3.5-1.21-.95-2.75-1.54-4.31-1.71-1.56-.17-3.17-.03-4.7.4-1.52.43-3.05,1.03-4.59,1.92-.38,0-1.06.19-1.84.49-.79.27-1.69.63-2.41,1.05-.73.4-1.31.78-1.68.84-.36.06-.51-.21-.21-1.05-.56,1.05-.89,2.19-1.28,3.57-.36,1.3-.8,2.9-1.41,5.14-1.15,1.79-1.53,2.15-1.63,1.71-.09-.44.16-1.67.52-2.98.37-1.41.94-2.99,1.06-3.79.13-.8-.27-1.02-1.74.48.3.33.22,1.36.06,2.76-.12,1.2-.28,2.8-.45,4.59-.3,3.44-.43,7.38-.21,10.27,1.33-.76,1.75-3.95,2.16-7.74.21-1.9.42-3.95.76-5.94.36-2.09.96-4.2,1.66-5.77.7.49,1.01,1.6,1.23,3.08.21,1.5.42,3.25.62,5.34.4,4.18.86,9.71,1.24,16.13.12,5.08-.4,6.18-1.01,6.22-.6.04-1.22-.99-1-.09-.28,4.84.08,8.32.62,11.02.55,2.7,1.32,4.64,2.03,6.46,1.45,3.65,2.61,6.83,2.09,14.93-1.55,6.57-4.29.71-5.72,2.27-1.63-8.44.33-13.15,0-18.88-.25,2.37-.48,4.75-.67,7.14-.91-2.65-1.72-8.35-1.14-11.47-.93,2.74-.76,11.1.04,20.63.76,9.55,2.17,20.23,2.72,27.92,1.2,2.55,2.95,6.96,3.33,4.58-.43-1.49-.85-3.08-1.24-4.62.46-2.33,1.46-.21,2.34,1.68.44.93.86,1.88,1.11,2.09.26.2.41.03.3-1.52.16.37.32.74.48,1.12.15.31.29.57.44.85.29.55.59,1.08.89,1.59.55.94,1.13,1.92,1.73,2.94.55.96,1.06,1.91,1.57,3,.26.57.53,1.16.8,1.76.3.62.61,1.33,1.11,1.95-.14,1.44-.13,2.89-.02,4.07.04-.28-.21-.48-.55-.91-.35-.42-.72-1.06-1.04-1.71-.65-1.31-1.21-2.64-1.83-3.09.46.34.76,1.3,1.19,2.58.22.64.48,1.35.86,2.03.36.67,1,1.31,1.63,1.21.6-.07,1-.5,1.34-.98.33-.49.61-1.08.9-1.7.58-1.25,1.16-2.68,1.57-4.19-.68.82-1.2,1.47-1.67,1.87.78-1.89,1.5-3.95,2.16-5.71.66-1.78,1.2-3.28,1.71-4.51.43-1.04.85-1.9,1.4-2.81-.79.54-.81.6-.93.85-.05.11-.12.25-.26.4-.14.14-.37.32-.66.34-.03-.01-.06-.01-.1-.02.06.03.11.07.14.12.09.06.13.16.12.32,0,.67-.94,2.33-1.6,3.64-.33.67-.62,1.32-.81,1.94-.18.6-.31,1.25-.09,1.5-.16-.39-.24-.56-.53-.68-.13-.06-.34-.13-.55-.35-.2-.21-.35-.5-.47-.78-.24-.58-.38-1.21-.4-1.99-.01-.78.12-1.73.56-2.78-.64.76-1.04,2.19-1.28-.15-.23.07-.56.02-.76-.04,0-.08,0-.11.02-.19-.02.06-.04.11-.06.18-.14-.04-.16-.03-.02.07-.19.74-.42,1.55-.74,2.12-.99.04-1.87-1.49-2.6-3.3-1.03-3.18-1.88-6.65-2.65-8.3-.25-3.92,1.19,1.46,1.71-.79-.77-1.65-1.52-3.32-2.26-5,1.7-.8,1.61-10.66,3.89-1.74-.36-2.71-.68-5.44-.96-8.17.45-4.94.28-11.58-.74-15.62.13-3.88-2.5-9.67-.94-6.37-.56-4.27-1.03-8.54-1.38-12.8l.46-.11c.18-6.25-.29-12.73.32-18.95.16-1.54.38-3.05.72-4.45.16-.7.36-1.37.57-1.99.17-.46.3-.76.51-1.12.39-.67.93-1.28,1.68-1.57.38-.13.78-.22,1.17-.26.2-.02.39-.03.58-.02l.26.04.39-.02c.21-.13.42-.27.61-.41.08-.04.16-.09.24-.14.09-.06.16-.11.19-.13.05-.03.09-.07.14-.12.01-.03.01.01.02-.11.03-.51,0-.76.03-1.11.02-.17.04-.35.08-.53l.05-.35c.2-1.02.57-1.07-.19-.32-.1.1-.2.18-.31.25-.13.11-.32.27-.48.38-.18.12-.34.21-.54.32-.12.08-.24.16-.36.23-.01,0,0,.01-.01.02,0-.02,0,.07,0,.16.02.05.01.22.02.36-.45.24-.96.56-1.45.79.21.47.27,1.36.09,2.54-.11.6-.21,1.22-.4,1.9l-.13.5c-.02.07-.04.19-.06.22l-.05.1-.19.41c-.48.89-.81,1.41-.29,2.41-1-.45-1.61-.63-2-.58-.4.05-.56.41-.89,1-.16.28-.39.61-.69.75-.3.14-.57.1-.78,0-.44-.21-.75-.71-.81-1.33-.44.84-.88,1.66-1.34,2.47-.37-1.03-.78-1.83-1.33-2.79-.14-.25-.29-.5-.44-.75l-.24-.41-.12-.22-.06-.11-.11-.27c-.15-.39-.31-.79-.46-1.19-.16-.44-.33-.88-.5-1.34-.33-.92-.68-1.86-1.03-2.83l-1.64.94c-3.23-6.6-2.85-18.33-4.92-29.58.81.65,1.13,3.55,1.08,5.65.8-7.09-1.08-14.07-2.96-20.97-.47-1.72-.94-3.43-1.37-5.13l-.31-1.27-.15-.63-.1-.51c-.13-.68-.29-1.37-.37-2.04-.35-2.67.1-5.18,1.38-6.82-.07-2.05.9-3.14,1.95-3.74-.09.12-.15.25-.18.37.12-.11.28-.3.43-.5.32-.19.74-.27,1.07-.42.36-.12.76-.19,1.1-.31-.36.02-.72.06-1.07.12-.32.09-.61.22-.88.35.79-.93,2.09-2.26,4.02-3.41.51.53.97,1.07,1.39,1.61.14-.07.28-.08.43-.14.26.04.46.05.63.03.18,0,.32-.02.42-.08.21-.1.3-.3.28-.55-.03-.5-.5-1.25-1.25-1.87,1.23-.54,2.35-1.03,3.23-1.42,1.01,1.57,2.57,1.48,4.39,1.69,1.77.2,3.78.81,4.11,2.96,1.09-.32,4.07,1.06,6.42,3.29.64.51,1.15,1.13,1.75,1.67.5.58,1.11,1.16,1.54,1.6.93.9,1.65,1.4,2.54,1.54-.44.14-.54.71-.76-.29.04.58-.04,1.03-.15,1.23-.11.22-.18.18-.2.2-.02.02-.09.15-.34.4-.24.25-.63.58-1.13.95-.55-.72-1.03-1.47-1.45-2.25-1.53,1.34-4.15,2.29-6.89,2.8-2.14-1.26-3.47-2.42-3.69-3.18-.23-.8.68-1.13,2.94-1.46-2.62,0-4.55-.39-5.98-.77-1.44-.4-2.43-.8-3.36-1.21-.93-.43-1.82-.83-3.01-1.38-1.2-.56-2.76-1.23-4.98-2.44l1.46-.8c-1.2-1.13-3.01-2.38-4.48-3.83-1.47-1.43-2.54-3.03-2.36-4.22-.11-2-.92-5.03-1.15-8.94-.03-.49-.07-.98-.11-1.5,0-.51.01-1.03.02-1.57,0-.27,0-.54,0-.81,0-.27.05-.55.07-.82.04-.55.09-1.12.13-1.69.32-2.29.86-4.7,1.72-7.17,1.8-4.9,4.88-9.93,8.9-14.03,3.94-4.15,8.72-7.36,13.15-9.14-1.39-.54-1.56-.96-1.01-1.4.28-.21.74-.39,1.3-.58.56-.2,1.22-.37,1.92-.51.69-.16,1.41-.31,2.1-.43.68-.14,1.33-.3,1.87-.44,1.09-.35,1.79-.77,1.74-1.71.65.37,1.53.66,1.93,1.01.41.34.37.76-.69,1.47,1.83-.72,3.32-.78,4.04-.59.35.09.54.21.53.28.01-.01,0,.05.04-.03.08-.13.06-.13.09-.2.05-.11.11-.22.19-.34.05-.09.24-.3.18-.24,0,0,0,0,0-.02l.02-.03.02-.02h0s0,0,0,0c.81-.72-1.1.98-.91.81h0s0,0,0,0h0c.02.06.04.11.06.15.03.04.06.08.09.12,0,.01-.02.01-.02.01.31-.19.67-.37,1.03-.52.22-.13.44-.25.69-.34.12-.05.25-.09.38-.13.12-.04.3-.07.33-.1.12-.05.26-.09.42-.11.08-.01.16-.02.24-.03.04,0,.03,0,.05-.01.03,0,.07,0,.13,0,.06,0-.03,0-.06,0l-.11-.02-.09-.02h-.04s-.14-.04-.14-.04c-.41-.1-.55-.2-1.19-.47-.13-.06-.25-.13-.37-.2l-.16-.1s.05.02.06.03l.16.22c-.25-.12-.43-.28-.6-.42-.06-.05-.14-.12-.24-.2-.03-.02-.06-.05-.09-.07.1.06.21.13.31.19.25.13.37.23.51.32.14.09.26.15.35.2.18.09.19.1-.11-.06-.12-.06-.26-.15-.41-.25-.13-.1-.47-.27-.71-.44-.13-.09-.26-.18-.39-.28l-.19-.15.04.02c.06.02.02.08.03.12,0,.05,0,.09-.01.14-.04.05-.1.1-.16.14-.11.07-.25.11-.47.05-.41-.12-.36-.43-.31-.74-.02-.15.05-.31,0-.41l-.05-.07-.03-.03s-.04-.04.02.01l.14.11c.17.15.4.3.53.42.13.12.27.24.4.34-.43-.35-.84-.69-1.24-1.01,0,0,.04.03-.02.09-.04.05-.07.11-.09.18-.06.07-.14.15-.2.24-.09.17-.3.36-.45.56-.13.2-.35.4-.51.61-.31.43-.71.82-.96,1.26-.31.41-.56.83-.75,1.26-.84,1.67-.81,3.39-.71,5.04-2.71-.02-4.64-.06-6.37.28-1.73.34-3.26.98-5.22,2.03-.93-.54-2.11-1.16-2.25-1.64-.14-.49.7-.69,3.79-.91-.87,0-2.64-.13-4.73-.46-1.04-.17-2.15-.4-3.26-.69-.54-.16-1.12-.28-1.65-.48l-.81-.26c-.29-.09-.41-.16-.62-.23-1.51-.58-2.87-1.28-3.95-1.92-1.06-.64-1.89-1.15-2.53-.89.1-.53-.3-1.33-.56-2.18-.27-.84-.5-1.7-.63-2.05.11-1.52.49-2.65.84-3.57.19-.46.36-.87.55-1.25.1-.2.19-.39.28-.58.12-.23.24-.46.36-.69.98-1.84,2.06-3.73,4.42-7.14-.56.54-1.15,1.07-1.68,1.62-.35-2.24.59-3.81,2.14-5.43,1.55-1.63,3.69-3.31,5.98-5.97l.09.37c1.52-1.2,2.97-2.35,3.58-2.76,1.29-1.04,2.26-1.35,2.91-1.64.67-.27,1.08-.49,1.62-.67.27-.1.57-.16.95-.21.19-.03.4-.04.62-.04.24,0,.58-.01.93.01,1.41.08,3.49.38,6.68,1.37l-.58-2.04c.94-2,4.43-.95,8.58.99,4.18,1.91,8.97,4.66,13.56,5.43-.92-.72-1.86-1.42-2.81-2.12,2.64.1,5.55,2.64,8.17,5.48,2.64,2.84,4.98,5.97,7.03,7.24.79.78-1.74-.19-3.2-.54,2.63,1.85,4.01,2.73,4.86,3,.84.28,1.12-.05,1.35-.5.24-.45.43-1.04,1.1-1.27.66-.23,1.84-.12,3.93.91.39,1.02-.53,1.5-.88,2.14-.38.65-.11,1.43,2.18,3.06.4.61,1.61,1.25,2.89,1.89.62.3,1.29.65,1.62.71h.1s.03,0,.03,0h.02s.16-.13.16-.13c.22-.17.44-.34.67-.5.45-.32.96-.63,1.43-.9.39-.26.8-.5,1.24-.71,1.58-.86,2.96-1.08,3.36-1,.43.07-.21.06-1.1-1.02-.59-.61-.9-1.23-1.52-2.24-.13-.23-.25-.47-.36-.72l-.15-.36v-.02c.09.21-.94-1.95-.5-1.03h0s-.01.02-.01.02l-.03.02-.23.18c-.29.22-.54.39-.58.46h0s0-.02.01.04l.05.21c.06.29.11.58.16.87.1.55.19,1.04.21,1.58.06.47.08.93.06,1.38,0,.19,0,.39-.01.58-.02.2-.05.4-.06.54-.02.16-.05.32-.09.48-.03.14-.05.24-.09.37-.02.06-.04.12-.07.18-.01.04-.02.08-.04.12-.02.07-.09.18-.11.22-.14.23-.16.16.02.07.35-.24,1.7-.5,3.22-.26.76.11,1.58.29,2.4.53.33.11.66.21.99.31.01.01.05,0,.08-.01.13-.04.33-.16.6-.28-.67.09-1.22.07-1.69-.08-.23-.08-.47-.15-.62-.37-.15-.22-.23-.61,0-1.34.53-1,1.73-2.12,3.24-3.07,1.52-.95,3.32-1.77,5.14-2.47,3.65-1.44,7.28-2.43,9.57-4.75.84.08,1.2.29,1.29.53,2.18-.98,6-1.98,9.78-2.57,1.92-.29,3.77-.57,5.34-.8,1.55-.24,3.05-.51,3.9-.91.29.44.68.82,1.16,1.15.45.33.97.61,1.55.84.29.12.6.22.92.31.16.04.32.09.48.13.1.03.2.07.3.11.41.13.84.22,1.31.28.92.13,1.96.12,3.14.11.59,0,1.21-.02,1.85,0,.64.02,1.32.07,1.93.3.63.22.97.76,1.04,1.27.09.52.09,1.03.08,1.55-.04,1.03-.11,2.06-.24,2.97-.07.45-.15.87-.25,1.24-.11.38-.25.63-.43,1.04-.36.72-.89,1.1-1.67,1.08,0,.26,0,.73.02,1.13l.04,1.23c.02.82.11,1.63.16,2.44.05.82.16,1.61.26,2.41.1.8.2,1.6.35,2.38.49,3.16,1.27,6.17,2.09,9.16l-.73-.31c.33,1.45.72,2.75,1.07,3.96.38,1.19.79,2.25,1.17,3.23.76,1.95,1.61,3.55,2.43,4.89,1.68,2.69,3.37,4.37,5.24,5.96.65,1.42.68,1.78.33,1.73-.32-.04-.93-.49-1.12-.51.69,1.15,1.38,2.24,2.45,3.4,1.07,1.12,2.38,2.38,4.8,3.26.31.1.6.2.92.28.35.08.71.14,1.06.18.68.11,1.48.09,2.23.02.75-.07,1.47-.27,2.17-.49.63-.24,1.27-.54,1.8-.85,2.1-1.31,3.09-2.71,3.8-3.79.71-1.12,1.16-2.1,1.48-2.98.17-.45.32-.88.43-1.28.13-.42.23-.8.31-1.19.35-1.53.5-2.88.55-4.18.07-2.59-.26-4.98-1.01-7.65-.79-2.66-1.96-5.6-4.27-9,.4-.78.7-1.66,1-2.56-.87-.98-2.07-3.35-4.53-6.06-1.24-1.33-2.8-2.72-4.78-3.87-1.97-1.15-4.33-2.04-6.95-2.47-2.62-.43-5.49-.39-8.4.15-.66.13-1.3.28-1.96.43-.61.16-1.17.34-1.76.51-.58.18-1.17.37-1.75.55-.59.21-1.18.47-1.76.72-.59.25-1.17.5-1.76.78l-1.73.97c-1.15.61-2.25,1.47-3.33,2.28-.54.39-1.04.9-1.54,1.37-.49.49-.99.95-1.44,1.47-.86,1.1-1.76,2.12-2.4,3.34-.04-.29-.16-.96.82-2.42-1.85,2.5-3.55,5.36-4.7,8.45-1.17,3.07-1.93,6.29-2.26,9.45-.3,3.14-.28,6.23-.01,9.18.32,2.9.77,5.74,1.48,8.31,2.71,10.4,7.65,17.74,12.55,18.51,2.83,3.07,5.82,5.91,8.93,8.56-2.47-3.05-3.33-4.68-3.44-5.37-.11-.69.58-.49,1.45-.09,1.72.83,4.27,2.3,2.75-.45,2.02,2.16,4.15,5.35,5.22,7.39,1.08,2.01.92,2.97-1.8.41l-.53-1.1c-2.34.27.64,4.13,4.37,7.77,1.87,1.85,4.02,3.65,5.76,5.06,1.74,1.41,3.13,2.44,2.73,2.97,1.15.56,2.44,1.1,4.09,1.47.4.09.88.16,1.32.22.5.05.98.09,1.53.08,1.08-.01,2.34-.19,3.61-.67,1.28-.48,2.55-1.34,3.4-2.2.46-.47.85-.98,1.2-1.51.67-1.08,1.14-2.25,1.47-3.46,1.31-4.81.47-10.66-1.53-16.24-1.99-5.59-5.02-10.82-8.36-15.09-3.36-4.23-7.02-7.69-10.72-10.02-1.85-1.16-3.7-2.06-5.53-2.68-1.84-.6-3.65-1.06-5.77-.81-1.04.13-2.2.57-3.05,1.21-.87.63-1.53,1.35-2.09,2.1-1.12,1.5-1.95,3.14-2.69,5.01-.74,1.85-1.31,3.99-1.7,6.37-.4,2.37-.59,4.98-.72,7.62-.13,2.65-.19,5.34-.27,8.02l-.12,3.63-.11,2.51,1.54-1.49c.51-.51,1.02-.96,1.53-1.63l-.12,2.48-.14,2.35c-.1,1.56-.22,3.12-.36,4.66-.43,1.2-1.08,1.96-1.53,1.61-.46-.35-.7-1.8-.46-5.09-.93,1.69-.76,4.44-.33,6.83.43,2.38,1.12,4.41,1.43,4.55-.69,3.16-1.28,4.37-1.68,4.5-.4.13-.66-.82-.85-2.02-.38-2.41-.61-5.87-.85-3.95-.13,1.75-.28,3.48-.47,5.21l.51-1.11c.3,2.19.71,3.43.88,5.09.14,1.65.06,3.73-.96,7.48-1.85,4.57-2.42,1.91-3.06,3.71-.2-.07-.46.51-.96,2.72l-1.03,2.81c-.36,1.01-.75,1.99-1.08,3.03l-1.02,3.09-.95,3.17c1.23-1.5,2.43-2.99,3.7-4.37-.31,2.86-1.09,5.8-1.29,7.4-.05.4-.07.7-.04.9.03.21.11.33.26.27.3-.13.87-.72,1.86-2-.37.46-.75,1.06-1.13,1.76-.37.75-.74,1.82-1.12,2.94-.39,1.12-.63,2.48-.94,3.9-.12.71-.18,1.45-.26,2.21-.04.38-.08.77-.11,1.16,0,.39,0,.78,0,1.18-.02,3.18.57,6.63,2.34,9.68.93,1.48,2.1,2.89,3.58,3.94,1.48,1.04,3.14,1.78,4.88,2.27,3.48.93,7.22.84,10.74.31.44-.07.88-.13,1.31-.19.43-.09.86-.19,1.29-.28.84-.19,1.71-.36,2.45-.57.76-.21,1.5-.41,2.23-.61.59-.18,1.16-.36,1.72-.53,4.42-1.39,7.55-2.63,8.91-2.8,1.66-1.13,3.32-2.17,5.01-3.16.84-.5,1.7-.98,2.57-1.45.92-.5,1.88-1.02,2.84-1.57.97-.56,1.96-1.14,2.98-1.82,1.02-.67,2.07-1.43,3.17-2.43.27-.24.55-.52.83-.82.28-.27.57-.63.85-.98.28-.33.58-.8.85-1.21.28-.52.55-.97.77-1.64.46-1.21.74-2.96.27-4.74-.45-1.77-1.52-3.17-2.51-4.04.94.95,1.58,2.43,1.61,3.4.04,1.01-.28,1.39-.72,1.04-.44-.32-1.13-1.49-2.51-2.44-1.36-.93-3.11-1.6-5.38-2.06.54-.59.72-1.11.53-1.6-.19-.49-.75-.93-1.58-1.28-1.67-.71-4.36-.98-7.26-.71-2.91.24-6.05.95-8.94,1.77-2.91.79-5.58,1.68-7.79,1.93,3.74-.7-2.39,2.73-6.5,7.54-2.11,2.34-3.72,4.9-4.26,6.37-.51,1.51-.08,1.8,2.11.24-1.16,1.46-1.8,2.2-2.24,2.5-.44.3-.69.16-.93-.04-.46-.39-.95-1.13-2.93,1.25-.83,2.23-1.58,4.51-2.23,6.83l-.25.87-.21.82c-.14.55-.29,1.1-.43,1.65-.31,1.1-.57,2.23-.85,3.36-1.11,4.53-2.1,9.27-2.74,14.24-.64,4.96-.92,10.15-.55,15.48.38,5.32,1.45,10.81,3.65,16.17.39.04.51-.94.89-1.38.39-.45.91-.35,2.31,1.64.42,4.04,1.3,8.31,3.63,12.73,2.01,1.91,3.75,1.99,5.61,2.53,1,.24,1.93.66,3.32,1.29.34.16.69.35,1.07.56.38.21.83.39,1.29.62.47.22.96.49,1.51.75.57.23,1.18.48,1.84.75-.74-.43-1.6-.99-1.76-1.36-.17-.38.31-.54,2.17-.33,3.43.72,7.01.31,10.06-.72l1.16-.39c.38-.14.75-.33,1.12-.49.74-.36,1.49-.66,2.21-1.1.73-.43,1.45-.89,2.17-1.35.72-.46,1.34-1.04,2.02-1.56,2.66-2.13,4.89-4.81,6.29-7.9,1.41-3.09,1.89-6.58,1.38-9.94-.95-6.76-5.66-12.8-11.35-16.49-.69-.48-1.39-.87-2.08-1.24-.36-.19-.68-.38-1.07-.57l-1.19-.53c-.79-.37-1.61-.66-2.43-.93-.82-.29-1.65-.5-2.5-.69-3.36-.76-6.85-.83-10.15-.06-.83.17-1.62.49-2.43.74-.79.3-1.54.69-2.3,1.05-.72.44-1.43.9-2.13,1.38-.65.54-1.3,1.08-1.92,1.65-2.43,2.36-4.17,5.38-5.29,8.59l-.43,1.21c-.13.41-.22.83-.32,1.24-.19.83-.41,1.69-.55,2.49-.19,1.5-.45,3.11-.48,4.47-.03.71-.09,1.42-.1,2.12v2.07c-.02,1.4.11,2.71.15,4.07.33,5.36,1.08,10.49,1.86,15.58.83,5.06,1.66,10.12,2.49,15.15-.36-5.63.85-2.18,2.24,1.71-.56-2.65,1.69-.51,2.43-1.33.94,5.52,2.06,11,3.3,16.47,1.81.9,3.53,4.98,5.27,8.87,1.73,3.89,3.47,7.62,5,7.85l-2.58-4.55c2.81,2.54,3.33-.38,3.7-3.96.36-3.58.63-7.84,2.62-8.14-3.06-2.81-3.77-7.95-4.68-13.52-.93-5.6-2.01-11.56-6.03-16.72.03-2.79,1.83,1.85,2.3.22-1.22-1.24-2.17-2.74-2.89-4.78-.73-2.04-1.23-4.64-1.47-8l.54.67c-.97-4.59-1.35-8.52-1.21-11.91.07-.82.11-1.66.21-2.41.06-.34.12-.69.19-1.03.06-.32.1-.72.19-.94.3-1.01.66-1.97,1.24-2.81,1.05-1.69,2.83-2.97,4.99-3.12,1.07-.08,2.18.1,3.25.48.54.19,1.06.44,1.57.72.25.16.51.32.77.48.32.25.71.46.99.7.12-.72.09-1.42.08-2.18.72.45,1.14.88,1.5,1.23.31.35.48.65.63.93.26.58.35,1.03.49,1.57,1.04.09,1.36-.1,1.21-.63-.17-.5-.8-1.26-1.55-1.88-.34-.32-.84-.64-1.21-.97-.41-.32-.82-.6-1.06-.89-.42-.47-.45-.97.69-1.3.16.37.37.74.64,1.1.27.36.5.76.82,1.12.54.74,1.13,1.46,1.7,2.32,1.16,1.62,2.28,3.84,2.05,6.15-.09,1.14-.52,2.23-1.16,3.09-.65.85-1.43,1.54-2.23,1.96-.79.45-1.56.65-2.24.67-.75-.03-1.3-.13-1.77-.6-.84.35-1.04.45-1.11.7-.06.23.1.47.28.71.18.24.39.48.31.71-.04.12-.15.23-.37.35-.23.15-.52.12-.96.21-.31-.4-.54-.85-.73-1.21-.26.45-.59.92-1.01,1.38-1.06-.39-1.66-1.42-1.85-2.16-.19-.9-.02-1.51.31-1.94.18.23.53.43.86.58.34.06.65.21.83.19-.03-.06-.06-.12-.1-.17l-.12-.22c-.09-.14-.18-.26-.3-.37-.22-.35-.51-.56-.84-.97-.34-.31-.69-.81-1.09-1.21l-.58-.75-.3-.37-.28-.42c-1.55-2.16-2.8-4.68-2.84-5.55.34,1.89.85,3.64,1.43,5.32-.99-1.58-1.86-3.45-2.6-5.49-.7-2.07-1.26-4.3-1.67-6.62-.77-4.67-1.01-9.67-.68-14.64.32-4.98,1.05-9.93,2.13-14.66.14-.59.28-1.18.42-1.76.14-.59.27-1.19.41-1.68.26-1.05.57-2.05.9-3.04.65-1.98,1.44-3.84,2.32-5.61-.48.14-.96.31-1.43.49,1.34-2.82,2.77-4.54,4.02-5.72,1.27-1.19,2.39-1.86,3.56-2.46,1.18-.6,2.42-1.13,4.12-1.82,1.69-.68,3.88-1.59,7.01-2.35l-.42.29c1.16-.68,2.65-1.21,4.16-1.39.75-.09,1.5-.09,2.12,0,.29.05.58.11.73.18.11.03.13.06.18.08.01,0,0,0,0,0,0-.01-.02.03.02-.03l.12-.19c.19-.26.31-.47.47-.68-.26.36-.52.74-.67,1l-.05.09v.03s-.03.03-.03.04c0,.03-.04.06-.05.08-.04.06-.07.12-.09.17-.04.07.04-.06.06-.11.04-.08.09-.17.15-.27.11-.2.31-.48.48-.74.14-.24.43-.55.61-.77.46-.5.85-.76,1.07-.84.22-.07-.05.03-.3-.03-.22-.01-.39-.06-.54-.11-.22-.05-.38-.11-.49-.15-.21-.09-.22-.09.08.03.14.06.45.13.63.19.27.05.51.08.64.06-.2.03-.75-.03-1.5-.34-.13-.08-.43-.17-.61-.27-.21-.11-.38-.22-.59-.35-.5-.27-.9-.56-1.34-.9-.25-.18-.49-.36-.72-.55l-.33-.29-.08-.07h0s.01,0,.01,0c0,.03-.01.07-.01.11,0,.08-.12.22-.16.33-.35.52-.94,1.08-1.37,1.5-.93.87-1.49,1.39-1.85,1.88-.37.5-.62.96-1.25,1.76-.7.81-1.79,1.98-3.88,3.77-.94-.14-1.87-.31-2.8-.47-1.38,1.3-2.09,2.12-3.37,3.03-.64.44-1.42.93-2.51,1.44-.54.25-1.16.55-1.88.83-.36.14-.74.29-1.15.44-.2.08-.41.15-.63.23-.19.07-.39.13-.6.2.61-.33,1.11-.66,1.36-.89.26-.24.32-.42.25-.55-.14-.27-.8-.38-1.43-.52-.55-.17-1.01-.39-1.06-.74-.03-.18.05-.39.27-.65.15-.23.71-.62,1.46-1.08-.49.05-.97.1-1.44.15-.33.01-.65.02-.97.03-.33.02-.59.03-.83.03-.24,0-.48.02-.71.03-.93.03-1.76.12-2.58.2-.82.06-1.65.15-2.46.09-.8-.05-1.59-.21-2.26-.53-2.63-1.36-2.86-4.73-.23-6.85-.97-.79-1.6-.98-2.12-.37-.52.58-.83,1.86-.91,3.21-.06,1.36.25,2.74.6,3.57.17.42.3.71.34.84.03.13-.09.13-.38-.1,0,.78-.29,1.14-.83,1.1-.28,0-.57-.15-.88-.39-.34-.23-.62-.58-.92-1.02-1.19-1.74-1.37-5.09-.83-7.32.16-1.13.74-2.19,1.43-3.15.36-.51.82-1.13,1.28-1.72.45-.6.95-1.23,1.49-1.92,1.04-1.37,2.21-2.94,3.36-4.94.3-.5.6-1.03.89-1.59.14-.28.29-.57.44-.86.14-.28.29-.6.45-.97.64-1.42,1.25-3.01,1.76-4.8-.44,1.41-.18,1.6-.65,3.01,1.38-2.5,1.8-5.26,2.22-8.11.43-2.87.86-5.83,2.28-9.02-.92-2.08-.56-4.21-.38-6.03.18-1.82.2-3.33-1.33-4.02-.21,4.38-.6,8.78-1.23,13.19.32-3.8-.25-7.57-.58-11.79-.34-4.24-.45-8.95.69-14.91.62.95,1.32,4.58,1.61,7.1.59-1.75.53-3.47.45-5.2-.04-.86-.08-1.73-.05-2.61.02-.41.05-.93.12-1.27.06-.35.15-.72.28-1.04.4.11.71.42.94.81.12.23.21.37.29.75.08.34.14.73.19,1.14.19,1.66.17,3.87.06,6.3-.2,4.87-.82,10.61-.24,14.85.98-1.86.89-5.8.83-8.65-.05-2.85.01-4.68,1.6-2.51-1.97-3.1-1.63-6.59-1.23-10.58.21-2.06.37-2.52.32-3.63-.06-1.04-.36-2.18-1.16-4.09.63.6,1.26,1.18,1.89,1.73-.14-.42-.43-1.15-.66-1.99-.23-.84-.4-1.8-.31-2.44.73,1.8,1.51,3.34,2.3,4.62-.5-1.11-.61-2.03-.48-2.64.14-.62.48-.94,1.01-1.02.26-.04.6-.02.97.13.37.15.73.41,1.02.64.59.48.97.78,1.31.65-1.11-.8-1.73-1.24-2.07-1.48-.52-.39-.83-.87-1.08-1.55-.26-.67-.41-1.42-.73-2.13-.16-.35-.37-.7-.67-.98-.3-.29-.7-.48-1.12-.44.24-.78.79-1.16,1.26-1.23.48-.07.92.05,1.31.21.79.36,1.43.93,1.96,1.54,1.07,1.25,1.69,2.7,2.18,4.1.48,1.4.83,2.77,1.19,3.92.37,1.19.71,2.03,1.42,3.15-.23-.28-.39-1.01-.51-1.8-.1-.76-.15-1.6.49-1.21.35.82.64,1.78.73,2.58.1.81,0,1.45-.25,1.79.34.85.52,1.33.72,1.55.19.22.39.16.58-.04.19-.19.35-.52.55-.67.2-.15.44-.12.81.59-.7.85-.48,1.38-.1,2.57.17.56.37,1.29.25,1.99v.07s.05-.03.08-.04c.07-.04.14-.07.22-.11l.11-.04h.03s2.61,3.38,2.61,3.38h0s0,0,0,0h0s0,.01,0,.01c0,0-.07-.11-.13-.36-.07-.25-.14-.66-.15-1.23,0-.11,0-.28,0-.46,0-.17.01-.35.03-.52.02-.16.05-.34.06-.58l.04-.32v-.08s.01,0,.01,0h0s.06-.34.06-.34c.06-.25.12-.58.19-.91l.11-.47.06-.23s0,0,0,0c0-.01-.04-.06-.06-.07-.09-.07-.19-.12-.35-.22-.37-.21-.69-.4-.98-.56-.68-.39-1.3-.7-1.81-.9-1.03-.39-1.67-.29-2.26-.12-.6.13-1.16.32-2.13-.19-.95-.49-2.39-1.71-4.48-4.35l2.95,1.02c.99.3,1.98.61,2.94.89-1.8-1.34-3.62-2.75-5.35-4.25.86-.17,1.71-.34,2.57-.54-3.13-2.03-4.95-3.69-6.49-5.52-1.5-1.86-2.79-3.89-4.5-7.02-.1,1.06-.97,1.39-2.27.73-1.27-.66-3.03-2.3-4.58-5.15-.54-2.21.22-1.88.46-1.98.13-.05.16-.22-.1-.86-.28-.64-.82-1.76-1.73-3.74,1.93,1.39,4.05,2.56,4.35,6.78.76.03,2.07,1.09,2.8,1.1-.6-2.28-1.85-4.74-3.01-7.02-1.16-2.27-2.14-4.35-2.59-5.71.14.53.29,1.12.39,1.67.11.55.23,1.07.22,1.44-2.29-3.38-4.09-6.92-5.12-10.5.38-.84.71-.9,1.02-.63.3.27.58.88.94,1.5-.04-.26-.1-.5-.17-.74-.04-.23-.09-.45-.15-.68-.1-.45-.28-.92-.34-1.37-.07-.45-.23-1-.2-1.52,0-.27,0-.55,0-.86.01-.3.1-.58.16-.91.68.56,1.39.86,1.98,1.46.31.3.58.66.76,1.11.11.24.24.53.32.84.05.16.08.32.12.5.06.19.11.4.16.62-.18-.68-.21-1.26-.33-1.89-.01-.56-.1-1.18-.06-1.69.04-1.08.15-2.11.58-3.09.19.02.48-.07.88-.13.39-.06.72-.19,1.16-.21.41-.03.75-.05.98.01.26.07.38.21.32.44.2-.08.43-.16.62-.27.22-.1.35-.27.61-.39.5-.25.87-.65,1.5-1,.29-.18.57-.39.86-.6.34-.2.69-.4,1.04-.6.32-.2.65-.4.98-.6l.38-.25c.1-.07.13-.11.21-.17.5-.5,1.28-.89,2.07-.86.79.03,1.55.5,1.8,1.29.31-.1.77-.07,1.33.45.09.2.12.36.21.61l.12.42.12.49c.15.67.26,1.38.33,2.11.12,1.47.1,3.02-.04,4.48-.07.73-.15,1.43-.25,2.04-.09.6-.22,1.12-.2,1.24-.38-.09.98.36,1.75.77.43.22.82.37,1.22.59l1.12.65c1.44.9,2.46,1.87,2.86,2.52.44.67.16.83.33.06.14-.71.84-2.18,2.19-3.72.26-.31.52-.61.81-.88.14-.12.29-.29.45-.47l.49-.51.51-.49c.17-.15.4-.36.36-.32.06-.01.08-.09.12-.14.06-.12.14-.2.18-.34l.13-.43c.15-.64.26-1.37.36-2.21-.8-1.22-1.27-1.57-1.57-1.28-.3.28-.43,1.07-.63,1.77-.19.66-.44,1.24-1.02,1.07-.57-.16-1.53-1.1-2.98-4.03-1.05-2.09-1.42-3.5-1.51-4.34-.09-.85.19-1.19.57-1.37.75-.35,1.91-.06,1.85-1.7-.34-.49-.7-1.03-1.09-1.6-.36-.58-.75-1.2-1.14-1.87-.41-.67-.76-1.38-1.12-2.14-.18-.38-.36-.77-.53-1.17-.15-.4-.29-.81-.44-1.22-.6-1.67-.94-3.47-1-5.33,0-.46.02-.93.05-1.39,0-.19.05-.56.09-.9l.14-1.02c.06-.57.32-1.65.55-2.6.23-.97.51-1.96.82-2.97-.12,2.49-.49,5.19-.49,6.53l-.04.61c-.01.2,0,.29,0,.44,0,.27,0,.54,0,.82-.01.55.06,1.12.14,1.71ZM128.13,54.08c.63.55,1.5,1.35,2.44,2.55.5.72.99,1.37,1.47,2.47l.34.77c.11.32.22.65.31.99.09.33.18.67.25,1.01.07.36.12.8.16,1.2.03.41.05.82.06,1.23,0,.43-.05.9-.11,1.34-.11.9-.32,1.77-.65,2.6-.16.42-.33.82-.52,1.21-.19.36-.38.68-.59,1.01-.41.64-.9,1.29-1.29,1.67-.42.44-.85.83-1.28,1.18-.36.26-.72.5-1.07.7-.74.45-1.25.59-1.73.69.53-.63,1.05-1.23,1.56-1.83l.39-.47.45-.56c.3-.38.58-.77.85-1.15.6-.95,1.15-1.84,1.57-3.05.44-1.13.66-2.4.73-3.61.09-2.49-.5-4.34-1.11-5.94-.65-1.61-1.37-2.82-2.21-4.03ZM74.83,83.79c-1.28,1.51-4.06,2.46-7.15,2.63,2.04-.82,4.36-1.61,7.15-2.63ZM53.06,252.71c-.04-.08-.07-.14-.12-.21.35-4.62.19-2.98.12.21ZM53.24,262.26c.39.92.65.81.87.38-.57-.59-.87-2.71-1-5.15-.43.73-.66,2,.12,4.76ZM158.39,170.08c.35-.5.67-1.02,1.01-1.53-.64,3.99-.82,2.75-1.01,1.53Z"/>
      <path class="cls-3" d="M54.88,91.6c-.7-.32-.89-.68-1.05-1.05-.93.34-.98.72,1.05,1.05Z"/>
      <path class="cls-3" d="M183.49,81.03s-.03-.06-.04-.09c-.12.04-.22.11-.32.19.12-.04.24-.07.36-.1Z"/>
      <path class="cls-3" d="M41.83,232.67c-1.51-2-2.12-3.57-2.46-4.71-.29.36.06,1.93,2.46,4.71Z"/>
      <path class="cls-3" d="M62.92,285.34c-.27.62-.44,1.39-.93,2.02.33-.34.4-.49.48-.52.07-.04.12.02.2-.01.04-.48.04-1.04.25-1.49Z"/>
      <path class="cls-3" d="M52.46,268.69c-.33.34-.74.6-1.15.86-.39.28-.78.57-1.08.93l.73.6c1.51-1.14,2.83-2.05,3.31-2.55.48-.5.06-.66-1.8.17Z"/>
      <path class="cls-3" d="M63.71,289.41c.13.81.93-.73,1.87-2.7.32-.67.66-1.41,1.01-2.16-.08.17-.16.33-.25.49-.13-.88-.56-.33-1.09.79-.4.84-.93,2.14-1.53,3.58Z"/>
      <path class="cls-3" d="M66.89,283.9c.41-.86.81-1.71,1.24-2.54-.25-.33-.53.95-1.24,2.54Z"/>
      <path class="cls-3" d="M56.05,273.98c-.08,2.04,2.28.87,1.82,2.09,1.22.9.02-2.22-1.08-4.32-1.09-2.1-2.16-3.11-.74,2.22Z"/>
      <path class="cls-3" d="M65.49,290.67c-.33.05-.63.04-.9-.03-.28,1.02-.61,2.11-.96,3.28l1.86-3.24Z"/>
      <path class="cls-3" d="M50.66,288.63c.34,2.15.76,4.37,1.31,6.63.24-.42.65.17,1.1.92-1.33-3.75-1.89-8.01-2.41-7.55Z"/>
      <path class="cls-3" d="M53.07,296.18c.67,1.93,1.58,3.64,2.42,4.05-.67-.82-1.69-2.8-2.42-4.05Z"/>
      <path class="cls-3" d="M61.02,300.02c-.3.41-.57.83-.84,1.27-.36.7-.7,1.42-1.16,2.07-.46.63-1.04,1.28-1.87,1.42.57-.06,1.04-.4,1.41-.79.38-.39.68-.83.95-1.27.51-.91.99-1.82,1.51-2.7Z"/>
      <path class="cls-3" d="M44.45,214.7c-.04-2.53-.03-5.05.09-7.57-.59-.86-1.3,1.15-1.26,4.01.32,1.86.44,4.68,1.18,3.56Z"/>
      <path class="cls-3" d="M38.86,237.88c.33-2.11.78-2.27,1.41-3.47l-2.53-.15,1.11,3.62Z"/>
      <path class="cls-3" d="M38.26,215.18c-.72-.77-1.11-11.68-1.76-1.56.61.87.86,8.75,1.76,1.56Z"/>
      <path class="cls-3" d="M38.99,213.87c.25.63.48,1.27.75,1.9l1.43-2.07,1.49-2.11c-1.18.9-2.45,1.72-3.66,2.28Z"/>
      <path class="cls-3" d="M36.83,108.81c-1.68.34-2.96.83-3.95,1.25-.99.4-1.66.88-2.14,1.21-.96.7-1.11,1.17-1.23,1.62-.12.44-.2.84-.92,1.5-.37.32-.87.75-1.59,1.32-.37.28-.79.6-1.27.97-.47.4-.99.84-1.59,1.35-.38.75-.08.7.54.28.63-.42,1.56-1.24,2.6-1.9.51-.34,1.01-.7,1.49-.96.48-.26.91-.47,1.24-.61.66-.27.91-.24.38.36,2.99-2.53,5.81-3.57,7.16-4.29.69-.39,1.04-.69.96-1.01-.08-.34-.59-.71-1.69-1.08Z"/>
      <path class="cls-3" d="M30.4,115.19c-.47.42-.96.82-1.41,1.3-.45.49-.89,1.01-1.33,1.55.76-.8,1.31-1.42,1.76-1.86.45-.43.75-.74.98-1Z"/>
      <polygon class="cls-3" points="176.96 327.38 178.62 333.2 178.29 329.1 176.96 327.38"/>
      <path class="cls-3" d="M184.5,336.52l-1.77,2.41,3.75,2.24c-.75-1.23-2.07-3.46-1.98-4.65Z"/>
      <path class="cls-3" d="M114.81,38.26l-.74.33c.58,1.09,1.9,1.8,4.57,3.48-1.26-1.31-2.54-2.58-3.83-3.81Z"/>
      <path class="cls-3" d="M151.93,32.87l-1.61-.02c1.03.76,2.02,1.54,2.98,2.35-.44-.78-.9-1.56-1.37-2.33Z"/>
      <path class="cls-3" d="M197.25,81.16c-.66-2.21-2-4.62-2.42-6.79.8,2.26.76,4.34.87,5.68.09,1.34.26,1.91,1.55,1.11Z"/>
    </g>
    <g>
      <path class="cls-2" d="M222.17,342.24c-.1,1.7,1,1.09,1.2,1.35-.24-2.85-1.49-1.28-1.2-1.35Z"/>
      <polygon class="cls-2" points="219.67 314.12 220.11 314.62 219.01 310.47 219.67 314.12"/>
      <path class="cls-2" d="M219.69,287.83c-1.88,2.49.3,9.53-.36,14.21l-.43.77,1.51,2.11c-.24-5.69-1.24-13.09-.72-17.1Z"/>
      <path class="cls-2" d="M223.74,273.81c-.73.87-.63-3.03-.23,3.27.08-.32.13-.41.19-.59-.01-.57,0-1.35.04-2.68Z"/>
      <path class="cls-2" d="M223.7,276.48c.05,2.77.61-1.81,0,0h0Z"/>
      <path class="cls-2" d="M223.28,263.7l.65,3.65c.43-.76.53-4.01.84-2.8-.36-3.74-.79-2.97-1.49-.84Z"/>
      <path class="cls-2" d="M221.91,260.24l.28,1.89c.18-.33.24-.83-.28-1.89Z"/>
      <path class="cls-2" d="M222.77,266.14l-.58-4.01c-.3.53-.91.58.21,1.84-.56-.33-.02.46.37,2.17Z"/>
      <path class="cls-2" d="M222.49,268.4c-.41,2.05-.67,4.69-1.31,1.03.26,6.98,1.58,5.95,1.31-1.03Z"/>
      <path class="cls-2" d="M217.75,286.48l-.55,2.74.63,2.37c-.31-1.18.51-5.27-.08-5.1Z"/>
      <path class="cls-2" d="M224.25,240.97c-.4-.23-1.06,1.23-1.57,1.5l.46,2.69c.27-1.38.52-4.01,1.12-4.19Z"/>
      <path class="cls-2" d="M222.68,242.47l-.69-4.03c-.08,3.6.25,4.26.69,4.03Z"/>
      <polygon class="cls-2" points="219.83 259.59 221.27 266.21 219.81 258.31 219.83 259.59"/>
      <polygon class="cls-2" points="224.3 225.58 225.23 227.86 223.83 223.79 224.3 225.58"/>
      <path class="cls-2" d="M224.14,215.37c.76,1.69,1.3-2.32,1.77-.53-.14-2.77-.79-5.14-1.38-7.28.33,2.27.25,4.68-.38,7.81Z"/>
      <path class="cls-2" d="M223.66,203.98c.18,1.13.51,2.3.86,3.58-.18-1.2-.43-2.39-.86-3.58Z"/>
      <path class="cls-2" d="M222.19,231.57c.24-.31.87-.91,1.14-3.17l-1.12,1.59c0,.48-.01,1.03-.02,1.59Z"/>
      <path class="cls-2" d="M222.17,230.04l.04-.06c.03-1.72.05-2.91.06-3.43-.01.44-.04,1.49-.1,3.48Z"/>
      <path class="cls-2" d="M222.19,231.97c0-.15,0-.26,0-.4-.11.15-.15.24,0,.4Z"/>
      <path class="cls-2" d="M220.85,249.02c-.63-2.37-1.3-7.31-2.26-2.53.77,1.7,1.31-1.04,2.26,2.53Z"/>
      <path class="cls-2" d="M220.78,233.94l-.26,4.28c.3-.08.73-.86,1.04.32l-.78-4.6Z"/>
      <polygon class="cls-2" points="220.43 231.85 220.78 233.94 220.88 232.35 220.43 231.85"/>
      <path class="cls-2" d="M222.61,211.31c-.49-1.85-.53-3.87-.61-6.16-.22,2.45-.34,4.98-.34,7.39.35.34.99,1.4.95-1.23Z"/>
      <path class="cls-2" d="M222.3,220.41c-.03-.13-.04-.29-.06-.41-.09.25-.13.46.06.41Z"/>
      <path class="cls-2" d="M222.01,182.65c-.06.13-.14.23-.2.36.07.03.13.05.19.08v-.45Z"/>
      <path class="cls-2" d="M221.46,212.95c-.22,1.84.06,2.94.4,3.99-.11-1.38-.19-2.84-.2-4.4-.16-.15-.26-.18-.21.41Z"/>
      <path class="cls-2" d="M223.14,197.7c-.23.96-.43,2.05-.62,3.19.36-.94.91-2.85.62-3.19Z"/>
      <path class="cls-2" d="M222.55,219.38c.02.09.04.18.05.28.24-.6.12-.53-.05-.28Z"/>
      <path class="cls-2" d="M222.55,219.38c-.16-.95-.44-1.69-.69-2.44.09,1.12.21,2.16.37,3.06.08-.23.2-.46.31-.62Z"/>
      <path class="cls-2" d="M214.8,175.84c1.04.32,2,5.17.89,9.34.78,4.11,4.2,1.42,6.12-2.17-.45-.13-.87-.13-1.49-4.36-.57,1.48-1.33,9.39-2.27,5.82-.54-5.6.37-4.59.92-7.32-1.3,2.32-1.89-7.13-3.8-5.91l.67,4.91c-.3.09-.77-1.69-1.04-.32Z"/>
      <path class="cls-2" d="M221.7,191.08l.13,1.74c.18-1.98.6-3.41,1.41-6.02-.51-2.9-.89-3.5-1.24-3.7l-.15,8.57-.16-.6Z"/>
      <path class="cls-2" d="M221.83,200.64c-1.13-1.36-1.61-5.54-2.84-2.98.08,5.11.95,3.58,1.44,6.63-.28-8.25.63,2.37,1.27-3.59.19,1.62.25,3.08.3,4.45.14-1.48.31-2.92.52-4.26-.03.08-.04.13-.07.19v.04s0,0-.01,0c-.14.36-.23.47-.15.07-.01-.03-.02-.13-.02-.17-.16-.06-.3-.21-.43-.37.23-2.39.29-.38.43.37.06.03.11.09.17.1,0,0,.01-.02.01-.03l-.62-8.26c-.16,1.75-.13,3.94,0,7.82Z"/>
      <path class="cls-2" d="M216.15,242.09c.1-.26.18-.24.26-.26-.14-.53-.23-.74-.26.26Z"/>
      <path class="cls-2" d="M216.84,238.69c.16.6.61,1.1.49,3.05-.34,1.69-.54,0-.91.08.3,1.18.81,4.12,1.36.43l-.15-.58c.39-3.33,1.8-7.6,1.96-7.02-1.02.97-1.75,1.83-2.75,4.04Z"/>
      <path class="cls-2" d="M219.05,219.42l-.56-6.88-.98,3.5.59-.18c-.23,3.91.49,3.07.95,3.55Z"/>
      <polygon class="cls-2" points="222.57 181.87 223.77 182.78 222.08 178.81 222.57 181.87"/>
      <polygon class="cls-2" points="222.43 172.93 223.47 173.26 222.84 170.9 222.43 172.93"/>
      <path class="cls-2" d="M13.61,107.82l.3,2.02c-.09-.96-.19-1.57-.3-2.02Z"/>
      <path class="cls-2" d="M13.68,93.19l-.51-.36c.28.68.49.96.51.36Z"/>
      <path class="cls-2" d="M167.52,2.02c-2.53-1.13-5.35-2.89-5.04-1.52l.78,1.33c1.76-.24,3.12-.09,4.27.2Z"/>
      <path class="cls-2" d="M38.55,9.96c.24.13.49.27.74.4.61-.46,1.19-.89,1.71-1.27-.73.26-1.57.56-2.44.87Z"/>
      <path class="cls-2" d="M36.77,15.46l-3.33-.86c.75.3,1.82.59,3.33.86Z"/>
      <path class="cls-2" d="M14.82,187.73l1.16,2.36c0-3.69-.59-2.07-1.16-2.36Z"/>
      <path class="cls-2" d="M222.01,81.39c.45-2.54.63-4.56.69-6.34-.65,3.06-1.64,5.53-.69,6.34Z"/>
      <path class="cls-2" d="M1.51,102.07c.21,1.24.44,1.77.69,1.73-.2-1.27-.41-1.99-.69-1.73Z"/>
      <path class="cls-2" d="M222.69,67.71c-.11.45-.17.89-.27,1.34.19,1.86.35,3.73.27,5.99.49-2.26.79-4.85,0-7.34Z"/>
      <path class="cls-2" d="M122.28,336c.18.06.4.09.56.16.05-.18-.2-.19-.56-.16Z"/>
      <path class="cls-2" d="M194.71,349.42c-.71.08-1.88.08-2.97.1.53.09,1.43.08,2.97-.1Z"/>
      <path class="cls-2" d="M222.93,136.97c.07,1.9.13.3,0,0h0Z"/>
      <path class="cls-2" d="M218.42,146.19c-.13-.4-.29-.71-.55-.76.27.16.45.42.55.76Z"/>
      <path class="cls-2" d="M215.6,48.83c0-.06,0-.1,0-.16-.22.56-.18.47,0,.16Z"/>
      <path class="cls-2" d="M222.41,139.82c.14-.71.26-1.53.34-2.42-.09.39-.2,1.13-.34,2.42Z"/>
      <path class="cls-2" d="M222.95,139.44c-.04.65-.08,1.17-.11,1.66.19.24.31.03.11-1.66Z"/>
      <path class="cls-2" d="M222.87,134.33c.02,1.08-.04,2.1-.12,3.07.08-.37.14-.53.18-.43-.01-.56-.03-1.34-.06-2.64Z"/>
      <path class="cls-2" d="M10.82,322.26c-.04.13-.06.27-.11.41.47,1.91.4,1.07.11-.41Z"/>
      <path class="cls-2" d="M125.2,15.83c.08-.01.12-.05.19-.06-.08-.01-.17-.03-.24-.05l.05.11Z"/>
      <path class="cls-2" d="M119.36,16.82c2.49-1.65,3.9-1.45,5.79-1.1l-1.93-3.83-3.85,4.93Z"/>
      <path class="cls-2" d="M13.94,142.86l1.02-4.78c1.69,5.77,1.11,9.95,2.55,5.46-3.57-.68-.37-18.59-3.93-19.25l.75-3.15c-.03.9.18,1.05.14,1.94,1.71-6.13-2.58-4.55-2.07-12.45.27-2.75.79-4.67,1.22-2.8l-.88-6.13c.07-1.78.69-1.35.62.43l-.28-9.35.11.07c-.56-1.33-1.43-4.36-1.79-5.84.51-2.38.38,1.19.82.58l-.87-5.18c.93-2.11,1.82,2.18,1.69,5.76,3.56-4.84-.9-4.3,1.18-14.74l.45,4.89c2.03-3.15,1.29-6.97,2.55-12.5-.66,1.31-3.18,11.07-4.07,5.45.27-1.58.4-3.67-.32-6.7,1.27-.03.96-2.99.89-6.69l1.68.25c-.49-4.01-1.34-3.69-2.1-6.05.17-4.46,1.47-5.39,2.57-6.44.27-7.15-2.09,4.94-2.41-3.53.64-5.95-.04-10.12-1.05-17.24.58-4.16,1.03.73,1.51-.77l-.67-1.84-.17-.46c-.06-.14-.11-.35-.17-.38-.11-.14-.22-.29-.34-.45.03-.44.44-.22.65-.13-.26-.7-.68-.89-1.09-1.17-.41-.3-.82-.71-1.04-2.41-.81-.88-.39-2.14.16-3.08,1.24.41,2.44.88,3.38,1.08.96.2,1.66.12,2.45-.57.38.28.28.58.17.9-.12.33-.25.68-.13,1.06.09-.05.18-.1.26-.14l.13-.07c.05-.02.18-.04.27-.07.39-.09.74-.16,1.07-.24.66-.15,1.23-.27,1.73-.38,1-.22,1.72-.38,2.4-.56,1.37-.36,2.57-.79,5.5-1.88l4.98,1.29c-3.66-1.47,1.02-3.21,5.11-4.64-1.3-.71-2.41-1.33-3.15-1.63l6.54-1.05c.79.32.13.99-.94,1.81.45-.16.87-.32,1.2-.47,2.34.72,1.13,1.86-.55,2.95-.8-.39-1.59-.8-2.35-1.21-1.61,1.19-3.12,2.51-2.79,3.66.42-.23,1.24-.42,2.14-.53-.42.32-.69.61-.5.81.22.21.9-.23,1.97-.73l1.49,2.18.36-.87,8.55,1.37c6.12-2.2,11.44-5.44,21.15-6.34-2.41,1.6-.52,2.62-.65,4.52-2.65-2.01-7.52.85-12.55.45,2.63.21,2.05,1.12,1.38,1.43l8.97-1.83c-.2,1.55,1.91,1.16,4.25,1.81-1.77-3.07,6.69-2.04,10.34-2.99.23,1.03-.65,2.08-5.1,1.83,4.92,2.31,6.35-3.6,11.18-1.64-1.09.03-1.67-.13-2.1.39,2.54-.92,8.75-.19,7.29.71l-1.09.02c7.22.36,21.98.02,23.06-2.58.07.34-.95,3.14-1.38,3.67l12.89-8.77c-1.14,2.24,3.22,7.57-2.77,8.83,1.72.32,3.85.69,7.47-.1-1.17-.32-2.92-3.24-1.32-3.44,4.4,2.49,3.05,1.33,8.48,3.46-1.76-.48.2-3.99,2.97-3.88-.43.53.23,3.46-.78,3.83l6.92-3.45c-1.73.62-.3,2.92,1.24,3.89-.72-.68,5.98.06,7.82-.28l-2.93-.8c7.81.52,7.71-4.85,15.46-4.67-.94.71-2.32,4.38,1.62,4.81,1.81-1.77,7.99-8.49,14.85-9.85l1.31,1.01,5.26-1.15c-3.27,2.66-12.46,8.24-17.48,10.42,2.92.8.81,1.19,5.19,1.1,1.55.95-2.39,1.43-3.67,1.49l10.19.61c-.45-2.06,7.79-2.07,7.4-3.78l-11.07,2.14c-.45-2.06,6.4-5.85,13.62-5.48,1.84.82-1.37,3.67-1.22,4.35.94-.71,6.85-1.35,7.51-.85l-3.06,1.1c1,.19,1.92.12,2.8-.07.44-.09.87-.22,1.3-.35l.32-.1c.1-.03.12-.07.18-.1l.34-.2c.46-.27,1.01-.5,1.57-.54.55-.04,1.13.11,1.46.6.41.07.57.76.55,1.25-.41.96-.67,1.5-.15,1.1.77-1.16,2.17-3.18,3.68-5.21,1.35-2.07,3-4.33,4.99-5.82.47-.44.85-.52,1.1-.32-.07.53-.55,4.52-1.14,8.21-.59,3.74-1.29,7.12-1.78,8.08-.79,1.6-1.73.4-2.65-.86-.91-1.27-1.8-1.68-2.48-.88.12,0,.25.07.38.18.06.05.13.12.19.19.06.06.12.24.18.36.23.55.43,1.17.53,1.54-.41,2.04-1.5-.84-1.28,3.59,1.79.74-.15,9.02,1.51,2.1.51,4.34-.37,4.61-.29,9.7,1.16-1.62,3.94,4.57,4.45,8.92-.46-.26-1.05.72-1.32,1.19-.16,8.89-.98,13.66-.99,21.95-.43.76-.96,4.76-1.73,3.06.32,1.19.92,2.29.97,4.85-1.55,4.95-.24-5.7-2.1-1.93,1.04.32,1.44,6.61,2.09,10.26,1.61-1.12.31-8.42-.34-12.06,2.22-.02,4.54,6.33,5.57,15,.55,6.89-1.43,2.99-1.12,4.18-.39,12.94,3.87,11.02,2.27,21.76-1.41,4.26-2.81.19-3.83,1.14-.54-5.61.9-8.61.84-12.42l-.67,4.68c-.47-1.78-.83-5.53-.42-7.57-1.27,3.57-.24,21.85-1.42,31.84.47,1.77.96,4.83,1.53,3.39l-.2-3.16c1.14-2.9,1.58,5.94,2.11,1.95.8,4.24,2.06,8.98,1.42,14.95l-1.61,1.12c.47-.13.96-3.9.47-5.57.71,2.49-2.18,9.14-.07,11.87l1.12-4.18c.81,4.25,2.52,9.51,2.01,14.8,1.59-2.4-.18-1.22,1.68-4.97-2.32,3.26.1-13.52-2.34-8.29,2.16-3.85.92-6.67,2.76-11.71-.53.16-1.02,1.78-.75-2.65-.16-.2-.35-.67-.47-.97.02-.14.02-.18.04-.3-.02.09-.04.15-.06.24-.08-.19-.1-.21-.02.09-.23,1.06-.51,1.91-.81,2.26-1.22-2.2-1.18-9.26-1.81-11.64.25-2.63.61,1.1,1.18-.34l-.94-3.56c1.18-.35,1.96-6.99,2.65-.79l.05-5.58c.66-3.29.93-7.81.43-10.59.26-2.63-1.31-6.65-.38-4.36l-.73-8.75.3-.08c.15-8.64-1.95-17.78.18-27.66-.3-2.91-.66-5.91-.33-10.78l1.02-.95c-.36-3.73,1.02-11.21-.04-12.82,1.37-2.01,1.52-6.54,1.39-11.39-.07-2.42-.2-4.93-.29-7.23-.04-1.15-.08-2.26-.08-3.28,0-.61,0-1.19.01-1.74.01-.85.03-1.65.06-2.41-.44-.08-.89-.15-1.33-.2.05-5.48-.12-10.77-.42-16.34-2.09.15-4.32.31-6.7.49-.08.46-.18.92-.28,1.37-1.71.28-3.46.36-5.36.33-.95-.02-1.93-.07-2.97-.13-.51-.04-1.02-.07-1.55-.11-.36-.04-.73-.09-1.1-.13-2.97-.37-6.24-.86-9.52-.79.45-.53,2.11-.39,3.29-.07-7.84-3.1-16.54,2.26-23.66,0-1.77.5-3.06.33-4.3-.02.17,0,.31-.03.44-.07-.18-.02-.45-.02-.73-.02-.78-.24-1.59-.51-2.46-.73.74.33,1.45.61,2.07.74-1.37.03-3.44.2-5.47.54l-.87-1.48c-.17.02-.3.02-.47.04-1.99-.54-1.6.7-.54,1.81-1.02.24-1.96.53-2.69.89-1.62-2.38-5.33.8-7.54-1.74-1.37,1.24-10.21.93-11.3,3.54-.07-.34-.67-.5.43-.52-2.27-.3-4.53-.59-6.56.14l-.96-1.88-4.95,2.52c-3-1.14-4.25-1.81-1.27-3.25-7.2,2.22-5.85.84-11.97,3.04l.3-1.21c-2.19.05-5.69,1.67-7.01.67-4.9-2.31-24.24-.32-36.82-2.46,2.44,3.57-5.85-1.6-6.34,1.17-.73-.84-2.49-1.32-.45-2.06-6.42.83-9.64-1.34-14.07.99-.73-.85,1.37-1.24.72-1.74-.51.18-2.04.73-2.71.23-.65-.5.94-.71,1.96-1.08-6.56.14-7.22,2.75-7.7,5.19-3.32-1.16-4.98-.99-7.38.61-1.16-.8-3.09-1.64.99-1.92-2.29-.12-14-1.17-14.23.79-.72-.5-3.2-.15-3.81.08-3.24-.08-5-.12-6.75-.17-1.88-.04-3.77-.03-7.1.06l2.1.32c-.37.84-1,1.15-1.97,1.21.05,1.13-.08,2.17-.19,3.48-.12,1.3-.23,2.88-.15,4.84l-.21-.27c-.18,1.64-.31,3.03-.39,4.19-.04.58-.07,1.1-.1,1.56-.02.41-.03.77-.04,1.09-.03,1.12.05,1.7.13,2.28.15,1.16.27,2.29-.56,7.66l1.26-.58c2.71,1-1.6,9.51-.56,15.74l.72-2.25c.93,3.4-3.69,9.51-4.03,12.93-.24.74-.38-1.18-.55-2.22-1.6,8.95,1.65,1.16,2.04,7.83-.89,1.23-2.27-1.58-2.43,2.9-.72,2.24,2.89,13.01,1.18,19.14.69-1.35,1.37-2.69,1.89.41.25,4.75-2.6,12.83-.43,17.12-.19.6-.37.83-.54.86.56,3.63.93,11.79,2.1,13.98-4.35,3.35,2.12,22.55-1.9,22.47l.21,11.16-.41-.29c-.27,7.13.7,9.66,1.66,12.16-.27,1.65-.65.45-.86.31-.81,10.42-.64,11.46,1.36,20.2l-1.3.91c.76,2.37-2.04,15.07-.52,25.29-.15-.1-.4-.31-.58-1.12,1.53,11.5-3.61,27.53,1.13,31.75l1.17,7.59c.37-9.82,2.06,1.46,2.85-2.58.28,3.86-1.43,9.98-1.67,5.24l.24-.74c-2.47-1.74-.88,12.2-2.56,11.94.12,19.32-1.25,38.15-1.35,56.25l1.92-2.09-.11,6.31c-.45,1.66-1.5,2.22-1.42-2.28-1.09,2.37.91,7.55,1.33,7.68-.78,8.82-2.24-3.44-2.29-.74l.14,3.67.22-.83c.1.37.2.7.29,1,.05.15.1.3.15.44.05.15.1.24.14.47.19.8.36,1.5.51,2.29.29,1.59.48,3.51.43,7.38-.19,2.57-.49,3.5-.75,4-.26.51-.48.59-.51,1.67-.13.11-.19.8-.08,2.86.09,0,.24-.02.4-.03l10.54.19c-1.27-.59-2.41-1.18-3.41-1.77,2.34-.44,4.51-.41,5.69-.53.58-.06.89-.15.81-.36-.08-.21-.56-.52-1.45-1.02.64.39,1.68.69,3.04.94,1.09.24,2.24.42,3.58.56,2.65.26,5.77.34,8.84.34,6.14.01,12.06-.24,13.48.24,4.24-1.29,8.42-1.27,13.6-1.11-1.29-.37-2.06-2.36,2.41-2.11-1.63,4.11,8.18,1.78,11.79,4.74-3.23-1.96,12.7-.48,7.64-3.26,3.73.33.23,1.54,3.05,2.5,8.87-1.59,19.55,1.03,30.52.5.17-.54-1.67-1.36.69-2.16l5.79,2.69c2.17-.26,1.99-3.11,5.95-1.24-.56-.45-1.39-1.14.06-1.31,21.48,2.63,43.9-2.15,65.72,2.78-2.95-1.04-.99-1.15,1.27-1.19-1.47-.25.03-1.33-.25-2.06l9.13,2.03c1.66-2.03,9.79-.14,10.75-2.08l-2.89.35c3.85-2.29-5.38-5.08-4.82-8.02-4.31,2.6-11.36-3.85-18.42-.13-1.56-.6,1.33-.95.5-1.63-1.79,1.26-3.95,1.52-7.96.96l.45-.31c-11.26.31-16.09-.93-28.74-1.76l.94,1.45c-2.72-.19-3.29-.65-4.56-1.01-3.12,2.2,7.64.12,4.79,2.55-3.61-2.95-19.17-.04-21.61-3.4-4.18-.02,1.23,1.68-2.95,1.66l-1.11-.91-1.06,1.17c-2.74-.19-4.13-1.33-4.23-2.1.67.09,1.89-.22,2.6-.28-3.56-1.07-10.03.37-11.25.02l4.02.56c-11.41.85-25.35-.34-36.38,1.5l.84.69c-8.42,1.27-6.75-.75-15.99-.17l.34-.16c-1.85.68-4.32,1.03-6.85.95,2.33-.8-4.39-1.56-1.33-2.45-9.13,1.36-4.52,1.07-10.55,3.61l-1.39-1.14c-2.06,1.03-2.23,1.57-6.84,1.86,3.79-.98-2.95-1.73,1.3-3.02-9.69-2.49-14.39,2.51-18.83-1.13-4.45,3.15,8.39,1.75,5.89,2.42,2.09,1.03-3.67,2.35-6.71,2.03-.35,0-.7-.07-1.03-.16-.28-.1-.54-.23-.8-.4-.51-.33-.98-.76-1.41-1.21-.44-.45-.85-.91-1.29-1.3-.44-.38-.91-.69-1.58-.82.04-.39.06-.77.06-1.16-.01.46.19.28.18.72.34-1.18.11-1.64-.07-2.41-.18-.71-.3-1.75.25-2.78-.1-.06-.19-.13-.27-.2-.04-.04-.07-.07-.11-.11l-.09-.23c-.11-.31-.19-.62-.24-.94-.1-.63-.1-1.25-.12-1.82-.03-1.14-.12-2.08-1.16-2.42l.24,4.16.06,1.04c.01.2.02.3.03.4l.03.32.12,1.26c-.07-.34-.17-.68-.28-1.04-.12-.37-.25-.67-.39-1.36-.29-1.2-.6-2.44-.87-3.77-.53-2.67-.84-5.72-.25-9.61.42.61.97,2.92,1.28,4.51.61-2.27-.41-4.38.22-6.74,2.08.67.45,10.12,2.04,15.18.88-2.44-1.51-9.57.75-7.02-2.87-3.65.36-8.94-1.83-15.09l1.25.41c-.2-.97-.79-2.99-.75-4.78l1.62,3.24c-1.38-4.98,1.21-9.59.46-14.37.04,9.99-1.5,2.24-2.41,6.47-1.67-12.33,3.26-7.09,2.66-20.89.18,1.87-.75,7.01-1.33,4.09.26-2.63.74-6.1,1.39-7.71-.26-9.14-1.28,1.4-2.05-2.49,1.52-3.11-.62-4.49-1.11-8.5l1.27-.03c.81-10.42-2.64-2.76-1.66-12.14l1.76,3.97-.45-4.89,1.44,1.01c-1.07-5.32-.79-6.98-.39-12.19-.89,1.21-2.3-.68-2.34-5.3.75-3.15,1.21,1.76,1.02-4.78.79,1.48,1.79,3.1.62,5.94.41.29.8,1.46,1.2,1.76.87-3.39.2-8.52.19-10.89-.05.91-.12,2-.3,2.56l-1.76-9.48c.48-1.49.86-.31,1.23.86-.14-1.92-.72-3.25-.83-6.07,1.03.73,2.09.56,2.58,4.55l-1.14-9.04c.45-.6,1.23-4.64,1.61-3.46.61-5.01-2-12.29-1.2-18.93-.2-.35-.39-1.04-.54-2.45.23-6.24,1.5-11.77.08-19.17l1.85-4.2c-.42-5.79-2.33,5.68-3.03-3.97-.59-6.83,1.58-2.55,2.09-4.95-.93-3.4-2.83-9.3-1.32-15.58.35,2.08.07,3.71.21,5.65ZM13.12,71.4c.27,1.38,1.09,4.14.34,5.16-1.45-1.58-.76-2.8-.34-5.16ZM47.58,12.8c-.88.49-2.25.25-3.79-.31,1.12-.12,2.39-.07,3.79.31ZM221.9,116.19c-.02-.06-.04-.1-.06-.15.49-3.09.3-1.99.06.15ZM221.35,122.6c.18.64.35.6.53.33-.32-.45-.34-1.89-.25-3.53-.33.46-.56,1.28-.28,3.2ZM2.28,347.89l.33-2.18c.18,1.89.19,2.59.11,2.77-.08.18-.26-.2-.44-.59Z"/>
      <path class="cls-2" d="M37.01,14.82c-.34-.25-.43-.53-.51-.8-.47.25-.48.54.51.8Z"/>
      <path class="cls-2" d="M14.6,187.3c-.01.07,0,.14-.01.22.08.12.15.18.23.22l-.21-.44Z"/>
      <path class="cls-2" d="M210.59,23.25c.09-.66.19-1.17.31-1.58.06-.24.11-.28.17-.38.06-.09.12-.17.18-.24-.16,0-.3.08-.41.28-.03.07-.06.08-.08.21-.02.13-.05.28-.07.45-.04.34-.07.75-.09,1.26Z"/>
      <path class="cls-2" d="M223.5,156.59l-.33-4.11c.06,1.99-.21,2.7-.42,3.7.3-.09.73-.88.75.41Z"/>
      <path class="cls-2" d="M215.65,192.25c.16.6.02,1.27.17,1.87l.59-.16c-.04-2.56-.51-4.35-.76-1.7Z"/>
      <path class="cls-2" d="M219.29,160.39c-1.07.33-.7,2.9-.51,5.78,0-.17-.01-.34,0-.51,1.49.85,1-2.22.51-5.27Z"/>
      <path class="cls-2" d="M218.82,166.84c.05.89.08,1.79.03,2.66.6.34.12-1.08-.03-2.66Z"/>
      <path class="cls-2" d="M222.05,130.74c-.27,1.36,1.36.86.93,1.63,1.36,1.52-1.64-9.1-.93-1.63Z"/>
      <polygon class="cls-2" points="215.77 162.72 217.09 161.69 216.03 160.08 215.77 162.72"/>
      <path class="cls-2" d="M216.74,140l-.36,4.6c.22-.07.35.51.45,1.23.04-2.83.31-5.94-.08-5.83Z"/>
      <path class="cls-2" d="M216.82,145.83c-.03,1.48,0,2.88.22,3.7-.01-.8-.06-2.52-.22-3.7Z"/>
      <polygon class="cls-2" points="215.38 156.44 215.65 155.08 215.75 151.83 215.38 156.44"/>
      <path class="cls-2" d="M216.99,90.57l-.38-5.02c-.45-.51-.73.86-.55,2.72.31,1.2.49,3.06.93,2.29Z"/>
      <path class="cls-2" d="M213.39,105.75c.27-1.36.57-1.45,1-2.21l-1.63-.15.63,2.37Z"/>
      <path class="cls-2" d="M213.01,91.11c-.45-.5-1.3-7.28-1.2-.92.45.51.83,5.54,1.2.92Z"/>
      <path class="cls-2" d="M215.07,15.91l.02,1.18c.89-.47,1.78-.96,2.68-1.46-.9,0-1.8.09-2.7.28Z"/>
      <path class="cls-2" d="M163.61,17.93c5.1.75,1.21-1.93,5.82-.99,1.2-.74-3.77-.76-2.54-1.4-3.08.78-4.7.34-3.28,2.39Z"/>
      <path class="cls-2" d="M166.89,15.54c.49-.12,1.02-.27,1.57-.47-.89.19-1.31.34-1.57.47Z"/>
      <polygon class="cls-2" points="206.73 351.09 210.01 351.74 207.89 350.69 206.73 351.09"/>
      <path class="cls-2" d="M213.02,348.78l.77,1.99,1.97-1.8c-.74.09-2.18.26-2.74-.19Z"/>
      <path class="cls-2" d="M16.55,60.78l-.41-.29c-.44.59-.48,1.49-.55,3.28l.96-2.99Z"/>
      <polygon class="cls-2" points="15.28 112.64 15.31 111.75 13.77 113.42 15.28 112.64"/>
      <path class="cls-2" d="M17.24,156.17c.06-1.78-.28-3.86-.21-5.65.28,3.87-1.71,6.13.21,5.65Z"/>
    </g>
    <g>
      <path class="cls-1" d="M111.33,174.97h-6.07c-1.24,0-2.21-.28-3.03-.96-.83-.69-1.52-1.65-1.93-2.76-.41-1.52-.96-3.03-1.52-4.55-.69-1.52-1.38-2.89-2.07-4.27-.41-.69-.41-1.38-.14-1.79.28-.41.83-.55,1.65-.41h2.62l10.48.28h2.89c1.24-.14,2.21-.41,2.62-.69.41-.41.69-1.1.69-2.07v-.96c0-.55-.28-.83-.83-.83h-25.5c-.69,0-.83-.14-.28-.28l.28-.28c.55-.14.41-.28-.28-.28h-8.82c-1.52,0-2.76-.41-3.58-1.38-.96-.83-1.38-2.07-1.38-3.58v-2.48c0-1.52.41-2.76,1.38-3.72.83-.83,2.07-1.24,3.58-1.24h35.15c1.38,0,2.07-.69,2.07-2.07s-.69-2.07-2.07-2.07h-28.53c-1.52,0-2.76-.41-3.58-1.38-.96-.83-1.38-2.07-1.38-3.58v-2.21c0-1.52.41-2.76,1.38-3.72.83-.83,2.07-1.24,3.58-1.24h28.81c1.24,0,1.79-.69,1.79-1.93s-.55-1.79-1.79-1.79c-2.34.14-4.69.28-6.89.28-2.34,0-4.55,0-6.75.14-2.34.14-4.69.14-7.03,0-2.34,0-4.69-.14-7.03-.28-.69,0-1.38.14-2.07.41l-2.89,1.1c-1.65.69-2.76,0-3.17-1.79-.14-.41-.14-.96-.28-1.38-.14-.41-.28-.96-.41-1.38l-.83-2.48c-.69-1.65-.14-2.48,1.65-2.48h5.65c1.79,0,3.72,0,5.51-.14l13.23-.41c.69,0,1.24-.14,1.79-.41l4.96-2.07c.55-.28,1.1-.41,1.79-.41,6.2-.41,12.54-.69,18.75-1.1,6.2-.41,12.41-.96,18.61-1.79,2.07-.28,3.03-.55,3.03-.83-.14-.14-1.1-.28-3.17-.28h-2.76c-2.62,0-4-1.38-4-4v-.28c0-2.21-.83-2.62-2.62-1.1-1.1.96-2.21,1.79-3.17,2.62-1.1.83-2.21,1.65-3.45,2.34-1.38.83-2.48.55-3.45-.83-.96-1.1-2.21-1.38-3.72-.83l-2.07.83c-1.52.69-2.76.41-3.72-.83l-3.17-3.17c-.96-.96-.83-1.65.41-2.34,1.52-.69,2.89-1.38,4.27-2.21,1.24-.69,2.62-1.52,3.86-2.48l2.07-1.52c.14-.14.41-.28.55-.41.14,0,.28-.14.41-.28,1.1-.96,1.52-1.79,1.24-2.48-.28-.69-1.1-.96-2.62-.96h-1.65c-1.52,0-2.76-.41-3.58-1.38-.96-.83-1.38-2.07-1.38-3.58v-3.17c0-1.52.41-2.76,1.38-3.72.83-.83,2.07-1.24,3.58-1.24h7.99c1.52,0,2.34-.83,2.34-2.48,0-1.52-.83-2.34-2.34-2.34h-7.86c-1.24,0-1.52-.28-.55-.83l.83-.28c.96-.55.83-.83-.55-.83h-16.54c-1.65,0-2.48.83-2.48,2.34,0,1.65.83,2.48,2.48,2.48h5.79c1.65,0,1.79.28.28.96l-.55.28c-1.24.41-1.1.69.14.69s1.93.69,1.93,1.93v6.2c0,1.52-.41,2.76-1.24,3.58-.96.96-2.21,1.38-3.72,1.38h-9.51v.69l8.41,4,5.65,3.17c.96.69.96,1.38.28,2.07l-6.62,7.17c-.83.96-1.65.96-2.62,0l-3.31-2.89c-1.24-.96-1.79-.55-1.79.96v2.21c0,1.38-.41,2.48-1.24,3.31-.96.96-2.07,1.38-3.45,1.38h-5.1c-2.89,0-4.27-1.38-4.27-4.27v-.83c0-2.21-.83-2.62-2.62-1.1-.41.41-.83.69-1.24.96-.41.41-.96.69-1.38,1.1l-2.89,2.07c-.69.41-1.24.55-1.65.55-1.1,0-2.07-.55-2.76-1.52-.28-.41-.55-.83-.83-1.24-.41-.41-.69-.83-1.1-1.24-.14-.14-.14-.28-.28-.41q-.14,0-.28-.14l-1.1-1.24-.55-.55c-.69-.69-1.1-.96-1.52-.83-.41.14-.69.83-.83,1.79v4.96c-.14,1.79-.14,3.58-.28,5.38-.28,3.72-.55,7.58-.83,11.58-.14,2.21.83,2.89,3.03,2.07,2.07-.96,3.03-.28,2.76,2.07-.69,5.79-1.65,11.44-2.76,17.09-1.1,5.65-2.76,11.3-4.82,16.82-.41.41-.83.83-1.24,1.24-.55.14-.96.41-1.38,1.1l-1.65,3.86-1.52,2.89c-.41.96-1.1,1.1-1.93.28l-3.45-3.17c-.41-.41-.41-.83.28-1.1.41-.41.55-.69.14-1.1-.96-.96-2.07-1.79-3.17-2.62-1.24-.83-2.34-1.65-3.58-2.34-1.52-.96-1.79-2.21-1.1-3.72,1.52-3.31,2.89-6.62,3.86-10.06s1.93-6.89,2.62-10.48c.41-2.34-.41-3.03-2.48-2.07-2.07.83-3.03.14-2.76-2.07.41-2.48.69-4.96.83-7.58.14-2.48.41-4.96.55-7.44.14-2.62.28-5.1.41-7.72,0-2.48,0-4.96.14-7.31,0-.69.14-1.24.55-1.93.28-.55.69-.96,1.38-1.24l.55-.28c.69-.28,1.1-.69,1.52-1.38.28-.55.41-1.1.41-1.79v-29.63c0-1.38-.69-1.79-2.07-1.38-1.38.69-2.07.28-2.07-1.24v-6.2c0-1.52.41-2.76,1.38-3.72.83-.83,2.07-1.24,3.58-1.24h24.4c.69,0,1.38-.14,1.93-.41l2.21-.96c.55-.28,1.24-.41,1.93-.41h14.75c2.89,0,4.27-1.38,4.27-4.27v-2.89c0-.96.41-1.52,1.24-1.93l.28-.14c.55-.28,1.24-.41,2.07-.41h12.54c1.38,0,2.48.41,3.45,1.24.83.83,1.24,1.93,1.38,3.31v.55c.14,1.38.55,2.48,1.52,3.31.83.83,1.93,1.24,3.31,1.24h32.8c1.65,0,1.79.28.28.96-1.52.69-1.52.96.14.96h1.79c1.24,0,2.34.41,3.03,1.1.69.69,1.1,1.79,1.1,3.03v7.17c0,1.52-.41,2.76-1.24,3.58-.96.96-2.21,1.38-3.72,1.38h-12.54c-1.65,0-2.48.83-2.48,2.34,0,1.65.83,2.48,2.48,2.48h11.44c1.52,0,2.76.41,3.72,1.24.83.96,1.24,2.21,1.24,3.72v1.52c0,2.34,1.1,3.17,3.31,2.21l1.79-.83c.96-.28,1.38,0,1.38.83,0,.96-.41,1.52-1.38,1.52l-4.14.14c-.69,0-1.38.14-1.79.41l-1.79.69c-1.79.96-1.93,1.93-.41,2.89,3.03,2.07,6.2,3.86,9.51,5.38,2.07,1.1,2.34,2.48.55,4-.41.41-.69.83-1.1,1.24-.41.41-.96.96-1.38,1.38-.41.41-.83.96-1.24,1.38-.41.41-.69.96-1.1,1.38-.83,1.1-1.93,1.65-3.17,1.65-.69,0-1.38-.28-2.07-.69-.55-.41-1.1-.83-1.52-1.24-.55-.41-1.1-.83-1.65-1.24-.55-.41-1.1-.96-1.52-1.38-.55-.41-1.1-.83-1.65-1.24-.69-.69-1.24-.96-1.79-.96-.83,0-1.24.83-1.24,2.34v2.48c0,1.38.55,2.62,1.52,3.58l4,3.72c1.65,1.52,2.34,2.89,1.93,4.13-.41,1.24-1.65,1.93-3.86,2.34-1.24.14-2.48.28-3.72.41-1.24.14-2.62.41-3.86.55-2.34.28-4.69.55-7.03.83-2.34.28-4.82.55-7.31.69-.69,0-1.24.28-1.65.69-.41.41-.69,1.1-.69,1.79,0,1.65.83,2.48,2.48,2.48h16.95c.69,0,.83.14.28.28l-.28.28c-.55.14-.41.28.28.28h9.1c1.52,0,2.76.41,3.72,1.24.83.96,1.24,2.21,1.24,3.72v2.21c0,1.52-.41,2.76-1.24,3.58-.96.96-2.21,1.38-3.72,1.38h-28.53c-1.38,0-2.07.69-2.07,2.07s.69,2.07,2.07,2.07h34.6c1.38,0,2.48.41,3.45,1.24.83.96,1.24,2.07,1.24,3.45v2.89c0,1.1-.55,1.93-1.52,2.48l-.28.14c-.96.28-1.38.96-1.38,2.07,0,.96-.55,1.52-1.52,1.52h-4.69c-1.24,0-1.38-.14-.41-.55l.55-.28c.96-.41.83-.55-.41-.55h-30.46c-.83,0-1.24.41-1.24,1.24v1.24c0,1.79-.14,3.45-.28,4.96-.28,1.52-.69,2.89-1.38,4.13-.69,1.24-1.52,2.21-2.62,3.17-1.24.96-2.76,1.65-4.55,2.21-1.65.41-3.45.83-5.38,1.24-1.93.28-4,.41-6.2.55-1.79.14-3.58.14-5.38.28ZM74.26,99.3c2.21-1.24,4.41-2.48,6.48-3.86,2.07-1.38,4-3.03,5.79-4.82.69-.69.55-1.1-.41-1.1-1.24,0-1.24-.28-.14-.69l.69-.28c.69-.28,1.1-.55,1.1-.69-.14-.14-.55-.28-1.24-.28h-1.93c-1.24,0-2.34-.41-3.17-1.24-.83-.83-1.24-1.93-1.24-3.17v-3.72c0-1.52.41-2.76,1.38-3.72.83-.83,2.07-1.24,3.58-1.24h7.72c1.52,0,2.34-.83,2.34-2.48,0-1.52-.83-2.34-2.34-2.34h-11.58c-1.52,0-2.76.41-3.58,1.24-.96.96-1.38,2.21-1.38,3.72v16.26c0,.69-.14,1.24-.41,1.79-.41.69-.83,1.1-1.52,1.38l-.55.28c-.69.28-1.1.69-1.38,1.24-.41.69-.55,1.24-.55,1.93v.14c0,1.79.83,2.34,2.34,1.65ZM104.03,46.23c0-.41.28-.69.69-.69h.96c.41,0,.69,0,.69.14s-.28.41-.69.55l-.96.41c-.41.14-.69,0-.69-.41ZM160.54,91.3l1.65-.69c1.65-.69,1.52-1.1-.28-1.1h-3.86c-.55,0-.69.14-.28.55l1.24,1.1c.55.41,1.1.41,1.52.14Z"/>
      <path class="cls-1" d="M100.31,218.94c-.96.96-2.21,1.38-3.72,1.38h-43.56c-1.52,0-2.76-.41-3.58-1.38-.96-.83-1.38-2.07-1.38-3.58v-5.1c0-.96-.41-1.24-1.24-.83-.96.28-1.38,0-1.38-.83v-.69c0-1.38.69-2.07,2.07-2.07h5.79c.69,0,1.38-.14,1.93-.41l.69-.28c.55-.28,1.24-.41,1.93-.41h38.73c1.52,0,2.76.41,3.72,1.24.83.96,1.24,2.21,1.24,3.72v5.65c0,1.52-.41,2.76-1.24,3.58ZM68.47,310.74h-13.37c-.55,0-.83-.28-.83-.69v-.28c0-.41.14-.69.55-.69.28-.14.41-.41.41-.83v-31.01c0-1.65-.69-2.21-2.21-1.52-1.52.69-2.34.14-2.34-1.52v-4.82c0-1.52.41-2.76,1.38-3.72.83-.83,2.07-1.24,3.58-1.24h21.92c.69,0,1.38-.14,1.93-.41l2.62-1.1c.55-.28,1.24-.41,1.93-.41h9.23c1.52,0,2.76.41,3.72,1.24.83.96,1.24,2.21,1.24,3.72v22.74c0,.41-.14.69-.41.69-.41.14-.55.41-.55.83v9.1c0,1.52-.41,2.76-1.24,3.72-.96.83-2.21,1.24-3.72,1.24h-18.88c-1.52,0-2.34.69-2.48,2.21v.55c-.14,1.52-.96,2.21-2.48,2.21ZM88.87,259.88h-32.8c-1.52,0-2.76-.41-3.58-1.38-.96-.83-1.38-2.07-1.38-3.58v-4.96c0-1.52.41-2.76,1.38-3.72.83-.83,2.07-1.24,3.58-1.24h32.39c1.52,0,2.76.41,3.72,1.24.83.96,1.24,2.21,1.24,3.72v6.48c0,1.24-.55,2.21-1.79,2.62l-.83.41c-.55.28-1.24.41-1.93.41ZM63.09,201.85h-5.65c-1.52,0-2.76-.41-3.58-1.38-.96-.83-1.38-2.07-1.38-3.58v-4.96c0-1.52.41-2.76,1.38-3.72.83-.83,2.07-1.24,3.58-1.24h35.84c.55,0,.83.28.83.83,0,.69.28.83.83.55l.55-.14c.83-.41,1.24-.14,1.24.83v6.75c0,1.52-.41,2.76-1.24,3.58-.96.96-2.21,1.38-3.72,1.38h-23.98c-.83,0-1.52.14-2.07.41l-.55.28c-.55.28-1.24.41-2.07.41ZM92.17,239.48c-.96.96-2.21,1.38-3.72,1.38h-33.63c-1.24,0-1.24-.28-.14-.83l.96-.41c.55-.14.55-.28-.14-.28-.55,0-.83-.28-.83-.83v-9.1c0-1.52.41-2.76,1.38-3.72.83-.83,2.07-1.24,3.58-1.24h30.32c1.24,0,1.38.28.14.69-1.1.55-1.1.83.14.83h.69c1.65,0,2.48.83,2.48,2.48v7.44c0,1.52-.41,2.76-1.24,3.58ZM73.29,288.41c.83.96,1.93,1.38,3.31,1.38s2.48-.41,3.45-1.38c.83-.83,1.24-1.93,1.24-3.31v-2.34c0-1.38-.41-2.48-1.24-3.45-.96-.83-2.07-1.24-3.45-1.24s-2.48.41-3.31,1.24c-.96.96-1.38,2.07-1.38,3.45v2.34c0,1.38.41,2.48,1.38,3.31ZM97.14,257.95h-1.24c-1.24,0-1.38-.28-.28-.83l1.52-.55c.55-.28.83-.14.83.41,0,.69-.28.96-.83.96ZM120.71,283.86h-6.62c-.14,0-.28,0-.28-.14,0,0,.14,0,.28-.14.14,0,.28,0,.28-.14h-3.86c-1.24,0-2.21-.41-2.89-1.1-.69-.69-1.1-1.65-1.1-2.89v-24.12c0-1.65-.69-2.21-2.21-1.52-1.52.69-2.34.14-2.34-1.52v-24.67c0-1.52.41-2.76,1.38-3.72.83-.83,2.07-1.24,3.58-1.24h30.46c1.52,0,2.76.41,3.72,1.24.83.96,1.24,2.21,1.24,3.72v7.03c0,1.65.83,2.21,2.34,1.52,1.52-.69,2.21-.14,2.21,1.52v31.7c0,.41-.14.69-.41.69-.41.14-.55.41-.55.83v2.76c0,.96-.28,1.79-.83,2.48-.69.69-1.52.96-2.48.96h-12.82c-.14,0-.28,0-.28-.14,0,0,.14,0,.28-.14.14,0,.28,0,.28-.14h-5.1c-1.1,0-1.65.55-1.65,1.65v1.1c0,.41-.14.69-.41.69-.41.14-.55.41-.55.83v1.1c0,1.24-.55,1.79-1.65,1.79ZM144.14,312.12c-2.76.14-5.79.14-8.96.14-.41,0-.69-.28-.83-.69,0-.41-.14-.83-.41-1.24v-.14l-.41-.83c-.41-1.24-.96-2.62-1.38-4.13-.41-1.52-.96-3.03-1.38-4.55-.41-1.1-.83-2.21-1.1-3.17-.41-.96-.69-1.79-1.1-2.62-.83-1.79-.28-2.76,1.79-2.76l3.17.28,6.34.14h8.68c1.52,0,2.48-.28,3.03-.83.55-.41.83-1.38.83-2.62v-21.36c0-.41.14-.69.55-.83.28,0,.41-.28.41-.69v-31.01c0-1.65-.69-2.21-2.21-1.52-1.52.69-2.34.14-2.34-1.52v-18.75c0-1.52-.41-2.76-1.24-3.72-.96-.83-2.21-1.24-3.72-1.24h-13.51c-1.24,0-1.24-.28-.14-.83,1.1-.41.96-.69-.28-.69h-21.64c-1.52,0-2.76-.41-3.58-1.38-.96-.83-1.38-2.07-1.38-3.58v-9.37c0-1.52.41-2.76,1.38-3.72.83-.83,2.07-1.24,3.58-1.24h67.54c1.24,0,1.38.28.14.69l-.96.41c-.41.28-.28.41.14.41.69,0,.96.28.96.96v14.47c0,2.34-1.1,3.72-3.45,3.86h-.83c-2.34.14-3.45,1.52-3.45,3.86v11.16c0,1.65.83,2.21,2.34,1.52,1.52-.69,2.21-.14,2.21,1.52v31.7c0,.41-.14.69-.41.69-.41.14-.55.41-.55.83v31.7l.14,1.79c0,3.31-.55,6.06-1.52,8.41-.96,2.21-2.34,4-4.13,5.51-1.79,1.38-4,2.48-6.48,3.17-2.62.69-5.38,1.1-8.27,1.38-2.34.14-4.96.28-7.58.41ZM126.63,259.19c2.07,0,3.17-1.1,3.17-3.31v-10.61c0-1.65-.69-2.21-2.21-1.52h-.14c-1.52.55-2.21.14-2.21-1.38s-.83-2.34-2.34-2.34h-.83c-2.21,0-3.31,1.1-3.31,3.17v1.65c0,1.65.83,2.07,2.34,1.38,1.52-.69,2.21-.14,2.21,1.52v8.13c0,2.21,1.1,3.31,3.31,3.31Z"/>
    </g>
  </g>
</svg>