<?xml version="1.0" encoding="utf-8"?>
<!-- Generator: Adobe Illustrator 27.5.0, SVG Export Plug-In . SVG Version: 6.00 Build 0)  -->
<svg version="1.1" id="_x2014_ëîé_x5F_2" xmlns="http://www.w3.org/2000/svg" xmlns:xlink="http://www.w3.org/1999/xlink"
	 x="0px" y="0px" viewBox="0 0 800 1148.594" style="enable-background:new 0 0 800 1148.594;" xml:space="preserve">
<g>
	<g>
		<path style="fill:#00A4B7;" d="M181.316,239.047c-24.323,5.959,4.47,54.404,4.47,54.404s-68.747-60.76-90.16-26.833
			c-21.413,33.927,67.818,55.589,67.818,55.589s-52.6-1.267-45.011,27.039c7.589,28.306,100.206-15.177,100.206-15.177
			S205.639,233.088,181.316,239.047z"/>
	</g>
	<g>
		<path style="fill:#FF7BAD;" d="M423.551,132.931c-325.38-19.566-315.818,683.826-247.125,695.431
			c38.896,6.571,9.215-73.203,37.697-74.989c28.482-1.785-6.702,107.303,51.101,107.303c53.614,0,11.728-106.411,42.723-108.196
			s10.89,84.809,42.723,84.809c31.833,0,5.026-91.058,29.32-88.38c24.294,2.678-3.351,109.175,28.482,111.722
			c31.833,2.547,7.539-107.258,31.833-108.151s0,74.989,25.969,74.989c25.969,0,0.69-72.264,29.173-72.264
			c28.482,0-11.581,82.977,34.493,87.441c46.074,4.464,2.513-88.38,31.833-96.414c29.32-8.035-2.609,100.065,42.723,101.77
			C675.703,850.68,690.782,149,423.551,132.931z"/>
	</g>
	<g>
		<path style="fill:#FF7BAD;" d="M308.008,911.954c27.013-2.075,8.314-51.473,0-51.473S280.994,914.029,308.008,911.954z"/>
	</g>
	<g>
		<path style="fill:#FF7BAD;" d="M218.639,953.492c32.441-2.492,9.984-61.814,0-61.814S186.198,955.984,218.639,953.492z"/>
	</g>
	<g>
		<path style="fill:#FF7BAD;" d="M554.628,950.721c38.717-2.974,11.916-73.773,0-73.773S515.911,953.695,554.628,950.721z"/>
	</g>
	<g>
		<path style="fill:#FF7BAD;" d="M376.553,1015.94c56.706-4.355,17.452-108.05,0-108.05S319.847,1020.296,376.553,1015.94z"/>
	</g>
	<g>
		<path style="fill:#FFFFFF;" d="M477.061,208.764c-28.101,4.859,38.046,142.416,55.555,108.062
			C550.124,282.471,505.162,203.904,477.061,208.764z"/>
	</g>
	<g>
		<path style="fill:#FFFFFF;" d="M550.11,349.914c-16.846,7.025-0.151,63.228,17.495,54.798
			C585.251,396.282,566.957,342.889,550.11,349.914z"/>
	</g>
	<g>
		<path style="fill:#FFFFFF;" d="M179.084,548.66c20.398-6.048,21.726,89.505,0,88.295
			C157.358,635.746,158.686,554.708,179.084,548.66z"/>
	</g>
	<g>
		<path style="fill:#05090C;" d="M284.236,349.247c-21.251-2.421-26.973,67.624,0,67.624
			C310.391,416.871,305.487,351.668,284.236,349.247z"/>
	</g>
	<g>
		<path style="fill:#05090C;" d="M431.672,349.247c-21.251-2.421-26.973,67.624,0,67.624
			C457.827,416.871,452.923,351.668,431.672,349.247z"/>
	</g>
	<g>
		<path style="fill:#05090C;" d="M390.961,474.152c-29.768,2.375-59.677,1.714-89.394-1.232
			c-15.264-1.513-30.403-0.057-36.935,9.569c-15.392,22.682,12.151,73.718,88.3,72.098c76.148-1.62,106.932-54.276,84.249-72.908
			C427.512,473.735,409.009,472.712,390.961,474.152z"/>
	</g>
	<g>
		<g>
			<path style="fill:#FFFFFF;" d="M301.567,472.92c-6.152-0.61-12.274-0.723-17.831-0.027c5.642,17.748,16.573,48.48,24.641,48.48
				c7.767,0,15.913-28.492,20.276-46.453C319.614,474.468,310.581,473.813,301.567,472.92z"/>
		</g>
		<g>
			<path style="fill:#FFFFFF;" d="M390.962,474.152c-4.945,0.394-9.894,0.675-14.844,0.905c2.943,17.793,8.785,45.764,16.509,46.315
				c7.835,0.56,19.532-28.642,26.018-46.757C410.207,473.331,400.527,473.389,390.962,474.152z"/>
		</g>
	</g>
	<g>
		<path style="fill:#FFFFFF;" d="M382.906,998.935c9.721,2.129,20.657-27.464,7.291-32.357
			C376.83,961.685,373.185,996.807,382.906,998.935z"/>
	</g>
	<g>
		<path style="fill:#FFFFFF;" d="M563.475,922.634c-6.336-0.576-13.663,17.943-4.816,19.915
			C567.507,944.522,569.811,923.21,563.475,922.634z"/>
	</g>
	<g>
		<path style="fill:#FFFFFF;" d="M620.147,756.768c-6.336-0.576-13.663,17.943-4.815,19.915
			C624.179,778.656,626.483,757.344,620.147,756.768z"/>
	</g>
	<g>
		<path style="fill:#FFFFFF;" d="M611.454,791.762c-10.638-0.967-22.941,30.128-8.086,33.439S622.092,792.729,611.454,791.762z"/>
	</g>
	<g>
		<path style="fill:#00A4B7;" d="M705.996,266.937c-15.492-39.896-90.711,22.851-90.711,22.851s34.479-44.29,5.394-55.754
			c-20.076-7.913-36.547,40.621-44.825,71.446c-3.802,14.16,2.949,28.995,16.123,35.43c28.666,14.002,76.118,34.011,83.257,16.994
			c10.333-24.635-49.479-30.706-49.479-30.706S721.488,306.833,705.996,266.937z"/>
	</g>
	<g>
		<path style="fill:#ED66A4;" d="M577.928,577.177c-68.112-8.414-74.41,122.17-6.251,114.597
			C639.835,684.201,646.04,585.591,577.928,577.177z"/>
	</g>
	<g>
		<path style="fill:#ED66A4;" d="M451.025,662.691c-33.293-4.113-36.371,59.716-3.056,56.014
			C481.285,715.003,484.318,666.803,451.025,662.691z"/>
	</g>
	<g>
		<path style="fill:#ED66A4;" d="M207.647,677.489c-30.3-14.395-53.336,45.212-20.552,52.197
			C219.88,736.672,237.947,691.884,207.647,677.489z"/>
	</g>
	<g>
		<path style="fill:#ED66A4;" d="M561.724,496.716c-19.709-2.435-21.532,35.352-1.809,33.16
			C579.638,527.685,581.433,499.151,561.724,496.716z"/>
	</g>
	<g>
		<path style="fill:#ED66A4;" d="M230.002,631.653c-19.709-2.435-21.532,35.352-1.809,33.16
			C247.916,662.622,249.712,634.088,230.002,631.653z"/>
	</g>
</g>
</svg>
