<?xml version="1.0" encoding="UTF-8"?>
<svg id="Layer_2" data-name="Layer 2" xmlns="http://www.w3.org/2000/svg" viewBox="0 0 253.79 239.27">
  <defs>
    <style>
      .cls-1 {
        fill: #fff;
      }

      .cls-2 {
        fill: #3a0072;
      }

      .cls-3 {
        fill: #e99900;
      }

      .cls-4 {
        fill: #e98300;
      }

      .cls-5 {
        fill: #7400e3;
      }

      .cls-6 {
        fill: #db5f11;
      }

      .cls-7 {
        fill: #f0e8e5;
      }
    </style>
  </defs>
  <g id="OBJECTS">
    <g>
      <g>
        <path class="cls-2" d="M60.36,217.63c.09,5.16-1.22,10.3-3.79,14.77-.1-5.16,1.23-10.3,3.79-14.77h0Z"/>
        <path class="cls-2" d="M66.87,222.2c-.08,5.12-1.27,10.15-3.52,14.75-.46-5.12.81-10.38,3.52-14.75h0Z"/>
        <path class="cls-2" d="M74.75,224.83c.61,4.48.12,9.03-1.46,13.27-1.18-4.4-.63-9.23,1.46-13.27h0Z"/>
        <path class="cls-2" d="M81.27,225.22c1.02,4.65,1.34,9.3.94,14.05-2.33-4.22-2.67-9.55-.94-14.05h0Z"/>
        <path class="cls-2" d="M90.37,224.45c2.3,3.3,3.39,7.36,3.03,11.36-2.3-3.29-3.38-7.36-3.03-11.36h0Z"/>
        <path class="cls-2" d="M96.88,224.03c2.69,2.88,4.3,6.69,4.47,10.64-2.7-2.88-4.29-6.7-4.47-10.64h0Z"/>
        <path class="cls-2" d="M107.62,222.62c2.4,2.18,3.76,5.37,3.64,8.61-2.41-2.18-3.75-5.37-3.64-8.61h0Z"/>
        <path class="cls-2" d="M114.59,218.38c3.41,3.26,5.81,7.52,6.81,12.13-3.41-3.26-5.8-7.52-6.81-12.13h0Z"/>
        <path class="cls-2" d="M124.01,215.38c3.01,3.76,5.1,8.15,6.1,12.86-3.44-3.41-5.62-8.05-6.1-12.86h0Z"/>
        <path class="cls-2" d="M131.23,209.31c2.86,4.09,4.8,8.72,5.68,13.64-3.38-3.71-5.41-8.63-5.68-13.64h0Z"/>
        <path class="cls-2" d="M139.58,209.3c3.07,3.5,4.75,8.23,4.53,12.88-2.45-3.92-3.98-8.29-4.53-12.88h0Z"/>
        <path class="cls-2" d="M150.85,206.68c2.2,3.61,3.17,7.91,2.69,12.11-2.21-3.61-3.16-7.91-2.69-12.11h0Z"/>
        <path class="cls-2" d="M158.86,203.25c1.67,3.82,2.35,7.96,1.93,12.12-2.28-3.54-2.99-8.05-1.93-12.12h0Z"/>
        <path class="cls-2" d="M168.36,201.35c1.37,4.42,1.38,9.22,0,13.64-1.38-4.42-1.37-9.22,0-13.64h0Z"/>
        <path class="cls-2" d="M177.83,206.28c1.23,4.41.55,9.37-1.87,13.26-.28-4.53.36-8.99,1.87-13.26h0Z"/>
        <path class="cls-2" d="M184.66,213.1c1.06,4.47.23,9.4-2.26,13.27-.19-4.56.58-9.03,2.26-13.27h0Z"/>
        <path class="cls-2" d="M188.78,229.75c-.07-3.74,1.29-7.44,3.8-10.22.08,3.74-1.3,7.43-3.8,10.22h0Z"/>
        <path class="cls-2" d="M194.94,233.58c-.1-3.86,1.22-7.68,3.71-10.63.11,3.86-1.23,7.68-3.71,10.63h0Z"/>
        <path class="cls-2" d="M204.41,235.09c-.24-4.16.95-8.35,3.35-11.76.25,4.16-.96,8.35-3.35,11.76h0Z"/>
        <path class="cls-2" d="M214.27,236.6c-.76-3.38-.1-6.99,1.83-9.86.77,3.38.09,6.98-1.83,9.86h0Z"/>
        <path class="cls-2" d="M225.57,237.34c-1.56-3.06-1.43-6.91.34-9.85.96,3.25.83,6.67-.34,9.85h0Z"/>
        <path class="cls-2" d="M239.96,237.34c-2.57-2.45-3.52-6.51-2.27-9.85,1.52,3.12,2.27,6.38,2.27,9.85h0Z"/>
        <path class="cls-2" d="M251.27,233.96c-3.12-2.78-5.06-6.84-5.24-11.02,2.73,3.13,4.53,6.93,5.24,11.02h0Z"/>
      </g>
      <path class="cls-6" d="M243.8,224.93c4.44-1.24,7.9-5.42,8.28-10.02-4.97,2.49-11.66,4.15-17.17,4.93,4.46-1.33,8.57-3.81,11.83-7.13-7.8.57-15.77-1.71-23.44-3.22,3.9-2.5,8.03-4.62,12.34-6.33-6.53-4.3-14.11-8.4-21.45-11.08,3.59-2.15,9.25-3.64,13.43-3.82-3.47-5.51-10.27-11.41-16.5-13.3,3.2-.86,6.35-3.44,9.27-4.99-6.9-3.53-15.71-3.92-23-1.26.7-3.78,1.48-9.47.88-13.26-5.71,5.83-12.11,10.97-18.92,15.47.38-2.77-.26-6.8-.33-9.6-6.34,6.33-15.3,10.74-23.46,14.44,4.36-2.31,7.71-6.09,10.16-10.38-7.12.54-15.25-2.25-21.61-5.47,5.19.28,11.9-1.32,16.9-2.77-5.44-5.75-13.05-13.89-15.64-21.37,5.39,3.05,11.31,7.87,15.69,12.25.95-12.13-1.82-27.24-6.26-38.57,4.56,2.63,9.48,6.78,12.31,11.21-1-9.94-2.46-20.59-7.54-29.19,4.53,1.64,10.56,5.69,14.49,8.48-2.58-13.27-9.85-26.2-18.93-36.22,5.01.46,11.77,2.02,15.59,5.3-3.92-10.59-12.19-22.83-22.19-28.07,4.2-.83,10.84-2.29,14.82-3.88-3.72-3.9-8.88-6.2-14.16-7.27-5.28-1.07-11.2-1.13-16.58-.87,3.53-4.11,6.23-8.57,9.75-12.68-14.12,3.15-27.31,10.37-37.58,20.55l-14.89,147.32,56.42,13.66,34.38-7.05,23.36,29.97,29.53,6.61,10.21-2.41Z"/>
      <path class="cls-7" d="M135.63,54.73c9.45,2.34,20.03-2.73,24.73-11.26,4.7-8.53,3.57-19.72-2.18-27.58,7.75,10.55,12.01,23.89,9.41,36.72-2.6,12.83-12.23,24.37-24.86,27.8"/>
      <path class="cls-7" d="M73.91,46.53c-9.65-1.32-17.6-9.94-18.81-19.6-1.21-9.66,3.97-19.65,12.22-24.83-11.1,6.94-19.99,17.76-22.31,30.64-2.32,12.88,2.36,27.16,12.82,35.02"/>
      <path class="cls-7" d="M98.99,38.3c-7.64-3.47-12.08-12.54-10.7-20.82,1.38-8.28,8.12-15.24,16.21-17.48-10.87,2.99-20.88,9.74-25.97,19.8s-4.75,23,1.95,32.07"/>
      <path class="cls-7" d="M118.46,40.23c8.29-1.3,14.99-8.86,15.87-17.21.88-8.34-3.76-16.86-10.95-21.18,9.68,5.78,17.52,14.96,19.74,26.01,2.22,11.06-1.56,23.44-10.44,30.39"/>
      <g>
        <path class="cls-3" d="M141.72,180.69c-2.93-4.25-4.28-9.25-4.69-14.52-29.69,13.61-64.27,16.28-95.73,7.57.73,4.78,1.61,9.55,2.67,14.27,2.87,12.75,7.47,26.04,17.83,34.02.45.34.91.65,1.37.97,15.3-3.05,30.3-7.7,44.11-14.89,13.1-6.82,25.11-16.02,34.44-27.41Z"/>
        <path class="cls-4" d="M137.03,166.17c-.5-6.42.4-13.22,1.58-19.55.2-1.1.41-2.2.62-3.29-15.94,3.92-33.3,2.76-49.8.57-17.34-2.31-35.26-5.94-50.2-14.57-.87,14.82-.17,29.73,2.07,44.41,31.46,8.71,66.05,6.04,95.73-7.57Z"/>
        <path class="cls-3" d="M139.23,143.33c3.42-17.76,7.75-35.39,9.45-53.39.89-9.41,1.04-19.02-1.32-28.17-2.36-9.15-7.47-17.86-15.35-23.06-8.07-5.33-18.25-6.54-27.9-5.83-14.93,1.1-29.9,6.75-40.21,17.61-8.89,9.36-13.74,21.82-17.23,34.24-4.08,14.54-6.57,29.52-7.45,44.6,14.95,8.63,32.86,12.26,50.2,14.57,16.5,2.19,33.86,3.35,49.8-.57Z"/>
        <path class="cls-3" d="M170.4,183.48c-5.21,3.25-10.45,6.09-16.37,5.34-1.09-.14-2.15-.41-3.18-.78-1.83,7.6-4.14,15.09-6.92,22.39.27-.11.53-.22.8-.32,8.82-3.48,18.74-6,27.72-3.44,1.02-7.76.31-15.74-2.06-23.2Z"/>
        <path class="cls-4" d="M143.18,182.6c-.53-.62-1.01-1.26-1.47-1.91-9.32,11.38-21.34,20.59-34.44,27.41-13.82,7.19-28.81,11.84-44.11,14.89,11.55,7.99,27.25,7.97,40.86,4.11,13.88-3.94,26.51-11.29,39.9-16.66,2.78-7.31,5.09-14.79,6.92-22.39-2.96-1.07-5.61-3.04-7.67-5.44Z"/>
        <path class="cls-4" d="M199.44,177.16c-5.62-2.69-12.75-2.29-18.59.27-3.6,1.58-7.02,3.9-10.45,6.04,2.36,7.46,3.07,15.44,2.06,23.2.84.24,1.67.51,2.49.84,6.09,2.46,10.78,7.21,15.72,11.63,2.69-5.12,5.12-10.36,6.89-15.86,2.71-8.41,3.82-17.55,1.88-26.12Z"/>
        <path class="cls-4" d="M215.89,210.15c-.87,6.82-3.79,13.25-7.24,19.4,5.93,1.63,12.24,2.03,18.37,1.38.72-.08,1.54-.17,2.43-.28,1.02-2.54,1.69-5.22,1.96-7.94-6.4-2.26-11.95-6.79-15.52-12.56Z"/>
        <path class="cls-3" d="M253.79,221.96c-7.53,1.8-14.24,3.51-22,.89-.13-.04-.25-.09-.37-.14-.28,2.72-.94,5.4-1.96,7.94,7.61-.97,20.55-3.42,24.34-8.69Z"/>
        <path class="cls-3" d="M213.75,206c-3.63-8.75-3.37-19.63-10.28-26.11-1.21-1.13-2.57-2.03-4.03-2.72,1.93,8.57.83,17.72-1.88,26.12-1.77,5.5-4.21,10.74-6.89,15.86,2.17,1.94,4.38,3.81,6.78,5.4,3.44,2.28,7.23,3.92,11.2,5.01,3.45-6.15,6.37-12.59,7.24-19.4-.82-1.32-1.54-2.71-2.14-4.15Z"/>
      </g>
      <g>
        <g>
          <path class="cls-1" d="M93.59,80.17c-1.74,8.69-10.19,14.32-18.88,12.58-8.69-1.74-14.32-10.19-12.58-18.88,1.74-8.69,10.19-14.32,18.88-12.58,8.69,1.74,14.32,10.19,12.58,18.88Z"/>
          <path class="cls-5" d="M81,61.29c6.4,10.35,3.65,24.39-6.29,31.46-6.46-10.35-3.6-24.37,6.29-31.46h0Z"/>
        </g>
        <path class="cls-1" d="M75.67,77.01c0,2.26-1.83,4.08-4.08,4.08s-4.08-1.83-4.08-4.08,1.83-4.08,4.08-4.08,4.08,1.83,4.08,4.08Z"/>
      </g>
      <g>
        <g>
          <circle class="cls-1" cx="115.87" cy="84.23" r="16.04" transform="translate(10.06 180.8) rotate(-78.4)"/>
          <path class="cls-5" d="M119.02,68.5c6.4,10.35,3.65,24.39-6.29,31.46-6.46-10.35-3.6-24.37,6.29-31.46h0Z"/>
        </g>
        <path class="cls-1" d="M113.69,84.22c0,2.26-1.83,4.08-4.08,4.08s-4.08-1.83-4.08-4.08,1.83-4.08,4.08-4.08,4.08,1.83,4.08,4.08Z"/>
      </g>
      <g>
        <path class="cls-3" d="M64.05,58.17c8.04,4.62,16.43,8.65,25.21,11.62,2.14.72,4.67,1.33,6.5.01,1.75-1.26,2.13-3.82,3.83-5.14"/>
        <path d="M64.05,58.17c9.34,3.91,18.5,8.67,28.18,11.57,4.46.94,4.5-3.08,7.37-5.08-1.21,1.26-1.5,2.95-2.5,4.5-2.25,3.53-7.1,1.87-10.2.8-8.13-2.8-15.92-6.7-22.85-11.8h0Z"/>
      </g>
      <g>
        <path class="cls-3" d="M138.56,74.03c-9.26.38-18.57.08-27.73-1.34-2.23-.35-4.76-.98-5.77-2.99-.97-1.93-.13-4.37-1.02-6.33"/>
        <path d="M138.56,74.03c-8.51,1.32-17.21,1.18-25.72-.1-3.23-.48-8.31-1.25-8.67-5.42-.17-1.84.36-3.47-.14-5.15,1.63,3.1-.2,6.67,4.19,7.9,9.92,1.9,20.25,1.92,30.34,2.76h0Z"/>
      </g>
      <g>
        <path d="M86.84,96.25c.79,2.31,1.28,4.38,1.6,6.8-1.59-1.84-2.2-4.45-1.6-6.8h0Z"/>
        <path d="M93.18,104.42c1.78-2.06,3.33-3.82,5.17-5.83-.57,2.65-2.61,4.95-5.17,5.83h0Z"/>
      </g>
      <path class="cls-5" d="M84.14,115.87c1.4,7.3.38,15.04-2.87,21.73-4.41,9.09-12.72,16.16-15.54,25.86-3.15,10.81,1.52,22.82,9.57,30.69.15-2.34.01-4-.35-6.31,2.4,1.62,4.83,3.53,7.23,5.15-4.34-9.63-8.83-19.68-5.48-29.7,1.46-4.36,4.28-8.11,6.88-11.9,6.99-10.2,12.88-22.37,10.62-34.52"/>
      <path d="M55.43,82.58c.45,10.81,5.12,21.37,12.87,28.87,0,0-1.16.61-1.16.61-1.02-5.1-1.3-10.4-1.06-15.59,3.75,6.61,8.91,12.5,15.42,16.5,1.82,1.1,3.69,2.31,5.79,2.71,2.04.42,4.21.22,6.34-.2,6.6-1.32,12.43-4.62,18.17-8.17,0,0,2-1.22,2-1.22l-.68,2.23c-1.36,4.46-3.38,8.74-6.1,12.53l-.96-1.18c12.25-4.96,22.8-13.87,30-24.97-6.94,12.53-18.54,22.2-31.83,27.5,0,0,1.49-2.25,1.49-2.25,2.47-3.75,4.45-7.83,5.7-12.14l1.32,1.01c-5.73,3.63-11.9,7.17-18.7,8.58-2.28.49-4.72.69-7.13.18-2.37-.47-4.41-1.78-6.42-3.03-5.84-3.73-10.78-8.83-14.35-14.76,0,0,1.58-.42,1.58-.42-.13,4.16.1,8.33.78,12.44,0,0,.36,2.16.36,2.16-8.55-8.04-13.73-19.65-13.42-31.4h0Z"/>
      <path class="cls-4" d="M167.26,145.86c-3.19,4.77-9.21,7.29-14.92,6.8-5.71-.49-11.05-3.28-14.57-7.81-5.49,4.44-10.69,11.42-15.78,16.31,6.03,9.29,17.69,14.58,28.66,13.01,10.97-1.58,20.66-9.94,23.83-20.56,3.85-.38,7.05-3.11,9.22-6.32,2.17-3.21,2.82-7.39,1.74-11.11-1.04,2.59-3.57,4.36-6.21,5.24.92-.89,1.41-2.52,1.48-3.8.07-1.28-.26-2.55-.79-3.72-.66-1.44-1.66-2.75-2.96-3.66-1.3-.91-2.92-1.4-4.49-1.22,1.47.64,1.79,2.28,1.91,3.88.12,1.6-.42,3.18-1.17,4.6-.04-1.97-1.7-3.96-3.56-4.59-1.87-.62-3.96-.26-5.72.63,1.46.1,2.82.86,3.84,1.91,1.02,1.04,1.74,2.35,2.32,3.69-.5,2.04-1.67,4.96-2.84,6.71Z"/>
      <path class="cls-4" d="M16.32,129.33c1.37,5.57,6.18,9.99,11.72,11.47,5.54,1.48,11.51.68,16.36-2.39,3.65,6.04,6.17,14.37,9.29,20.7-8.83,6.69-21.6,7.7-31.37,2.48s-16.04-16.38-15.41-27.44c-3.49-1.67-5.57-5.32-6.52-9.08-.95-3.75-.14-7.91,2.14-11.04.1,2.79,1.87,5.31,4.06,7.04-.56-1.15-.47-2.85-.1-4.08.37-1.22,1.11-2.31,2-3.23,1.11-1.13,2.49-2.02,4.02-2.43,1.53-.41,3.22-.32,4.64.38-1.6.1-2.45,1.54-3.11,3-.66,1.46-.69,3.14-.47,4.73.7-1.84,2.94-3.15,4.91-3.1,1.97.05,3.81,1.11,5.16,2.54-1.41-.41-2.94-.15-4.26.48-1.32.63-2.44,1.62-3.44,2.68-.23,2.09-.12,5.23.39,7.28Z"/>
      <g>
        <g>
          <path class="cls-1" d="M114.52,56.5c-1.19,5.94-6.97,9.8-12.91,8.61s-9.8-6.97-8.61-12.91c1.19-5.94,6.97-9.8,12.91-8.61,5.94,1.19,9.8,6.97,8.61,12.91Z"/>
          <path class="cls-5" d="M105.91,43.59c4.37,7.22,2.54,16.56-4.31,21.52-4.41-7.22-2.51-16.54,4.31-21.52h0Z"/>
        </g>
        <path class="cls-1" d="M102.26,54.34c0,1.54-1.25,2.79-2.79,2.79s-2.79-1.25-2.79-2.79,1.25-2.79,2.79-2.79,2.79,1.25,2.79,2.79Z"/>
      </g>
      <g>
        <path class="cls-3" d="M90.46,39.48c9.82,7.44,22.84,10.52,34.95,8.26"/>
        <path d="M90.46,39.48c10.57,6.23,22.71,9.08,34.95,8.26-11.9,3.71-25.96.38-34.95-8.26h0Z"/>
      </g>
      <path class="cls-2" d="M90.15,120.84c-.51,5.97-2.13,11.85-4.66,17.32-5.92,12.9-20.72,24.61-14.87,40.15.93,2.82,2.3,5.5,3.59,8.19-1.5-2.59-2.95-5.22-4.06-8.02-6.51-15.88,8.28-27.75,14.64-40.65,2.64-5.32,4.43-11.07,5.35-16.99h0Z"/>
      <path d="M39.11,132.15c.97,16.62,1.17,33.23,3.65,49.72-2.78-7.92-3.84-16.34-4.39-24.67-.44-8.36-.32-16.74.74-25.05h0Z"/>
      <path d="M144.32,150c-7.59-2.22-10.86-10.82-11.47-18.01,2.11,6.97,4.6,14.44,11.47,18.01h0Z"/>
      <path d="M124.7,164.16c5.32,4.92,11.55,8.7,18.82,9.7-7.36.49-14.62-3.83-18.82-9.7h0Z"/>
    </g>
  </g>
</svg>