<?xml version="1.0" encoding="UTF-8"?>
<svg id="Layer_2" data-name="Layer 2" xmlns="http://www.w3.org/2000/svg" viewBox="0 0 125.17 94.64">
  <defs>
    <style>
      .cls-1 {
        fill: #9daccb;
      }

      .cls-1, .cls-2, .cls-3 {
        fill-rule: evenodd;
      }

      .cls-2 {
        fill: #fff;
      }
    </style>
  </defs>
  <g id="Objects">
    <g>
      <path class="cls-1" d="M97.6,24.43h0c0-4.72,2.95-18.31,2.83-20.91-.12-2.95-1.65-4.02-4.25-3.31-3.43.94-3.07,17.84-5.67,24.1-1.42,0-4.96-.12-6.61-.12h-2.01c0-.24.12-.71.12-1.06.47-4.02,2.01-13.47-1.65-13.23-3.19.12-2.95,8.5-4.02,14.29h-3.54c-2.72-1.54,2.13-8.62-.83-9.45-.47-.12-1.54-.12-2.01.12-.94.59-1.77,2.36-1.77,5.08,0,1.18-.47,2.36-1.06,3.43-.47.94-2.6,1.42-6.38,1.77-8.5.71-14.29,1.65-22.44,2.83-1.42-3.19-3.07-8.98-3.43-12.05-.35-3.19-2.24-5.55-3.9-3.9-1.65,1.54.59,12.4,1.42,16.89-2.01.47-3.9.83-5.79,1.54-.71-2.13-2.95-16.3-6.02-17.84-.59-.35-1.42-.35-2.13.71-.94,1.3.47,8.39,2.13,13.23,1.65,4.84,1.18,4.49,1.18,5.91-.83.47-1.65,1.06-2.48,1.65-3.43-3.9-10.51-11.93-12.52-14.41-1.89-2.6-4.72-5.91-6.5-3.66-1.65,2.24,4.72,9.57,7.91,13.94,3.19,4.49,4.49,5.67,7.09,8.39-1.89,2.83-3.54,15-7.21,22.21-1.65,3.19-1.18,5.91-.94,7.09,4.25,22.68,47.01,27.52,64.14,26.93,25.16-.83,43.82-2.48,49.96-12.17,3.66-6.02,6.5-26.81.35-41.7,1.18-1.18,2.6-2.24,2.95-3.31,1.06-2.95-2.95-2.48-5.08-1.06-.71-1.18-1.54-2.36-2.48-3.54,1.65-1.54,4.84-4.37,2.72-6.85-2.13-2.6-6.26.83-7.91,2.13-.59-.35-1.18-.71-1.89-1.06.24-.59.47-1.18.71-2.13,1.06-3.54.24-5.79-1.77-5.79-2.13,0-2.24,2.6-3.43,4.61-.35.47-.71.95-1.18,1.3-2.01-.47-4.25-.59-6.61-.59h0Z"/>
      <path class="cls-2" d="M45.39,62.46c8.98,0,16.18-7.21,16.18-16.18s-7.21-16.3-16.18-16.3-16.18,7.32-16.18,16.3,7.21,16.18,16.18,16.18h0Z"/>
      <path class="cls-3" d="M45.39,44.62c3.43,0,6.26-2.83,6.26-6.26s-2.83-6.26-6.26-6.26-6.26,2.83-6.26,6.26,2.83,6.26,6.26,6.26h0Z"/>
      <path class="cls-2" d="M85.55,62.46c8.98,0,16.18-7.21,16.18-16.18s-7.21-16.3-16.18-16.3-16.18,7.32-16.18,16.3,7.21,16.18,16.18,16.18h0Z"/>
      <path class="cls-3" d="M85.55,44.62c3.43,0,6.26-2.83,6.26-6.26s-2.83-6.26-6.26-6.26-6.26,2.83-6.26,6.26,2.83,6.26,6.26,6.26h0Z"/>
      <path class="cls-3" d="M67.6,65.65s-17.36.71-19.49.94c-2.13.24.24,8.86,5.2,11.1s19.14.94,21.62-1.42c2.6-2.24,8.5-11.58-7.32-10.63h0Z"/>
      <path class="cls-2" d="M59.68,66c-2.13.12-4.37.24-6.38.35.12,1.65.35,3.78,1.18,4.13,1.3.83,4.37,0,4.72-.59.24-.47.35-2.48.47-3.9h0Z"/>
      <path class="cls-2" d="M67.6,65.65l-1.77.12c.12,1.42.24,3.66.47,4.13.24.59,3.43,1.42,4.72.59.94-.47,1.06-2.95,1.06-4.72-1.18-.24-2.72-.24-4.49-.12h0Z"/>
    </g>
  </g>
</svg>