<?xml version="1.0" encoding="UTF-8"?>
<svg id="Layer_2" data-name="Layer 2" xmlns="http://www.w3.org/2000/svg" viewBox="0 0 249.51 204.51">
  <defs>
    <style>
      .cls-1 {
        fill: #fff;
      }

      .cls-2 {
        fill: #3a0072;
      }

      .cls-3 {
        fill: #e99900;
      }

      .cls-4 {
        fill: none;
        stroke: #3a0072;
        stroke-miterlimit: 10;
        stroke-width: 5.35px;
      }
    </style>
  </defs>
  <g id="OBJECTS">
    <g>
      <g>
        <path class="cls-4" d="M206.63,84.16c17.03,15.24,25.6,39.41,21.96,61.98"/>
        <path class="cls-3" d="M247.73,150.08c.87,1.26,1.58,2.67,1.74,4.19.13,1.24-.1,2.49-.46,3.68-.88,2.92-2.54,5.6-4.77,7.68,1.34-2.62,2.26-5.89.75-8.42-1.05-1.76-3.02-2.69-4.77-3.76-1.75-1.06-3.51-2.61-3.63-4.65-.12-2.28,2.47-4.27,4.66-4.05,2.5.24,5.16,3.43,6.48,5.33Z"/>
        <path class="cls-3" d="M239.27,169.34c-.02,1.53-.27,3.09-1.02,4.42-.61,1.08-1.53,1.97-2.52,2.72-2.42,1.86-5.33,3.07-8.35,3.46,2.61-1.35,5.27-3.47,5.51-6.41.17-2.04-.89-3.95-1.69-5.84-.8-1.88-1.34-4.17-.24-5.89,1.23-1.92,4.49-2.03,6.15-.58,1.89,1.65,2.19,5.8,2.16,8.11Z"/>
        <path class="cls-3" d="M222.19,170.38c-.97,1.18-2.14,2.24-3.56,2.81-1.16.46-2.42.58-3.67.56-3.05-.06-6.08-.94-8.68-2.51,2.89.58,6.28.58,8.31-1.56,1.41-1.49,1.77-3.64,2.33-5.61.55-1.97,1.56-4.09,3.5-4.75,2.16-.74,4.78,1.22,5.17,3.39.44,2.47-1.91,5.9-3.38,7.68Z"/>
        <circle class="cls-2" cx="228.51" cy="150.4" r="11.87" transform="translate(29.63 338.24) rotate(-76.72)"/>
      </g>
      <g>
        <path class="cls-4" d="M45.48,84.16c-17.03,15.24-25.6,39.41-21.96,61.98"/>
        <path class="cls-3" d="M4.38,150.08c-.87,1.26-1.58,2.67-1.74,4.19-.13,1.24.1,2.49.46,3.68.88,2.92,2.54,5.6,4.77,7.68-1.34-2.62-2.26-5.89-.75-8.42,1.05-1.76,3.02-2.69,4.77-3.76,1.75-1.06,3.51-2.61,3.63-4.65.12-2.28-2.47-4.27-4.66-4.05-2.5.24-5.16,3.43-6.48,5.33Z"/>
        <path class="cls-3" d="M12.84,169.34c.02,1.53.27,3.09,1.02,4.42.61,1.08,1.53,1.97,2.52,2.72,2.42,1.86,5.33,3.07,8.35,3.46-2.61-1.35-5.27-3.47-5.51-6.41-.17-2.04.89-3.95,1.69-5.84.8-1.88,1.34-4.17.24-5.89-1.23-1.92-4.49-2.03-6.15-.58-1.89,1.65-2.19,5.8-2.16,8.11Z"/>
        <path class="cls-3" d="M29.92,170.38c.97,1.18,2.14,2.24,3.56,2.81,1.15.46,2.42.58,3.67.56,3.05-.06,6.08-.94,8.68-2.51-2.89.58-6.28.58-8.31-1.56-1.41-1.49-1.77-3.64-2.33-5.61-.55-1.97-1.56-4.09-3.5-4.75-2.16-.74-4.78,1.22-5.17,3.39-.44,2.47,1.91,5.9,3.38,7.68Z"/>
        <circle class="cls-2" cx="23.6" cy="150.4" r="11.87" transform="translate(-99.43 60.74) rotate(-45)"/>
      </g>
      <g>
        <path class="cls-3" d="M57.65,193.46c-1.19.25-2.36.69-3.28,1.48-.75.64-1.3,1.49-1.73,2.38-1.08,2.17-1.57,4.62-1.41,7.03.65-2.24,1.89-4.64,4.14-5.28,1.56-.44,3.21.08,4.8.42,1.59.33,3.45.4,4.62-.72,1.31-1.25.89-3.81-.5-4.88-1.58-1.22-4.85-.82-6.64-.43Z"/>
        <path class="cls-2" d="M125.72,202.43H56.54s3.82-13.61,17.37-12.56c13.55,1.04,50.72,6.6,50.72,6.6l1.09,5.96Z"/>
        <path class="cls-3" d="M66.02,195.68c-.96.21-1.91.56-2.66,1.2-.61.52-1.05,1.21-1.41,1.93-.87,1.76-1.27,3.75-1.14,5.7.53-1.82,1.53-3.76,3.36-4.28,1.27-.36,2.6.07,3.89.34,1.29.27,2.8.33,3.75-.59,1.06-1.01.72-3.09-.4-3.96-1.28-.99-3.93-.66-5.39-.35Z"/>
        <path class="cls-3" d="M77.88,196.98c-.77.16-1.52.44-2.12.95-.48.42-.84.96-1.12,1.54-.69,1.4-1.01,2.98-.91,4.54.42-1.45,1.22-3,2.67-3.41,1.01-.29,2.07.05,3.1.27s2.23.26,2.99-.47c.85-.81.58-2.46-.32-3.15-1.02-.78-3.13-.53-4.29-.28Z"/>
        <g>
          <path class="cls-3" d="M126.36,139.44l-10.53.46c0,.25.25,5.8.61,13.47,3.24.85,6.49,1.63,9.76,2.36l.16-16.29Z"/>
          <path class="cls-2" d="M118.72,201.79l7,.64.16-16.15c-2.66-.22-5.3-.52-7.94-.9.44,9.35.78,16.42.78,16.42Z"/>
          <path class="cls-2" d="M126.19,155.73c-3.27-.72-6.52-1.51-9.76-2.36.24,5.03.51,10.97.8,16.95,2.93.52,5.86,1.04,8.8,1.56l.16-16.14Z"/>
          <path class="cls-3" d="M117.23,170.31c.24,5.2.49,10.41.71,15.06,2.64.39,5.28.68,7.94.9l.15-14.41c-2.93-.52-5.86-1.04-8.8-1.56Z"/>
        </g>
      </g>
      <g>
        <path class="cls-3" d="M204.53,193.46c1.19.25,2.36.69,3.28,1.48.75.64,1.3,1.49,1.73,2.38,1.08,2.17,1.57,4.62,1.41,7.03-.65-2.24-1.89-4.64-4.14-5.28-1.56-.44-3.21.08-4.8.42-1.59.33-3.45.4-4.62-.72-1.31-1.25-.89-3.81.5-4.88,1.58-1.22,4.85-.82,6.64-.43Z"/>
        <path class="cls-2" d="M136.46,202.43h69.18s-3.82-13.61-17.37-12.56c-13.55,1.04-50.72,6.6-50.72,6.6l-1.09,5.96Z"/>
        <path class="cls-3" d="M196.17,195.68c.96.21,1.91.56,2.66,1.2.61.52,1.05,1.21,1.41,1.93.87,1.76,1.27,3.75,1.14,5.7-.53-1.82-1.53-3.76-3.36-4.28-1.27-.36-2.6.07-3.89.34s-2.8.33-3.75-.59c-1.06-1.01-.72-3.09.4-3.96,1.28-.99,3.93-.66,5.39-.35Z"/>
        <path class="cls-3" d="M184.3,196.98c.77.16,1.52.44,2.12.95.48.42.84.96,1.12,1.54.69,1.4,1.01,2.98.91,4.54-.42-1.45-1.22-3-2.67-3.41-1.01-.29-2.07.05-3.1.27-1.03.22-2.23.26-2.99-.47-.85-.81-.58-2.46.32-3.15,1.02-.78,3.13-.53,4.29-.28Z"/>
        <g>
          <path class="cls-3" d="M135.83,139.44l10.53.46c0,.25-.25,5.8-.61,13.47-3.24.85-6.49,1.63-9.76,2.36l-.16-16.29Z"/>
          <path class="cls-2" d="M143.46,201.79l-7,.64-.16-16.15c2.66-.22,5.3-.52,7.94-.9-.44,9.35-.78,16.42-.78,16.42Z"/>
          <path class="cls-2" d="M135.99,155.73c3.27-.72,6.52-1.51,9.76-2.36-.24,5.03-.51,10.97-.8,16.95-2.93.52-5.86,1.04-8.8,1.56l-.16-16.14Z"/>
          <path class="cls-3" d="M144.95,170.31c-.24,5.2-.49,10.41-.71,15.06-2.64.39-5.28.68-7.94.9l-.15-14.41c2.93-.52,5.86-1.04,8.8-1.56Z"/>
        </g>
      </g>
      <path class="cls-2" d="M0,37.84s38.91,113.24,131.7,107.26c92.79-5.99,92.79-111.75,92.79-111.75,0,0-42.9,35.42-93.29,40.41C80.82,78.75,0,37.84,0,37.84Z"/>
      <path class="cls-1" d="M27.74,59.43s30.85,78.94,104.42,74.76c73.57-4.17,73.57-77.89,73.57-77.89,0,0-34.02,24.69-73.97,28.17-39.95,3.48-104.03-25.04-104.03-25.04Z"/>
      <polygon class="cls-2" points="200.04 59.29 199.3 89.73 199.28 90.32 198.87 89.9 179.75 70.6 180.56 70.25 182.79 115.14 182.89 117.16 181.55 115.63 151.47 81.34 153.06 80.8 150.15 132.19 149.94 135.81 148.28 132.58 123.76 84.72 125.71 84.62 107.18 132.98 105.83 136.52 105.28 132.77 97.87 82.38 99.54 82.73 75.44 120.05 74.52 121.47 74.12 119.83 62.4 71.38 63.23 71.55 46.6 92.88 46.26 93.32 46.14 92.78 39.41 64.28 46.65 92.65 46.18 92.56 62.48 70.98 63.07 70.2 63.31 71.15 75.54 119.48 74.22 119.26 98.01 81.75 99.31 79.69 99.68 82.11 107.24 132.48 105.33 132.27 123.72 83.86 124.57 81.6 125.67 83.75 150.04 131.68 148.18 132.07 151.25 80.69 151.38 78.46 152.84 80.15 182.62 114.7 181.38 115.2 179.62 70.29 179.57 69.04 180.43 69.94 199.23 89.55 198.8 89.72 200.04 59.29 200.04 59.29"/>
      <g>
        <circle class="cls-2" cx="145.16" cy="21.27" r="21.27" transform="translate(-1 33.92) rotate(-13.28)"/>
        <g>
          <path class="cls-1" d="M130.81,21.27c0,7.93,6.43,14.35,14.35,14.35,1.58,0,3.09-.26,4.51-.73-3.84-8.74-7.39-17.61-10.65-26.58-4.85,2.3-8.21,7.23-8.21,12.96Z"/>
          <path class="cls-3" d="M159.52,21.27c0-7.93-6.43-14.35-14.35-14.35-2.2,0-4.28.51-6.14,1.39,3.26,8.97,6.81,17.84,10.65,26.58,5.71-1.89,9.84-7.27,9.84-13.62Z"/>
        </g>
        <path class="cls-2" d="M144.28,76.34c2.37-12.35,2.16-25.19-.62-37.46,1.93,0,3.38-.37,5.31-.37-.03,12.39,4.89,29.33,8.47,34.33"/>
        <path class="cls-1" d="M150.5,21.27c0,2.95-2.39,5.33-5.33,5.33s-5.33-2.39-5.33-5.33,2.39-5.33,5.33-5.33,5.33,2.39,5.33,5.33Z"/>
      </g>
      <g>
        <circle class="cls-2" cx="98.03" cy="22.97" r="21.27" transform="translate(58.91 115.74) rotate(-80.32)"/>
        <g>
          <path class="cls-1" d="M83.79,21.11c-1.03,7.86,4.51,15.07,12.37,16.09,1.56.2,3.1.14,4.57-.14-2.67-9.17-5.04-18.42-7.12-27.74-5.11,1.65-9.08,6.11-9.83,11.79Z"/>
          <path class="cls-3" d="M112.26,24.83c1.03-7.86-4.51-15.07-12.37-16.09-2.18-.29-4.31-.05-6.27.59,2.07,9.32,4.44,18.57,7.12,27.74,5.91-1.14,10.7-5.93,11.52-12.23Z"/>
        </g>
        <path class="cls-2" d="M90.01,77.46c3.95-11.94,5.41-24.7,4.24-37.22,1.91.25,3.4.08,5.31.33-1.64,12.28,1.05,29.72,3.95,35.13"/>
        <path class="cls-1" d="M103.31,23.66c-.38,2.92-3.06,4.98-5.98,4.6-2.92-.38-4.98-3.06-4.6-5.98.38-2.92,3.06-4.98,5.98-4.6s4.98,3.06,4.6,5.98Z"/>
      </g>
    </g>
  </g>
</svg>