<?xml version="1.0" encoding="UTF-8"?>
<svg xmlns="http://www.w3.org/2000/svg" viewBox="0 0 230.31 236.95">
  <defs>
    <style>
      .cls-1, .cls-2 {
        fill: #a4e32d;
      }

      .cls-1, .cls-3 {
        mix-blend-mode: multiply;
      }

      .cls-4 {
        fill: #fff;
      }

      .cls-5 {
        fill: none;
        stroke-width: .96px;
      }

      .cls-5, .cls-6 {
        stroke: #3a0072;
        stroke-miterlimit: 10;
      }

      .cls-7 {
        isolation: isolate;
      }

      .cls-8 {
        fill: #3a0072;
      }

      .cls-9 {
        fill: #52146c;
      }

      .cls-6 {
        fill: #272525;
      }

      .cls-3 {
        opacity: .17;
      }
    </style>
  </defs>
  <g class="cls-7">
    <g id="Layer_2" data-name="Layer 2">
      <g id="OBJECTS">
        <g>
          <g>
            <g>
              <path class="cls-8" d="M98.31,234.93l4.11,2.02v-9.23c-1.61-.45-3.23-.87-4.86-1.26l.76,8.47Z"/>
              <path class="cls-2" d="M97.28,213.69l.27,12.77c1.63.39,3.25.81,4.86,1.26v-13.96c-1.71-.02-3.42-.04-5.13-.06Z"/>
              <path class="cls-8" d="M102.42,200.66c-1.8,0-3.6-.02-5.41-.05l.28,13.08c1.71.02,3.42.04,5.13.06v-13.09Z"/>
              <path class="cls-2" d="M102.42,185.13c-1.92-.48-3.85-.97-5.76-1.48l.36,16.95c1.8.04,3.6.05,5.41.05v-15.53Z"/>
            </g>
            <polygon class="cls-8" points="102.42 236.95 70.21 229.52 69.31 217.92 101.79 231.84 102.42 236.95"/>
            <path class="cls-8" d="M70.6,229.53c-4.24-.21-8.44,2.73-9.7,6.79.63-2.2,1.5-4.34,2.58-6.36.61-1.13,1.3-2.24,2.28-3.07,1.24-1.04,2.86-1.54,4.47-1.69,1.61-.15,3.23.02,4.84.2"/>
            <path class="cls-8" d="M73.31,225.91c-3.7-1.11-9.51-1.55-12.89.32-3.38,1.88-6.1,4.75-8.39,7.86,1.51-4.34,4.4-7.97,8.31-10.38,3.91-2.41,8.66-3.43,13.22-2.83"/>
            <path class="cls-8" d="M69.31,217.92c-5.41-2.42-11.31-1.97-16.31,1.22-5,3.18-8.24,8.97-8.34,14.9,2.28-6.18,5.18-8.87,10.1-11.4,4.92-2.53,13.27-.73,18.33,1.5"/>
          </g>
          <g>
            <g>
              <path class="cls-8" d="M136.16,234.93l-4.11,2.02v-9.23c1.61-.45,3.23-.87,4.86-1.26l-.76,8.47Z"/>
              <path class="cls-2" d="M137.19,213.69l-.27,12.77c-1.63.39-3.25.81-4.86,1.26v-13.96c1.71-.02,3.42-.04,5.13-.06Z"/>
              <path class="cls-8" d="M132.05,200.66c1.8,0,3.6-.02,5.41-.05l-.28,13.08c-1.71.02-3.42.04-5.13.06v-13.09Z"/>
              <path class="cls-2" d="M132.05,185.13c1.92-.48,3.84-.97,5.76-1.48l-.36,16.95c-1.8.04-3.6.05-5.41.05v-15.53Z"/>
            </g>
            <polygon class="cls-8" points="132.05 236.95 164.26 229.52 165.16 217.92 132.68 231.84 132.05 236.95"/>
            <path class="cls-8" d="M163.87,229.53c4.24-.21,8.44,2.73,9.7,6.79-.63-2.2-1.5-4.34-2.58-6.36-.61-1.13-1.3-2.24-2.28-3.07-1.24-1.04-2.86-1.54-4.47-1.69-1.61-.15-3.23.02-4.84.2"/>
            <path class="cls-8" d="M161.16,225.91c3.7-1.11,9.51-1.55,12.89.32,3.38,1.88,6.1,4.75,8.39,7.86-1.51-4.34-4.4-7.97-8.31-10.38-3.91-2.41-8.66-3.43-13.22-2.83"/>
            <path class="cls-8" d="M165.16,217.92c5.41-2.42,11.31-1.97,16.31,1.22s8.24,8.97,8.34,14.9c-2.28-6.18-5.18-8.87-10.1-11.4-4.92-2.53-13.27-.73-18.33,1.5"/>
          </g>
          <g>
            <g>
              <path class="cls-8" d="M199.37,173.34c2.08,3.53,4.09,7.1,6,10.73l5.07-2.69c-2.17-4.11-4.45-8.15-6.83-12.14-1.43,1.35-2.85,2.72-4.25,4.1Z"/>
              <path class="cls-8" d="M168.72,122.78l-4.2,3.92c2.51,2.68,4.95,5.43,7.34,8.21,1.45-1.25,2.91-2.49,4.38-3.71-2.45-2.85-4.96-5.67-7.53-8.42Z"/>
              <path class="cls-2" d="M176.24,131.2c-1.48,1.22-2.94,2.45-4.38,3.71,3.43,4,6.75,8.09,9.94,12.28,1.75-.87,3.53-1.69,5.33-2.46-3.48-4.62-7.12-9.13-10.89-13.53Z"/>
              <path class="cls-2" d="M196.06,157.29c-1.63,1.01-3.24,2.05-4.84,3.09,2.84,4.24,5.55,8.56,8.15,12.95,1.4-1.38,2.82-2.74,4.25-4.1-2.41-4.05-4.94-8.03-7.56-11.95Z"/>
              <path class="cls-8" d="M187.13,144.73c-1.8.76-3.58,1.58-5.33,2.46,3.28,4.3,6.42,8.71,9.42,13.2,1.6-1.05,3.21-2.08,4.84-3.09-2.86-4.27-5.84-8.46-8.93-12.56Z"/>
            </g>
            <path class="cls-8" d="M207.46,180.63c7.84-.15,15.01,5.94,17.35,13.43,2.33,7.49,2.46,14.24-1.88,20.78,4.28-4.26,7.13-10.05,7.36-16.09.23-6.03-2.3-12.22-7.03-15.98-4.42-3.52-10.29-4.7-15.94-4.84"/>
            <path class="cls-8" d="M207.05,182.02c6.52,2.13,10.68,9.22,10.45,16.07-.23,6.85-2.07,12.46-7.53,16.6,4.76-2.28,8.77-6.24,10.7-11.16,1.93-4.91,1.62-10.75-1.2-15.21-2.64-4.17-7.13-6.84-11.75-8.58"/>
            <path class="cls-8" d="M205.37,184.06c4.63,5.05,4.95,10.95,1.38,16.81-3.56,5.86-7.91,9.84-14.71,10.77,5.26.35,10.71-1.13,14.8-4.47s6.68-8.57,6.42-13.84c-.25-4.93-2.86-9.46-6.03-13.25"/>
          </g>
          <g>
            <g>
              <path class="cls-8" d="M30.94,177.77c-2.08,3.53-4.09,7.1-6,10.73l-5.07-2.69c2.17-4.11,4.45-8.15,6.83-12.14,1.43,1.35,2.84,2.72,4.25,4.1Z"/>
              <path class="cls-8" d="M61.59,127.21l4.2,3.92c-2.51,2.68-4.95,5.43-7.34,8.21-1.45-1.25-2.91-2.49-4.38-3.71,2.45-2.85,4.96-5.66,7.53-8.42Z"/>
              <path class="cls-2" d="M54.07,135.63c1.48,1.22,2.94,2.45,4.38,3.71-3.43,4-6.75,8.09-9.94,12.28-1.75-.87-3.53-1.69-5.33-2.46,3.48-4.62,7.12-9.13,10.89-13.53Z"/>
              <path class="cls-2" d="M34.24,161.72c1.63,1.01,3.24,2.05,4.84,3.09-2.84,4.24-5.55,8.56-8.15,12.95-1.4-1.38-2.82-2.74-4.25-4.1,2.41-4.05,4.94-8.03,7.56-11.95Z"/>
              <path class="cls-8" d="M43.17,149.16c1.8.76,3.58,1.58,5.33,2.46-3.28,4.3-6.42,8.71-9.42,13.2-1.6-1.05-3.21-2.08-4.84-3.09,2.86-4.27,5.84-8.46,8.93-12.56Z"/>
            </g>
            <path class="cls-8" d="M22.85,185.06c-7.84-.15-15.01,5.94-17.35,13.43-2.33,7.49-2.46,14.24,1.88,20.78C3.09,215.01.25,209.21.01,203.18c-.23-6.03,2.3-12.22,7.03-15.98,4.42-3.52,10.29-4.7,15.94-4.84"/>
            <path class="cls-8" d="M23.26,186.45c-6.52,2.13-10.68,9.22-10.45,16.07.23,6.85,2.07,12.46,7.53,16.6-4.76-2.28-8.77-6.24-10.7-11.16s-1.62-10.75,1.2-15.21c2.64-4.18,7.13-6.84,11.75-8.58"/>
            <path class="cls-8" d="M24.93,188.49c-4.63,5.05-4.95,10.95-1.38,16.81,3.56,5.86,7.91,9.84,14.71,10.77-5.26.35-10.71-1.13-14.8-4.47s-6.68-8.57-6.42-13.84c.25-4.93,2.86-9.46,6.03-13.25"/>
          </g>
          <g>
            <path class="cls-2" d="M102.71,139.37h-6.09v20.19c1.98.76,3.96,1.51,5.94,2.23l.14-22.42Z"/>
            <path class="cls-8" d="M96.64,159.56l.02,24.09c1.92.5,3.84,1,5.76,1.48l.15-23.34c-1.98-.72-3.96-1.47-5.93-2.23Z"/>
          </g>
          <g>
            <path class="cls-8" d="M132.2,162.4l-.15,22.73c1.92-.48,3.85-.97,5.76-1.48l.31-22.54c-1.98.43-3.95.86-5.93,1.28Z"/>
            <path class="cls-2" d="M138.43,139.37h-6.09l-.15,23.03c1.98-.43,3.95-.86,5.93-1.28l.3-21.74Z"/>
          </g>
          <g>
            <circle class="cls-4" cx="113.71" cy="84.26" r="67.79" transform="translate(-18.22 33.02) rotate(-15.31)"/>
            <circle class="cls-2" cx="120.31" cy="82.37" r="48.09" transform="translate(-1.67 162.25) rotate(-67.62)"/>
            <circle class="cls-6" cx="134.68" cy="82.15" r="15.58"/>
            <circle class="cls-1" cx="120.31" cy="82.37" r="36.91" transform="translate(-.46 .67) rotate(-.32)"/>
            <path class="cls-4" d="M104.05,74.62c-2.03,5.87,1.08,12.28,6.96,14.31,5.87,2.03,12.28-1.08,14.31-6.96,2.03-5.87-1.08-12.28-6.96-14.31-5.87-2.03-12.28,1.08-14.31,6.96Z"/>
            <g class="cls-3">
              <path class="cls-9" d="M111.99,136.99c17.1-11.14,29.93-28.17,37.79-47.01,7.57-18.16,10.42-38.69,7.15-57.94,6.43,5.32,12,11.91,16.25,19.68,17.97,32.84,5.91,74.04-26.93,92.01-18.34,10.03-39.28,10.7-57.33,3.61,8.16-2.23,16-5.74,23.08-10.35Z"/>
            </g>
          </g>
          <path class="cls-5" d="M101.11,20.58c4.19-9.06,11.94-16.42,21.21-20.14"/>
          <path class="cls-5" d="M112.14,19.11c8.55-5.79,18.51-9.47,28.77-10.64"/>
        </g>
      </g>
    </g>
  </g>
</svg>