<?xml version="1.0" encoding="UTF-8"?>
<svg id="Layer_2" data-name="Layer 2" xmlns="http://www.w3.org/2000/svg" viewBox="0 0 1728.92 1683.42">
  <defs>
    <style>
      .cls-1 {
        fill: #4f5778;
        fill-rule: evenodd;
      }
    </style>
  </defs>
  <g id="Layer_1-2" data-name="Layer 1">
    <g>
      <path class="cls-1" d="M1276.44,145.27C689.69,17.29,247.6,142.6,110.62,784.58c-98.07,459.64,409.69,793.39,819.93,798.02,149,1.68,340.14,7.92,453.86-101.16,56.75-54.44,199.68-246.32,222.33-326.18,36.6-129.05,35.74-299.3-26.67-419.63-24.32-46.9-38.24-96.01-46.7-147.76,2.57-27.43,26.89-47.57,54.31-45,27.43,2.57,47.57,26.89,45,54.31,11.94,10.98,1.59.53,14.19,37.72,19.63,57.94,7.86,24.31,33.4,75.06,38.85,77.2,49.72,188.4,48.57,273.91-1.67,124.57-17.02,218.6-87.31,322.1-149.04,219.45-214.06,344.42-497.5,369.55-199.33,17.67-386.42,9.5-574.88-64.34C205.69,1468.79-81.25,1142.21,20.87,730.89,189.95,49.91,665.53-90.08,1298.3,47.95c26.88,6.03,43.77,32.71,37.74,59.59-6.03,26.88-32.71,43.77-59.59,37.74Z"/>
      <path class="cls-1" d="M1251.35,304.67c-197.25-80.79-427.65-69.1-615.43,32.44-127.82,69.11-206.99,182.5-269.69,310.18-53.59,109.13-61.3,226.27-46.66,345.9,27.61,225.47,316.45,386.51,525.26,389.99,242.38,4.05,381.55-30.93,475.34-276.08,64.49-168.56,42.81-325.29-15.76-490.87-9.19-25.97,4.42-54.47,30.39-63.65,25.97-9.19,54.47,4.42,63.65,30.39l4.8,13.56c64.14,181.33,80.02,363.43,10.09,546.21-108.97,284.84-283.67,344.88-567.78,340.19-263.85-4.36-591.01-200.02-625.34-480.79-16.85-137.85-5.13-273.36,56.52-398.91,97.42-198.42,216.43-332.18,429.27-405.01,196.85-67.37,394.6-62.96,587.93,16.27,24.91,11.76,35.56,41.49,23.8,66.4-11.76,24.91-41.49,35.56-66.4,23.8Z"/>
      <path class="cls-1" d="M993.81,477.6c-125.22-23.84-284.67-4.25-362.65,110.46-129.54,190.55-194.61,546.2,106.15,611.36,110.29,23.9,292.08,16.6,368.2-76.78,89.26-109.49,59.92-310.53-30.42-410.93l-24.67-23.68c-21.36-17.39-24.58-48.8-7.19-70.16,17.39-21.36,48.8-24.58,70.16-7.2,45.1,43.21,63.67,61.35,93.04,118.73,114.6,223.91,53.24,516.27-229.46,569.05-398.88,74.47-652.41-175.98-519.6-573.59,44.53-133.31,105.97-254.35,240.07-314.4,109.68-49.11,206.29-51.31,323.29-28.9,26.52,7.44,42,34.96,34.56,61.49-7.44,26.52-34.96,42-61.49,34.56Z"/>
      <path class="cls-1" d="M885.44,759.41c-185.64-42.38-305.45,290.84-11.69,300.4,168.76,5.49,146.88-182.28,39.16-182.28h-9.3c-27.54,0-49.87-22.33-49.87-49.87s22.33-49.87,49.87-49.87h9.3c230.5,0,253.7,351.43,5.81,380.3-178.73,20.82-361.64-94.15-314.44-292.69,34.32-144.37,159.95-235.72,309.21-201.71,26.43,7.74,41.59,35.45,33.84,61.88-7.74,26.43-35.45,41.59-61.88,33.84Z"/>
    </g>
  </g>
</svg>