<?xml version="1.0" encoding="UTF-8"?>
<svg id="Layer_2" data-name="Layer 2" xmlns="http://www.w3.org/2000/svg" viewBox="0 0 384.24 506.71">
  <defs>
    <style>
      .cls-1 {
        fill: #fff;
      }

      .cls-2 {
        fill: #b5b6b6;
      }
    </style>
  </defs>
  <g id="_レイヤー_1" data-name="レイヤー 1">
    <g>
      <path class="cls-1" d="M158.8,58.13c0,61.68-97.12,156.67-97.12,230.4,0,29.78,18.43,58.13,69.47,58.13,81.53,0,129.74-70.19,129.74-168.72S193.54,43.24,193.54,18.43c0-9.92,7.09-17.01,21.98-17.01,13.47,0,53.17,2.13,82.24,2.13,16.31,0,48.21-1.42,70.19-1.42,10.64,0,16.31,6.38,16.31,15.59,0,28.36-103.51,90.04-103.51,187.16,0,112.72,98.54,181.49,98.54,219.77,0,17.73-17.01,34.03-62.39,34.03-49.63,0-66.64-9.92-66.64-38.28,0-20.56,12.06-42.54,12.06-64.51,0-14.18-5.67-24.81-24.11-24.81-25.52,0-36.16,23.39-41.83,51.04-12.05,54.59-31.9,81.52-89.32,81.52-49.63,0-104.21-29.06-104.21-82.24s51.04-100.67,51.04-170.85C53.88,76.56,0,51.04,0,29.77,0,9.92,22.69,0,73.73,0c56.71,0,85.07,21.97,85.07,58.13Z"/>
      <ellipse class="cls-1" cx="185.33" cy="162.84" rx="49.6" ry="47.12"/>
      <ellipse class="cls-1" cx="148.56" cy="273.14" rx="61.92" ry="55.6"/>
    </g>
    <g>
      <path class="cls-2" d="M2.79,496.95c0,.78.64,1.39,1.39,1.39h11.16c2.31,0,4.18,1.87,4.18,4.18s-1.87,4.18-4.18,4.18H0v-2.81h15.34c.76,0,1.39-.62,1.39-1.37s-.64-1.39-1.39-1.39H4.18C1.89,501.13,0,499.26,0,496.95s1.89-4.18,4.18-4.18h15.34v2.79H4.18c-.76,0-1.39.64-1.39,1.39Z"/>
      <path class="cls-2" d="M24.33,492.76v9.76c0,.76.62,1.37,1.39,1.37h11.14c.78,0,1.39-.62,1.41-1.37v-9.76h2.79v9.76c0,2.29-1.87,4.18-4.2,4.18h-11.14c-2.31,0-4.2-1.89-4.2-4.18v-9.76h2.81Z"/>
      <path class="cls-2" d="M58.41,506.71h-15.34v-13.95h15.34c2.29,0,4.16,1.87,4.16,4.18,0,1.08-.4,2.03-1.06,2.79.66.74,1.06,1.71,1.06,2.79,0,2.29-1.87,4.18-4.16,4.18ZM45.86,498.34h12.55c.76,0,1.39-.62,1.39-1.39s-.64-1.39-1.39-1.39h-12.55v2.79ZM45.86,503.9h12.55c.76,0,1.39-.62,1.39-1.37s-.64-1.39-1.39-1.39h-12.55v2.77Z"/>
      <path class="cls-2" d="M67.38,492.76v9.76c0,.76.62,1.37,1.39,1.37h11.14c.78,0,1.39-.62,1.41-1.37v-9.76h2.79v9.76c0,2.29-1.87,4.18-4.2,4.18h-11.14c-2.31,0-4.2-1.89-4.2-4.18v-9.76h2.81Z"/>
      <path class="cls-2" d="M112.42,506.71h-15.34v-13.95h15.34c2.31,0,4.18,1.87,4.18,4.18v5.58c0,2.29-1.87,4.18-4.18,4.18ZM99.86,503.9h12.55c.78,0,1.39-.62,1.39-1.37v-5.58c0-.78-.62-1.39-1.39-1.39h-12.55v8.35Z"/>
      <path class="cls-2" d="M133.92,506.71h-11.14c-2.31,0-4.18-1.89-4.18-4.18v-5.58c0-2.31,1.87-4.18,4.18-4.18h11.14c2.33,0,4.18,1.87,4.18,4.18v5.58c0,2.29-1.85,4.18-4.18,4.18ZM122.78,503.9h11.14c.8,0,1.42-.62,1.42-1.37v-5.58c0-.76-.62-1.39-1.42-1.39h-11.14c-.78,0-1.39.64-1.39,1.39v5.58c0,.76.62,1.37,1.39,1.37Z"/>
      <path class="cls-2" d="M148.47,506.71v-11.16h-8.37v-2.79h19.53v2.79h-8.37v11.16h-2.79Z"/>
      <path class="cls-2" d="M164.41,496.95c0,.78.64,1.39,1.39,1.39h11.16c2.31,0,4.18,1.87,4.18,4.18s-1.87,4.18-4.18,4.18h-15.34v-2.81h15.34c.76,0,1.39-.62,1.39-1.37s-.64-1.39-1.39-1.39h-11.16c-2.29,0-4.18-1.87-4.18-4.18s1.89-4.18,4.18-4.18h15.34v2.79h-15.34c-.76,0-1.39.64-1.39,1.39Z"/>
      <path class="cls-2" d="M190.58,496.95v5.58c0,.76.64,1.37,1.39,1.37h15.34v2.81h-15.34c-2.31,0-4.18-1.89-4.18-4.18v-5.58c0-2.31,1.87-4.18,4.18-4.18h15.34v2.79h-15.34c-.76,0-1.39.64-1.39,1.39Z"/>
      <path class="cls-2" d="M224.63,506.71h-11.14c-2.31,0-4.18-1.89-4.18-4.18v-5.58c0-2.31,1.87-4.18,4.18-4.18h11.14c2.33,0,4.18,1.87,4.18,4.18v5.58c0,2.29-1.85,4.18-4.18,4.18ZM213.49,503.9h11.14c.8,0,1.42-.62,1.42-1.37v-5.58c0-.76-.62-1.39-1.42-1.39h-11.14c-.78,0-1.39.64-1.39,1.39v5.58c0,.76.62,1.37,1.39,1.37Z"/>
      <path class="cls-2" d="M230.81,502.53v-9.76h2.79v9.76c0,.76.62,1.37,1.37,1.37h15.34v2.81h-15.34c-2.29,0-4.16-1.89-4.16-4.18Z"/>
      <path class="cls-2" d="M252.32,502.53v-9.76h2.79v9.76c0,.76.62,1.37,1.37,1.37h15.34v2.81h-15.34c-2.29,0-4.16-1.89-4.16-4.18Z"/>
      <path class="cls-2" d="M278.02,492.76h15.34v2.79h-15.34c-.78,0-1.39.64-1.39,1.39v1.39h16.74v2.79h-16.74v1.39c0,.76.62,1.37,1.39,1.37h15.34v2.81h-15.34c-2.31,0-4.2-1.89-4.2-4.18v-5.58c0-2.31,1.89-4.18,4.2-4.18Z"/>
      <path class="cls-2" d="M298.15,496.95v5.58c0,.76.64,1.37,1.39,1.37h15.34v2.81h-15.34c-2.31,0-4.18-1.89-4.18-4.18v-5.58c0-2.31,1.87-4.18,4.18-4.18h15.34v2.79h-15.34c-.76,0-1.39.64-1.39,1.39Z"/>
      <path class="cls-2" d="M325.25,506.71v-11.16h-8.37v-2.79h19.53v2.79h-8.37v11.16h-2.79Z"/>
      <path class="cls-2" d="M338.41,492.76h2.79v13.95h-2.79v-13.95Z"/>
      <path class="cls-2" d="M358.51,506.71h-11.14c-2.31,0-4.18-1.89-4.18-4.18v-5.58c0-2.31,1.87-4.18,4.18-4.18h11.14c2.33,0,4.18,1.87,4.18,4.18v5.58c0,2.29-1.85,4.18-4.18,4.18ZM347.37,503.9h11.14c.8,0,1.41-.62,1.41-1.37v-5.58c0-.76-.62-1.39-1.41-1.39h-11.14c-.78,0-1.39.64-1.39,1.39v5.58c0,.76.62,1.37,1.39,1.37Z"/>
      <path class="cls-2" d="M381.43,492.76h2.81v11.52c-.02,1.33-1.12,2.43-2.45,2.43-.54,0-1.08-.2-1.47-.52l-12.83-10.24v10.76h-2.79v-11.52c0-1.36,1.1-2.43,2.45-2.43.54,0,1.06.18,1.48.52l12.81,10.24v-10.76Z"/>
    </g>
  </g>
</svg>